M48
;GenerationSoftware,Autodesk,EAGLE,9.6.2*%
;CreationDate,2022-01-17T07:06:23Z*%
FMAT,2
ICI,OFF
METRIC,TZ,000.000
T5C0.350
T4C0.500
T3C0.813
T2C0.900
T1C2.800
%
G90
M71
T1
X4000Y4000
X4000Y60000
X106000Y60000
X106000Y4000
T2
X86200Y2000
X89200Y2000
X70600Y2000
X73600Y2000
T3
X72380Y17000
X74920Y17000
X77460Y17000
X80000Y17000
X82540Y17000
X85080Y17000
X87620Y17000
X90160Y17000
X92700Y17000
X95240Y17000
X97780Y17000
X62220Y44940
X64760Y44940
X67300Y44940
X69840Y44940
X72380Y44940
X62220Y17000
X77460Y44940
X80000Y44940
X82540Y44940
X85080Y44940
X87620Y44940
X90160Y44940
X92700Y44940
X95240Y44940
X97780Y44940
X91140Y60000
X88600Y60000
X86060Y60000
X74920Y44940
X64760Y17000
X67300Y17000
X69840Y17000
T4
X105140Y47775
X105140Y46525
X105140Y45275
X105140Y44025
X105140Y49025
X105140Y50275
X105140Y51525
X105140Y52775
T5
X45200Y47600
X46600Y47600
X48100Y47600
X37000Y46100
X38800Y46100
X40700Y46100
X42500Y46100
X43800Y46100
X45200Y46100
X46700Y46100
X48100Y46100
X74600Y50500
X75900Y50500
X77100Y50500
X78300Y50500
X79500Y50500
X80800Y50500
X82100Y50500
X73300Y50500
X89700Y50500
X88500Y50500
X87300Y50500
X86100Y50500
X84800Y50500
X83400Y50500
X3700Y39800
X5400Y39800
X7300Y39800
X9200Y39800
X10900Y39900
X10900Y41300
X9200Y41300
X7300Y41300
X5400Y41300
X3700Y41300
X10900Y42800
X9200Y42800
X7300Y42800
X5400Y42800
X3800Y42800
X7200Y44400
X9100Y44400
X10900Y44400
X5400Y44400
X3700Y44400
X18100Y5000
X76800Y23700
X20700Y5300
X22100Y5300
X18200Y3600
X19500Y3600
X20700Y3600
X22300Y3600
X22300Y2200
X30800Y5400
X32200Y5400
X30900Y3900
X32300Y4000
X31000Y2000
X32200Y1900
X23500Y5400
X24800Y5400
X28400Y5400
X29800Y5400
X41000Y16000
X42900Y16000
X44600Y16100
X41000Y14400
X42900Y14400
X44600Y14500
X41000Y12600
X42900Y12600
X44600Y12700
X41000Y10700
X42900Y10800
X44600Y10800
X41000Y9000
X42900Y9000
X44600Y9000
X83900Y35200
X68100Y37400
X4800Y10400
X4900Y11300
X104900Y20800
X104900Y21600
X97500Y7000
X98400Y7000
X102100Y50700
X66000Y41300
X17800Y22700
X43300Y28600
X18100Y21500
X43300Y27500
X43800Y47600
X42400Y47600
X40700Y47600
X38700Y47600
X36900Y47600
X48100Y49300
X46600Y49300
X45200Y49300
X43800Y49300
X42400Y49300
X40700Y49300
X38700Y49300
X36900Y49300
X64600Y7300
X63100Y7300
X61600Y7300
X60200Y7300
X64600Y8500
X63500Y8500
X62400Y8500
X61300Y8500
X60200Y8500
X100100Y2800
X98700Y2700
X98600Y4200
X100100Y4200
X96100Y29000
X94300Y28900
X92100Y28900
X97200Y30400
X95800Y30100
X93600Y30700
X92100Y30600
X77000Y21800
X79200Y21800
X82000Y21800
X85000Y21800
X87300Y21700
X89400Y21600
X91600Y21600
X93900Y21500
X93800Y23500
X91500Y23500
X89300Y23500
X87200Y23600
X84800Y23700
X81800Y23700
X79100Y23700
X19400Y5300
M30