G04 EAGLE Gerber RS-274X export*
G75*
%MOMM*%
%FSLAX34Y34*%
%LPD*%
%INBottom Copper*%
%IPPOS*%
%AMOC8*
5,1,8,0,0,1.08239X$1,22.5*%
G01*
%ADD10C,1.008000*%
%ADD11R,1.778000X1.778000*%
%ADD12P,1.924489X8X112.500000*%
%ADD13C,1.320800*%
%ADD14C,0.198000*%
%ADD15C,0.203000*%
%ADD16R,1.000000X1.100000*%
%ADD17C,5.334000*%
%ADD18R,1.524000X4.064000*%
%ADD19C,0.756400*%
%ADD20C,0.600000*%
%ADD21C,1.200000*%
%ADD22C,0.300000*%

G36*
X230470Y3004D02*
X230470Y3004D01*
X230500Y3002D01*
X230669Y3024D01*
X230837Y3041D01*
X230866Y3050D01*
X230896Y3054D01*
X231057Y3109D01*
X231219Y3159D01*
X231246Y3173D01*
X231274Y3183D01*
X231420Y3269D01*
X231569Y3350D01*
X231593Y3370D01*
X231619Y3385D01*
X231745Y3498D01*
X231875Y3608D01*
X231894Y3631D01*
X231916Y3652D01*
X232017Y3788D01*
X232123Y3921D01*
X232137Y3948D01*
X232155Y3972D01*
X232227Y4125D01*
X232304Y4277D01*
X232312Y4306D01*
X232325Y4333D01*
X232365Y4499D01*
X232410Y4662D01*
X232413Y4692D01*
X232420Y4721D01*
X232439Y5000D01*
X232439Y21511D01*
X240790Y21511D01*
X240820Y21514D01*
X240850Y21512D01*
X241019Y21534D01*
X241187Y21551D01*
X241216Y21560D01*
X241246Y21563D01*
X241407Y21618D01*
X241569Y21669D01*
X241595Y21683D01*
X241624Y21693D01*
X241770Y21779D01*
X241919Y21860D01*
X241942Y21880D01*
X241969Y21895D01*
X242095Y22008D01*
X242225Y22118D01*
X242243Y22141D01*
X242266Y22162D01*
X242367Y22298D01*
X242473Y22431D01*
X242487Y22458D01*
X242505Y22482D01*
X242577Y22635D01*
X242595Y22672D01*
X242679Y22530D01*
X242761Y22380D01*
X242780Y22357D01*
X242795Y22331D01*
X242909Y22205D01*
X243018Y22075D01*
X243042Y22056D01*
X243062Y22034D01*
X243198Y21933D01*
X243331Y21827D01*
X243358Y21813D01*
X243382Y21795D01*
X243536Y21723D01*
X243687Y21646D01*
X243716Y21638D01*
X243744Y21625D01*
X243909Y21585D01*
X244072Y21540D01*
X244102Y21537D01*
X244132Y21530D01*
X244410Y21511D01*
X252761Y21511D01*
X252761Y5000D01*
X252764Y4970D01*
X252762Y4940D01*
X252784Y4771D01*
X252801Y4603D01*
X252810Y4574D01*
X252814Y4544D01*
X252869Y4383D01*
X252919Y4221D01*
X252933Y4194D01*
X252943Y4166D01*
X253029Y4020D01*
X253110Y3871D01*
X253130Y3847D01*
X253145Y3821D01*
X253258Y3695D01*
X253368Y3565D01*
X253391Y3546D01*
X253412Y3524D01*
X253548Y3423D01*
X253681Y3317D01*
X253708Y3303D01*
X253732Y3285D01*
X253885Y3213D01*
X254037Y3136D01*
X254066Y3128D01*
X254093Y3115D01*
X254259Y3075D01*
X254422Y3030D01*
X254452Y3027D01*
X254481Y3020D01*
X254760Y3001D01*
X281240Y3001D01*
X281270Y3004D01*
X281300Y3002D01*
X281469Y3024D01*
X281637Y3041D01*
X281666Y3050D01*
X281696Y3054D01*
X281857Y3109D01*
X282019Y3159D01*
X282046Y3173D01*
X282074Y3183D01*
X282220Y3269D01*
X282369Y3350D01*
X282393Y3370D01*
X282419Y3385D01*
X282545Y3498D01*
X282675Y3608D01*
X282694Y3631D01*
X282716Y3652D01*
X282817Y3788D01*
X282923Y3921D01*
X282937Y3948D01*
X282955Y3972D01*
X283027Y4125D01*
X283104Y4277D01*
X283112Y4306D01*
X283125Y4333D01*
X283165Y4499D01*
X283210Y4662D01*
X283213Y4692D01*
X283220Y4721D01*
X283239Y5000D01*
X283239Y21511D01*
X291590Y21511D01*
X291620Y21514D01*
X291650Y21512D01*
X291819Y21534D01*
X291987Y21551D01*
X292016Y21560D01*
X292046Y21563D01*
X292207Y21618D01*
X292369Y21669D01*
X292395Y21683D01*
X292424Y21693D01*
X292570Y21779D01*
X292719Y21860D01*
X292742Y21880D01*
X292769Y21895D01*
X292895Y22008D01*
X293025Y22118D01*
X293043Y22141D01*
X293066Y22162D01*
X293167Y22298D01*
X293273Y22431D01*
X293287Y22458D01*
X293305Y22482D01*
X293377Y22635D01*
X293395Y22672D01*
X293479Y22530D01*
X293561Y22380D01*
X293580Y22357D01*
X293595Y22331D01*
X293709Y22205D01*
X293818Y22075D01*
X293842Y22056D01*
X293862Y22034D01*
X293998Y21933D01*
X294131Y21827D01*
X294158Y21813D01*
X294182Y21795D01*
X294336Y21723D01*
X294487Y21646D01*
X294516Y21638D01*
X294544Y21625D01*
X294709Y21585D01*
X294872Y21540D01*
X294902Y21537D01*
X294932Y21530D01*
X295210Y21511D01*
X303561Y21511D01*
X303561Y5000D01*
X303564Y4970D01*
X303562Y4940D01*
X303584Y4771D01*
X303601Y4603D01*
X303610Y4574D01*
X303614Y4544D01*
X303669Y4383D01*
X303719Y4221D01*
X303733Y4194D01*
X303743Y4166D01*
X303829Y4020D01*
X303910Y3871D01*
X303930Y3847D01*
X303945Y3821D01*
X304058Y3695D01*
X304168Y3565D01*
X304191Y3546D01*
X304212Y3524D01*
X304348Y3423D01*
X304481Y3317D01*
X304508Y3303D01*
X304532Y3285D01*
X304685Y3213D01*
X304837Y3136D01*
X304866Y3128D01*
X304893Y3115D01*
X305059Y3075D01*
X305222Y3030D01*
X305252Y3027D01*
X305281Y3020D01*
X305560Y3001D01*
X1095000Y3001D01*
X1095030Y3004D01*
X1095060Y3002D01*
X1095229Y3024D01*
X1095397Y3041D01*
X1095426Y3050D01*
X1095456Y3054D01*
X1095617Y3109D01*
X1095779Y3159D01*
X1095806Y3173D01*
X1095834Y3183D01*
X1095980Y3269D01*
X1096129Y3350D01*
X1096153Y3370D01*
X1096179Y3385D01*
X1096305Y3498D01*
X1096435Y3608D01*
X1096454Y3631D01*
X1096476Y3652D01*
X1096577Y3788D01*
X1096683Y3921D01*
X1096697Y3948D01*
X1096715Y3972D01*
X1096787Y4125D01*
X1096864Y4277D01*
X1096872Y4306D01*
X1096885Y4333D01*
X1096925Y4499D01*
X1096970Y4662D01*
X1096973Y4692D01*
X1096980Y4721D01*
X1096999Y5000D01*
X1096999Y635000D01*
X1096996Y635030D01*
X1096998Y635060D01*
X1096976Y635229D01*
X1096959Y635397D01*
X1096950Y635426D01*
X1096946Y635456D01*
X1096891Y635617D01*
X1096841Y635779D01*
X1096827Y635806D01*
X1096817Y635834D01*
X1096731Y635980D01*
X1096650Y636129D01*
X1096630Y636153D01*
X1096615Y636179D01*
X1096502Y636305D01*
X1096392Y636435D01*
X1096369Y636454D01*
X1096348Y636476D01*
X1096212Y636577D01*
X1096079Y636683D01*
X1096052Y636697D01*
X1096028Y636715D01*
X1095875Y636787D01*
X1095723Y636864D01*
X1095694Y636872D01*
X1095667Y636885D01*
X1095501Y636925D01*
X1095338Y636970D01*
X1095308Y636973D01*
X1095279Y636980D01*
X1095000Y636999D01*
X5000Y636999D01*
X4970Y636996D01*
X4940Y636998D01*
X4771Y636976D01*
X4603Y636959D01*
X4574Y636950D01*
X4544Y636946D01*
X4383Y636891D01*
X4221Y636841D01*
X4194Y636827D01*
X4166Y636817D01*
X4020Y636731D01*
X3871Y636650D01*
X3847Y636630D01*
X3821Y636615D01*
X3695Y636502D01*
X3565Y636392D01*
X3546Y636369D01*
X3524Y636348D01*
X3423Y636212D01*
X3317Y636079D01*
X3303Y636052D01*
X3285Y636028D01*
X3213Y635875D01*
X3136Y635723D01*
X3128Y635694D01*
X3115Y635667D01*
X3075Y635501D01*
X3030Y635338D01*
X3027Y635308D01*
X3020Y635279D01*
X3001Y635000D01*
X3001Y5000D01*
X3004Y4970D01*
X3002Y4940D01*
X3024Y4771D01*
X3041Y4603D01*
X3050Y4574D01*
X3054Y4544D01*
X3109Y4383D01*
X3159Y4221D01*
X3173Y4194D01*
X3183Y4166D01*
X3269Y4020D01*
X3350Y3871D01*
X3370Y3847D01*
X3385Y3821D01*
X3498Y3695D01*
X3608Y3565D01*
X3631Y3546D01*
X3652Y3524D01*
X3788Y3423D01*
X3921Y3317D01*
X3948Y3303D01*
X3972Y3285D01*
X4125Y3213D01*
X4277Y3136D01*
X4306Y3128D01*
X4333Y3115D01*
X4499Y3075D01*
X4662Y3030D01*
X4692Y3027D01*
X4721Y3020D01*
X5000Y3001D01*
X230440Y3001D01*
X230470Y3004D01*
G37*
%LPC*%
G36*
X46210Y94999D02*
X46210Y94999D01*
X42902Y96370D01*
X40370Y98902D01*
X38999Y102210D01*
X38999Y113790D01*
X40370Y117098D01*
X56902Y133630D01*
X60210Y135001D01*
X75444Y135001D01*
X75489Y135005D01*
X75534Y135003D01*
X75687Y135025D01*
X75841Y135041D01*
X75884Y135054D01*
X75929Y135061D01*
X76075Y135113D01*
X76223Y135159D01*
X76263Y135180D01*
X76305Y135196D01*
X76437Y135276D01*
X76573Y135350D01*
X76608Y135380D01*
X76647Y135403D01*
X76857Y135586D01*
X80414Y139143D01*
X80442Y139178D01*
X80476Y139208D01*
X80568Y139332D01*
X80667Y139452D01*
X80688Y139492D01*
X80715Y139528D01*
X80781Y139668D01*
X80853Y139805D01*
X80866Y139849D01*
X80885Y139890D01*
X80922Y140040D01*
X80965Y140189D01*
X80969Y140234D01*
X80980Y140278D01*
X80999Y140556D01*
X80999Y269790D01*
X82370Y273098D01*
X167902Y358630D01*
X171210Y360001D01*
X378790Y360001D01*
X382098Y358630D01*
X419143Y321586D01*
X419178Y321558D01*
X419208Y321524D01*
X419332Y321432D01*
X419452Y321333D01*
X419492Y321312D01*
X419528Y321285D01*
X419668Y321219D01*
X419805Y321147D01*
X419849Y321134D01*
X419890Y321115D01*
X420040Y321078D01*
X420189Y321035D01*
X420234Y321031D01*
X420278Y321020D01*
X420556Y321001D01*
X616790Y321001D01*
X620098Y319630D01*
X622911Y316818D01*
X622912Y316817D01*
X657143Y282586D01*
X657178Y282558D01*
X657208Y282524D01*
X657332Y282432D01*
X657452Y282333D01*
X657492Y282312D01*
X657528Y282285D01*
X657668Y282219D01*
X657805Y282147D01*
X657849Y282134D01*
X657890Y282115D01*
X658040Y282078D01*
X658189Y282035D01*
X658234Y282031D01*
X658278Y282020D01*
X658556Y282001D01*
X796751Y282001D01*
X796773Y282003D01*
X796796Y282001D01*
X796972Y282023D01*
X797148Y282041D01*
X797170Y282047D01*
X797192Y282050D01*
X797360Y282106D01*
X797530Y282159D01*
X797550Y282170D01*
X797571Y282177D01*
X797724Y282265D01*
X797880Y282350D01*
X797897Y282365D01*
X797917Y282376D01*
X798050Y282494D01*
X798185Y282608D01*
X798199Y282626D01*
X798217Y282641D01*
X798324Y282782D01*
X798434Y282921D01*
X798444Y282941D01*
X798458Y282959D01*
X798534Y283119D01*
X798614Y283277D01*
X798621Y283299D01*
X798630Y283319D01*
X798674Y283491D01*
X798721Y283662D01*
X798723Y283684D01*
X798728Y283707D01*
X798737Y283884D01*
X798749Y284060D01*
X798746Y284083D01*
X798747Y284106D01*
X798720Y284281D01*
X798697Y284456D01*
X798690Y284478D01*
X798686Y284500D01*
X798598Y284765D01*
X797999Y286210D01*
X797999Y316790D01*
X799370Y320098D01*
X816702Y337430D01*
X820010Y338801D01*
X836871Y338801D01*
X836878Y338801D01*
X836886Y338801D01*
X837076Y338821D01*
X837268Y338841D01*
X837275Y338843D01*
X837283Y338844D01*
X837465Y338901D01*
X837650Y338959D01*
X837656Y338962D01*
X837664Y338965D01*
X837830Y339057D01*
X838000Y339150D01*
X838006Y339155D01*
X838013Y339159D01*
X838158Y339284D01*
X838306Y339408D01*
X838310Y339414D01*
X838316Y339419D01*
X838434Y339570D01*
X838554Y339721D01*
X838557Y339728D01*
X838562Y339734D01*
X838647Y339905D01*
X838735Y340077D01*
X838737Y340084D01*
X838737Y340085D01*
X838750Y340047D01*
X838812Y339866D01*
X838816Y339859D01*
X838819Y339852D01*
X838919Y339685D01*
X839015Y339521D01*
X839020Y339516D01*
X839023Y339509D01*
X839153Y339367D01*
X839281Y339224D01*
X839287Y339219D01*
X839292Y339214D01*
X839448Y339099D01*
X839601Y338985D01*
X839608Y338982D01*
X839614Y338978D01*
X839864Y338853D01*
X843298Y337430D01*
X844343Y336386D01*
X844378Y336358D01*
X844408Y336324D01*
X844532Y336232D01*
X844652Y336133D01*
X844692Y336112D01*
X844728Y336085D01*
X844868Y336019D01*
X845005Y335947D01*
X845049Y335934D01*
X845090Y335915D01*
X845240Y335878D01*
X845389Y335835D01*
X845434Y335831D01*
X845478Y335820D01*
X845756Y335801D01*
X847043Y335801D01*
X847088Y335805D01*
X847134Y335803D01*
X847287Y335825D01*
X847441Y335841D01*
X847484Y335854D01*
X847529Y335861D01*
X847674Y335913D01*
X847822Y335959D01*
X847862Y335980D01*
X847905Y335996D01*
X848037Y336076D01*
X848173Y336150D01*
X848207Y336180D01*
X848246Y336203D01*
X848457Y336386D01*
X849371Y337301D01*
X861029Y337301D01*
X862187Y336143D01*
X862210Y336124D01*
X862230Y336101D01*
X862365Y335997D01*
X862496Y335890D01*
X862523Y335876D01*
X862547Y335857D01*
X862699Y335783D01*
X862849Y335704D01*
X862878Y335695D01*
X862905Y335682D01*
X863070Y335639D01*
X863232Y335591D01*
X863263Y335589D01*
X863292Y335581D01*
X863461Y335572D01*
X863630Y335558D01*
X863661Y335561D01*
X863691Y335559D01*
X863858Y335584D01*
X864027Y335603D01*
X864056Y335613D01*
X864086Y335617D01*
X864246Y335675D01*
X864407Y335727D01*
X864433Y335742D01*
X864462Y335752D01*
X864607Y335841D01*
X864754Y335924D01*
X864777Y335944D01*
X864803Y335960D01*
X865014Y336143D01*
X865201Y336330D01*
X868510Y337701D01*
X887090Y337701D01*
X890398Y336330D01*
X890943Y335786D01*
X890978Y335758D01*
X891008Y335724D01*
X891132Y335632D01*
X891252Y335533D01*
X891292Y335512D01*
X891328Y335485D01*
X891468Y335419D01*
X891605Y335347D01*
X891649Y335334D01*
X891690Y335315D01*
X891840Y335278D01*
X891989Y335235D01*
X892034Y335231D01*
X892078Y335220D01*
X892356Y335201D01*
X905560Y335201D01*
X905653Y335132D01*
X905772Y335033D01*
X905813Y335012D01*
X905849Y334985D01*
X905989Y334919D01*
X906126Y334847D01*
X906169Y334834D01*
X906210Y334815D01*
X906361Y334778D01*
X906509Y334735D01*
X906554Y334731D01*
X906598Y334720D01*
X906877Y334701D01*
X908744Y334701D01*
X908789Y334705D01*
X908834Y334703D01*
X908987Y334725D01*
X909141Y334741D01*
X909184Y334754D01*
X909229Y334761D01*
X909375Y334813D01*
X909523Y334859D01*
X909562Y334880D01*
X909605Y334896D01*
X909737Y334976D01*
X909873Y335050D01*
X909908Y335080D01*
X909947Y335103D01*
X910157Y335286D01*
X911202Y336330D01*
X914510Y337701D01*
X948300Y337701D01*
X948330Y337704D01*
X948360Y337702D01*
X948529Y337724D01*
X948697Y337741D01*
X948726Y337750D01*
X948756Y337754D01*
X948917Y337809D01*
X949079Y337859D01*
X949106Y337873D01*
X949134Y337883D01*
X949280Y337969D01*
X949429Y338050D01*
X949453Y338070D01*
X949479Y338085D01*
X949605Y338198D01*
X949735Y338308D01*
X949754Y338331D01*
X949776Y338352D01*
X949877Y338488D01*
X949983Y338621D01*
X949997Y338648D01*
X950015Y338672D01*
X950087Y338825D01*
X950164Y338977D01*
X950172Y339006D01*
X950185Y339033D01*
X950225Y339199D01*
X950270Y339362D01*
X950273Y339392D01*
X950280Y339421D01*
X950299Y339700D01*
X950299Y344684D01*
X952066Y346451D01*
X967034Y346451D01*
X968801Y344684D01*
X968801Y312716D01*
X967034Y310949D01*
X952066Y310949D01*
X950299Y312716D01*
X950299Y317700D01*
X950296Y317730D01*
X950298Y317760D01*
X950276Y317929D01*
X950259Y318097D01*
X950250Y318126D01*
X950246Y318156D01*
X950191Y318317D01*
X950141Y318479D01*
X950127Y318506D01*
X950117Y318534D01*
X950031Y318680D01*
X949950Y318829D01*
X949930Y318853D01*
X949915Y318879D01*
X949802Y319005D01*
X949692Y319135D01*
X949669Y319154D01*
X949648Y319176D01*
X949512Y319277D01*
X949379Y319383D01*
X949352Y319397D01*
X949328Y319415D01*
X949175Y319487D01*
X949023Y319564D01*
X948994Y319572D01*
X948967Y319585D01*
X948801Y319625D01*
X948638Y319670D01*
X948608Y319673D01*
X948579Y319680D01*
X948300Y319699D01*
X914510Y319699D01*
X911202Y321070D01*
X910157Y322114D01*
X910122Y322142D01*
X910092Y322176D01*
X909968Y322268D01*
X909848Y322367D01*
X909808Y322388D01*
X909772Y322415D01*
X909632Y322481D01*
X909495Y322553D01*
X909451Y322566D01*
X909410Y322585D01*
X909260Y322622D01*
X909111Y322665D01*
X909066Y322669D01*
X909022Y322680D01*
X908744Y322699D01*
X906877Y322699D01*
X906832Y322695D01*
X906786Y322697D01*
X906633Y322675D01*
X906479Y322659D01*
X906436Y322646D01*
X906391Y322639D01*
X906246Y322587D01*
X906098Y322541D01*
X906058Y322520D01*
X906015Y322504D01*
X905883Y322424D01*
X905747Y322350D01*
X905713Y322320D01*
X905674Y322297D01*
X905562Y322199D01*
X892356Y322199D01*
X892311Y322195D01*
X892266Y322197D01*
X892113Y322175D01*
X891959Y322159D01*
X891916Y322146D01*
X891871Y322139D01*
X891725Y322087D01*
X891577Y322041D01*
X891538Y322020D01*
X891495Y322004D01*
X891363Y321924D01*
X891227Y321850D01*
X891192Y321820D01*
X891153Y321797D01*
X890943Y321614D01*
X890398Y321070D01*
X887090Y319699D01*
X868510Y319699D01*
X865445Y320969D01*
X865364Y320993D01*
X865287Y321027D01*
X865173Y321051D01*
X865063Y321084D01*
X864979Y321092D01*
X864896Y321109D01*
X864780Y321110D01*
X864665Y321121D01*
X864581Y321112D01*
X864497Y321112D01*
X864383Y321090D01*
X864268Y321078D01*
X864187Y321052D01*
X864104Y321036D01*
X863998Y320992D01*
X863887Y320957D01*
X863813Y320916D01*
X863735Y320884D01*
X863639Y320819D01*
X863538Y320763D01*
X863474Y320708D01*
X863404Y320661D01*
X863323Y320578D01*
X863235Y320503D01*
X863183Y320436D01*
X863123Y320376D01*
X863060Y320279D01*
X862989Y320188D01*
X862951Y320113D01*
X862905Y320042D01*
X862862Y319934D01*
X862811Y319831D01*
X862789Y319749D01*
X862758Y319671D01*
X862737Y319557D01*
X862707Y319445D01*
X862702Y319360D01*
X862687Y319278D01*
X862689Y319162D01*
X862682Y319046D01*
X862694Y318962D01*
X862696Y318878D01*
X862730Y318701D01*
X862737Y318651D01*
X862741Y318640D01*
X862741Y315299D01*
X855700Y315299D01*
X855670Y315296D01*
X855640Y315298D01*
X855471Y315276D01*
X855303Y315259D01*
X855274Y315250D01*
X855244Y315246D01*
X855191Y315228D01*
X855038Y315270D01*
X855008Y315273D01*
X854978Y315280D01*
X854700Y315299D01*
X847659Y315299D01*
X847659Y318634D01*
X847832Y319281D01*
X848167Y319860D01*
X848575Y320268D01*
X848594Y320292D01*
X848617Y320311D01*
X848720Y320446D01*
X848828Y320577D01*
X848842Y320604D01*
X848860Y320628D01*
X848935Y320781D01*
X849014Y320931D01*
X849023Y320960D01*
X849036Y320987D01*
X849079Y321151D01*
X849126Y321314D01*
X849129Y321344D01*
X849137Y321373D01*
X849146Y321542D01*
X849160Y321712D01*
X849157Y321742D01*
X849159Y321772D01*
X849134Y321940D01*
X849114Y322109D01*
X849105Y322137D01*
X849101Y322167D01*
X849043Y322328D01*
X848991Y322489D01*
X848976Y322515D01*
X848965Y322543D01*
X848877Y322689D01*
X848794Y322836D01*
X848774Y322859D01*
X848758Y322885D01*
X848575Y323096D01*
X848457Y323214D01*
X848422Y323242D01*
X848391Y323276D01*
X848267Y323368D01*
X848148Y323467D01*
X848107Y323488D01*
X848071Y323515D01*
X847931Y323581D01*
X847794Y323653D01*
X847751Y323666D01*
X847710Y323685D01*
X847559Y323722D01*
X847411Y323765D01*
X847366Y323769D01*
X847322Y323780D01*
X847043Y323799D01*
X845756Y323799D01*
X845711Y323795D01*
X845666Y323797D01*
X845513Y323775D01*
X845359Y323759D01*
X845316Y323746D01*
X845271Y323739D01*
X845125Y323687D01*
X844977Y323641D01*
X844938Y323620D01*
X844895Y323604D01*
X844763Y323524D01*
X844627Y323450D01*
X844592Y323420D01*
X844553Y323397D01*
X844343Y323214D01*
X843298Y322170D01*
X839990Y320799D01*
X826356Y320799D01*
X826311Y320795D01*
X826266Y320797D01*
X826113Y320775D01*
X825959Y320759D01*
X825916Y320746D01*
X825871Y320739D01*
X825725Y320687D01*
X825577Y320641D01*
X825538Y320620D01*
X825495Y320604D01*
X825363Y320524D01*
X825227Y320450D01*
X825192Y320420D01*
X825153Y320397D01*
X824943Y320214D01*
X816586Y311857D01*
X816558Y311822D01*
X816524Y311792D01*
X816432Y311668D01*
X816333Y311548D01*
X816312Y311508D01*
X816285Y311472D01*
X816219Y311332D01*
X816147Y311195D01*
X816134Y311151D01*
X816115Y311110D01*
X816078Y310960D01*
X816035Y310811D01*
X816031Y310766D01*
X816020Y310722D01*
X816001Y310444D01*
X816001Y292556D01*
X816005Y292511D01*
X816003Y292466D01*
X816025Y292313D01*
X816041Y292159D01*
X816054Y292116D01*
X816061Y292071D01*
X816113Y291925D01*
X816159Y291777D01*
X816180Y291738D01*
X816196Y291695D01*
X816276Y291563D01*
X816350Y291427D01*
X816380Y291392D01*
X816403Y291353D01*
X816586Y291143D01*
X825143Y282586D01*
X825178Y282558D01*
X825208Y282524D01*
X825332Y282432D01*
X825452Y282333D01*
X825492Y282312D01*
X825528Y282285D01*
X825668Y282219D01*
X825805Y282147D01*
X825849Y282134D01*
X825890Y282115D01*
X826040Y282078D01*
X826189Y282035D01*
X826234Y282031D01*
X826278Y282020D01*
X826556Y282001D01*
X964444Y282001D01*
X964489Y282005D01*
X964534Y282003D01*
X964687Y282025D01*
X964841Y282041D01*
X964884Y282054D01*
X964929Y282061D01*
X965075Y282113D01*
X965223Y282159D01*
X965262Y282180D01*
X965305Y282196D01*
X965437Y282276D01*
X965573Y282350D01*
X965608Y282380D01*
X965647Y282403D01*
X965857Y282586D01*
X1003414Y320143D01*
X1003442Y320178D01*
X1003476Y320208D01*
X1003568Y320332D01*
X1003667Y320452D01*
X1003688Y320492D01*
X1003715Y320528D01*
X1003781Y320668D01*
X1003853Y320805D01*
X1003866Y320849D01*
X1003885Y320890D01*
X1003922Y321040D01*
X1003965Y321189D01*
X1003969Y321234D01*
X1003980Y321278D01*
X1003999Y321556D01*
X1003999Y380444D01*
X1003995Y380489D01*
X1003997Y380534D01*
X1003975Y380687D01*
X1003959Y380841D01*
X1003946Y380884D01*
X1003939Y380929D01*
X1003887Y381075D01*
X1003841Y381223D01*
X1003820Y381263D01*
X1003804Y381305D01*
X1003724Y381437D01*
X1003650Y381573D01*
X1003620Y381608D01*
X1003597Y381647D01*
X1003414Y381857D01*
X972983Y412288D01*
X970170Y415102D01*
X968799Y418410D01*
X968799Y451190D01*
X969043Y451779D01*
X969058Y451830D01*
X969081Y451878D01*
X969116Y452021D01*
X969158Y452161D01*
X969163Y452214D01*
X969176Y452266D01*
X969195Y452544D01*
X969195Y457716D01*
X970505Y460878D01*
X972926Y463299D01*
X976088Y464609D01*
X979512Y464609D01*
X982674Y463299D01*
X985095Y460878D01*
X986405Y457716D01*
X986405Y452544D01*
X986410Y452491D01*
X986408Y452439D01*
X986430Y452293D01*
X986445Y452147D01*
X986460Y452096D01*
X986468Y452044D01*
X986557Y451779D01*
X986801Y451190D01*
X986801Y424756D01*
X986805Y424711D01*
X986803Y424666D01*
X986825Y424513D01*
X986841Y424359D01*
X986854Y424316D01*
X986861Y424271D01*
X986913Y424125D01*
X986959Y423977D01*
X986980Y423937D01*
X986996Y423895D01*
X987076Y423763D01*
X987150Y423627D01*
X987180Y423592D01*
X987203Y423553D01*
X987386Y423343D01*
X1017817Y392912D01*
X1020630Y390098D01*
X1022001Y386790D01*
X1022001Y315210D01*
X1020630Y311902D01*
X974098Y265370D01*
X970790Y263999D01*
X652210Y263999D01*
X648902Y265370D01*
X611857Y302414D01*
X611822Y302442D01*
X611792Y302476D01*
X611668Y302568D01*
X611548Y302667D01*
X611508Y302688D01*
X611472Y302715D01*
X611332Y302781D01*
X611195Y302853D01*
X611151Y302866D01*
X611110Y302885D01*
X610960Y302922D01*
X610811Y302965D01*
X610766Y302969D01*
X610722Y302980D01*
X610444Y302999D01*
X414210Y302999D01*
X410902Y304370D01*
X373857Y341414D01*
X373822Y341442D01*
X373792Y341476D01*
X373668Y341568D01*
X373548Y341667D01*
X373508Y341688D01*
X373472Y341715D01*
X373332Y341781D01*
X373195Y341853D01*
X373151Y341866D01*
X373110Y341885D01*
X372960Y341922D01*
X372811Y341965D01*
X372766Y341969D01*
X372722Y341980D01*
X372444Y341999D01*
X177556Y341999D01*
X177511Y341995D01*
X177466Y341997D01*
X177313Y341975D01*
X177159Y341959D01*
X177116Y341946D01*
X177071Y341939D01*
X176925Y341887D01*
X176777Y341841D01*
X176738Y341820D01*
X176695Y341804D01*
X176563Y341724D01*
X176427Y341650D01*
X176392Y341620D01*
X176353Y341597D01*
X176143Y341414D01*
X99586Y264857D01*
X99558Y264822D01*
X99524Y264792D01*
X99432Y264668D01*
X99333Y264548D01*
X99312Y264508D01*
X99285Y264472D01*
X99219Y264332D01*
X99147Y264195D01*
X99134Y264151D01*
X99115Y264110D01*
X99078Y263960D01*
X99035Y263811D01*
X99031Y263766D01*
X99020Y263722D01*
X99001Y263444D01*
X99001Y134210D01*
X97630Y130902D01*
X87912Y121183D01*
X85098Y118370D01*
X81790Y116999D01*
X66556Y116999D01*
X66511Y116995D01*
X66466Y116997D01*
X66313Y116975D01*
X66159Y116959D01*
X66116Y116946D01*
X66071Y116939D01*
X65925Y116887D01*
X65777Y116841D01*
X65738Y116820D01*
X65695Y116804D01*
X65563Y116724D01*
X65427Y116650D01*
X65392Y116620D01*
X65353Y116597D01*
X65143Y116414D01*
X57586Y108857D01*
X57558Y108822D01*
X57524Y108792D01*
X57432Y108668D01*
X57333Y108548D01*
X57312Y108508D01*
X57285Y108472D01*
X57219Y108332D01*
X57147Y108195D01*
X57134Y108151D01*
X57115Y108110D01*
X57078Y107960D01*
X57035Y107811D01*
X57031Y107766D01*
X57020Y107722D01*
X57001Y107444D01*
X57001Y102210D01*
X55630Y98902D01*
X53098Y96370D01*
X49790Y94999D01*
X46210Y94999D01*
G37*
%LPD*%
%LPC*%
G36*
X592210Y343999D02*
X592210Y343999D01*
X588902Y345370D01*
X549370Y384902D01*
X547999Y388210D01*
X547999Y454790D01*
X549370Y458098D01*
X589902Y498630D01*
X593210Y500001D01*
X607444Y500001D01*
X607489Y500005D01*
X607534Y500003D01*
X607687Y500025D01*
X607841Y500041D01*
X607884Y500054D01*
X607929Y500061D01*
X608075Y500113D01*
X608223Y500159D01*
X608262Y500180D01*
X608305Y500196D01*
X608437Y500276D01*
X608573Y500350D01*
X608608Y500380D01*
X608647Y500403D01*
X608857Y500586D01*
X686902Y578630D01*
X690210Y580001D01*
X843790Y580001D01*
X847098Y578630D01*
X870143Y555586D01*
X870178Y555558D01*
X870208Y555524D01*
X870332Y555432D01*
X870452Y555333D01*
X870492Y555312D01*
X870528Y555285D01*
X870668Y555219D01*
X870805Y555147D01*
X870849Y555134D01*
X870890Y555115D01*
X871040Y555078D01*
X871189Y555035D01*
X871234Y555031D01*
X871278Y555020D01*
X871556Y555001D01*
X1003790Y555001D01*
X1007098Y553630D01*
X1023143Y537586D01*
X1023178Y537558D01*
X1023208Y537524D01*
X1023332Y537432D01*
X1023452Y537333D01*
X1023492Y537312D01*
X1023528Y537285D01*
X1023668Y537219D01*
X1023805Y537147D01*
X1023849Y537134D01*
X1023890Y537115D01*
X1024040Y537078D01*
X1024189Y537035D01*
X1024234Y537031D01*
X1024278Y537020D01*
X1024556Y537001D01*
X1031790Y537001D01*
X1035098Y535630D01*
X1036143Y534586D01*
X1036178Y534558D01*
X1036208Y534524D01*
X1036332Y534432D01*
X1036452Y534333D01*
X1036492Y534312D01*
X1036528Y534285D01*
X1036668Y534219D01*
X1036805Y534147D01*
X1036849Y534134D01*
X1036890Y534115D01*
X1037040Y534078D01*
X1037189Y534035D01*
X1037234Y534031D01*
X1037278Y534020D01*
X1037556Y534001D01*
X1042655Y534001D01*
X1042707Y534006D01*
X1042760Y534004D01*
X1042906Y534026D01*
X1043052Y534041D01*
X1043103Y534056D01*
X1043155Y534064D01*
X1043420Y534153D01*
X1044960Y534791D01*
X1057840Y534791D01*
X1060428Y533719D01*
X1062409Y531738D01*
X1063481Y529150D01*
X1063481Y526350D01*
X1062409Y523762D01*
X1061943Y523296D01*
X1061923Y523272D01*
X1061901Y523252D01*
X1061797Y523118D01*
X1061690Y522986D01*
X1061676Y522960D01*
X1061657Y522935D01*
X1061582Y522783D01*
X1061504Y522633D01*
X1061495Y522604D01*
X1061482Y522577D01*
X1061439Y522412D01*
X1061391Y522250D01*
X1061389Y522220D01*
X1061381Y522190D01*
X1061372Y522021D01*
X1061357Y521852D01*
X1061361Y521821D01*
X1061359Y521791D01*
X1061384Y521624D01*
X1061403Y521455D01*
X1061413Y521426D01*
X1061417Y521396D01*
X1061474Y521236D01*
X1061527Y521075D01*
X1061542Y521049D01*
X1061552Y521020D01*
X1061640Y520875D01*
X1061724Y520728D01*
X1061744Y520705D01*
X1061759Y520679D01*
X1061943Y520468D01*
X1062328Y520082D01*
X1063158Y518841D01*
X1063729Y517461D01*
X1063772Y517249D01*
X1051400Y517249D01*
X1039028Y517249D01*
X1039071Y517461D01*
X1039642Y518841D01*
X1039674Y518889D01*
X1039683Y518906D01*
X1039695Y518921D01*
X1039777Y519083D01*
X1039862Y519242D01*
X1039867Y519260D01*
X1039876Y519277D01*
X1039924Y519451D01*
X1039976Y519625D01*
X1039978Y519644D01*
X1039983Y519662D01*
X1039995Y519842D01*
X1040011Y520022D01*
X1040009Y520041D01*
X1040010Y520060D01*
X1039987Y520240D01*
X1039967Y520419D01*
X1039961Y520438D01*
X1039959Y520456D01*
X1039900Y520627D01*
X1039845Y520800D01*
X1039835Y520816D01*
X1039829Y520834D01*
X1039737Y520990D01*
X1039649Y521148D01*
X1039637Y521162D01*
X1039627Y521179D01*
X1039506Y521314D01*
X1039388Y521450D01*
X1039373Y521462D01*
X1039360Y521476D01*
X1039215Y521584D01*
X1039072Y521695D01*
X1039055Y521703D01*
X1039040Y521715D01*
X1038876Y521792D01*
X1038714Y521872D01*
X1038696Y521877D01*
X1038679Y521885D01*
X1038503Y521928D01*
X1038328Y521974D01*
X1038309Y521975D01*
X1038291Y521980D01*
X1038012Y521999D01*
X1037556Y521999D01*
X1037511Y521995D01*
X1037466Y521997D01*
X1037313Y521975D01*
X1037159Y521959D01*
X1037116Y521946D01*
X1037071Y521939D01*
X1036925Y521887D01*
X1036777Y521841D01*
X1036738Y521820D01*
X1036695Y521804D01*
X1036563Y521724D01*
X1036427Y521650D01*
X1036392Y521620D01*
X1036353Y521597D01*
X1036143Y521414D01*
X1035098Y520370D01*
X1031790Y518999D01*
X1020192Y518999D01*
X1020177Y518998D01*
X1020162Y518999D01*
X1019978Y518978D01*
X1019795Y518959D01*
X1019780Y518955D01*
X1019765Y518953D01*
X1019590Y518896D01*
X1019413Y518841D01*
X1019400Y518834D01*
X1019386Y518829D01*
X1019225Y518739D01*
X1019063Y518650D01*
X1019051Y518640D01*
X1019038Y518632D01*
X1018898Y518511D01*
X1018757Y518392D01*
X1018748Y518380D01*
X1018737Y518370D01*
X1018624Y518224D01*
X1018509Y518079D01*
X1018502Y518066D01*
X1018493Y518054D01*
X1018412Y517888D01*
X1018328Y517723D01*
X1018324Y517708D01*
X1018318Y517695D01*
X1018271Y517517D01*
X1018222Y517338D01*
X1018221Y517323D01*
X1018217Y517308D01*
X1018207Y517125D01*
X1018194Y516940D01*
X1018196Y516925D01*
X1018195Y516910D01*
X1018222Y516728D01*
X1018246Y516544D01*
X1018251Y516529D01*
X1018253Y516514D01*
X1018315Y516341D01*
X1018375Y516166D01*
X1018383Y516153D01*
X1018388Y516138D01*
X1018484Y515980D01*
X1018578Y515821D01*
X1018588Y515810D01*
X1018595Y515797D01*
X1018779Y515586D01*
X1019997Y514368D01*
X1020032Y514340D01*
X1020062Y514306D01*
X1020186Y514213D01*
X1020306Y514115D01*
X1020346Y514094D01*
X1020382Y514067D01*
X1020523Y514001D01*
X1020659Y513929D01*
X1020703Y513916D01*
X1020744Y513897D01*
X1020894Y513860D01*
X1021043Y513817D01*
X1021088Y513813D01*
X1021132Y513802D01*
X1021410Y513783D01*
X1022349Y513783D01*
X1024842Y512750D01*
X1026750Y510842D01*
X1027783Y508349D01*
X1027783Y505651D01*
X1026750Y503158D01*
X1024842Y501250D01*
X1022349Y500217D01*
X1020974Y500217D01*
X1020959Y500216D01*
X1020944Y500217D01*
X1020760Y500196D01*
X1020577Y500177D01*
X1020562Y500173D01*
X1020547Y500171D01*
X1020372Y500114D01*
X1020195Y500059D01*
X1020182Y500052D01*
X1020168Y500047D01*
X1020008Y499957D01*
X1019845Y499868D01*
X1019833Y499858D01*
X1019820Y499850D01*
X1019681Y499730D01*
X1019539Y499610D01*
X1019530Y499598D01*
X1019519Y499588D01*
X1019406Y499442D01*
X1019291Y499297D01*
X1019284Y499284D01*
X1019275Y499272D01*
X1019194Y499106D01*
X1019110Y498941D01*
X1019106Y498926D01*
X1019100Y498913D01*
X1019053Y498735D01*
X1019004Y498556D01*
X1019003Y498541D01*
X1018999Y498526D01*
X1018989Y498343D01*
X1018976Y498158D01*
X1018978Y498143D01*
X1018977Y498128D01*
X1019004Y497946D01*
X1019028Y497762D01*
X1019033Y497747D01*
X1019035Y497732D01*
X1019097Y497559D01*
X1019157Y497384D01*
X1019165Y497371D01*
X1019170Y497357D01*
X1019266Y497199D01*
X1019360Y497039D01*
X1019370Y497028D01*
X1019377Y497015D01*
X1019561Y496804D01*
X1021029Y495336D01*
X1021064Y495308D01*
X1021094Y495274D01*
X1021218Y495181D01*
X1021338Y495083D01*
X1021378Y495062D01*
X1021414Y495035D01*
X1021555Y494969D01*
X1021691Y494897D01*
X1021735Y494884D01*
X1021776Y494865D01*
X1021926Y494828D01*
X1022075Y494785D01*
X1022120Y494781D01*
X1022164Y494770D01*
X1022442Y494751D01*
X1039576Y494751D01*
X1039591Y494752D01*
X1039606Y494751D01*
X1039790Y494772D01*
X1039973Y494791D01*
X1039987Y494795D01*
X1040003Y494797D01*
X1040178Y494854D01*
X1040355Y494909D01*
X1040368Y494916D01*
X1040382Y494921D01*
X1040543Y495012D01*
X1040705Y495100D01*
X1040717Y495110D01*
X1040730Y495118D01*
X1040870Y495239D01*
X1041010Y495358D01*
X1041020Y495370D01*
X1041031Y495380D01*
X1041144Y495526D01*
X1041259Y495671D01*
X1041265Y495684D01*
X1041275Y495696D01*
X1041356Y495862D01*
X1041439Y496027D01*
X1041444Y496041D01*
X1041450Y496055D01*
X1041497Y496235D01*
X1041546Y496412D01*
X1041547Y496427D01*
X1041551Y496442D01*
X1041561Y496626D01*
X1041574Y496810D01*
X1041572Y496825D01*
X1041573Y496840D01*
X1041546Y497022D01*
X1041522Y497206D01*
X1041517Y497221D01*
X1041515Y497236D01*
X1041453Y497409D01*
X1041392Y497584D01*
X1041385Y497597D01*
X1041380Y497612D01*
X1041284Y497770D01*
X1041190Y497929D01*
X1041180Y497940D01*
X1041172Y497953D01*
X1040989Y498164D01*
X1040391Y498762D01*
X1039319Y501350D01*
X1039319Y504150D01*
X1040391Y506738D01*
X1040857Y507204D01*
X1040877Y507228D01*
X1040899Y507248D01*
X1041003Y507382D01*
X1041110Y507514D01*
X1041124Y507540D01*
X1041143Y507564D01*
X1041217Y507717D01*
X1041296Y507867D01*
X1041305Y507896D01*
X1041318Y507923D01*
X1041361Y508087D01*
X1041409Y508250D01*
X1041411Y508281D01*
X1041419Y508310D01*
X1041428Y508478D01*
X1041443Y508648D01*
X1041439Y508678D01*
X1041441Y508709D01*
X1041416Y508876D01*
X1041397Y509045D01*
X1041387Y509074D01*
X1041383Y509104D01*
X1041326Y509263D01*
X1041273Y509425D01*
X1041258Y509451D01*
X1041248Y509480D01*
X1041160Y509625D01*
X1041076Y509772D01*
X1041056Y509795D01*
X1041041Y509821D01*
X1040857Y510032D01*
X1040472Y510418D01*
X1039642Y511659D01*
X1039071Y513039D01*
X1039028Y513251D01*
X1051400Y513251D01*
X1063772Y513251D01*
X1063729Y513039D01*
X1063158Y511659D01*
X1062328Y510418D01*
X1061943Y510032D01*
X1061923Y510008D01*
X1061901Y509989D01*
X1061797Y509854D01*
X1061690Y509723D01*
X1061676Y509696D01*
X1061657Y509672D01*
X1061583Y509520D01*
X1061504Y509369D01*
X1061495Y509340D01*
X1061482Y509313D01*
X1061439Y509148D01*
X1061391Y508986D01*
X1061389Y508956D01*
X1061381Y508926D01*
X1061372Y508757D01*
X1061357Y508588D01*
X1061361Y508558D01*
X1061359Y508528D01*
X1061384Y508360D01*
X1061403Y508191D01*
X1061413Y508162D01*
X1061417Y508132D01*
X1061474Y507973D01*
X1061527Y507811D01*
X1061542Y507785D01*
X1061552Y507757D01*
X1061640Y507611D01*
X1061724Y507464D01*
X1061744Y507441D01*
X1061759Y507415D01*
X1061943Y507204D01*
X1062409Y506738D01*
X1063481Y504150D01*
X1063481Y501350D01*
X1062409Y498762D01*
X1061561Y497914D01*
X1061542Y497890D01*
X1061519Y497870D01*
X1061415Y497736D01*
X1061308Y497604D01*
X1061294Y497578D01*
X1061275Y497554D01*
X1061201Y497401D01*
X1061122Y497251D01*
X1061113Y497222D01*
X1061100Y497195D01*
X1061057Y497030D01*
X1061009Y496868D01*
X1061007Y496838D01*
X1060999Y496808D01*
X1060990Y496639D01*
X1060975Y496470D01*
X1060979Y496440D01*
X1060977Y496410D01*
X1061002Y496242D01*
X1061021Y496073D01*
X1061031Y496044D01*
X1061035Y496014D01*
X1061092Y495855D01*
X1061145Y495693D01*
X1061160Y495667D01*
X1061170Y495638D01*
X1061259Y495493D01*
X1061342Y495346D01*
X1061362Y495323D01*
X1061378Y495297D01*
X1061561Y495086D01*
X1062409Y494238D01*
X1063481Y491650D01*
X1063481Y488850D01*
X1062409Y486262D01*
X1061561Y485414D01*
X1061542Y485390D01*
X1061519Y485370D01*
X1061415Y485236D01*
X1061308Y485104D01*
X1061294Y485078D01*
X1061275Y485054D01*
X1061201Y484901D01*
X1061122Y484751D01*
X1061113Y484722D01*
X1061100Y484695D01*
X1061057Y484530D01*
X1061009Y484368D01*
X1061007Y484338D01*
X1060999Y484308D01*
X1060990Y484139D01*
X1060975Y483970D01*
X1060979Y483940D01*
X1060977Y483910D01*
X1061002Y483742D01*
X1061021Y483573D01*
X1061031Y483544D01*
X1061035Y483514D01*
X1061092Y483355D01*
X1061145Y483193D01*
X1061160Y483167D01*
X1061170Y483138D01*
X1061259Y482993D01*
X1061342Y482846D01*
X1061362Y482823D01*
X1061378Y482797D01*
X1061561Y482586D01*
X1062409Y481738D01*
X1063481Y479150D01*
X1063481Y476350D01*
X1062409Y473762D01*
X1061561Y472914D01*
X1061542Y472890D01*
X1061519Y472870D01*
X1061415Y472736D01*
X1061308Y472604D01*
X1061294Y472578D01*
X1061275Y472554D01*
X1061201Y472401D01*
X1061122Y472251D01*
X1061113Y472222D01*
X1061100Y472195D01*
X1061057Y472030D01*
X1061009Y471868D01*
X1061007Y471838D01*
X1060999Y471808D01*
X1060990Y471639D01*
X1060975Y471470D01*
X1060979Y471440D01*
X1060977Y471410D01*
X1061002Y471242D01*
X1061021Y471073D01*
X1061031Y471044D01*
X1061035Y471014D01*
X1061092Y470855D01*
X1061145Y470693D01*
X1061160Y470667D01*
X1061170Y470638D01*
X1061259Y470493D01*
X1061342Y470346D01*
X1061362Y470323D01*
X1061378Y470297D01*
X1061561Y470086D01*
X1062409Y469238D01*
X1063481Y466650D01*
X1063481Y463850D01*
X1062409Y461262D01*
X1061561Y460414D01*
X1061542Y460390D01*
X1061519Y460370D01*
X1061415Y460236D01*
X1061308Y460104D01*
X1061294Y460078D01*
X1061275Y460054D01*
X1061201Y459901D01*
X1061122Y459751D01*
X1061113Y459722D01*
X1061100Y459695D01*
X1061057Y459530D01*
X1061009Y459368D01*
X1061007Y459338D01*
X1060999Y459308D01*
X1060990Y459139D01*
X1060975Y458970D01*
X1060979Y458940D01*
X1060977Y458910D01*
X1061002Y458742D01*
X1061021Y458573D01*
X1061031Y458544D01*
X1061035Y458514D01*
X1061092Y458355D01*
X1061145Y458193D01*
X1061160Y458167D01*
X1061170Y458138D01*
X1061259Y457993D01*
X1061342Y457846D01*
X1061362Y457823D01*
X1061378Y457797D01*
X1061561Y457586D01*
X1062409Y456738D01*
X1063481Y454150D01*
X1063481Y451350D01*
X1062409Y448762D01*
X1061561Y447914D01*
X1061542Y447890D01*
X1061519Y447870D01*
X1061415Y447736D01*
X1061308Y447604D01*
X1061294Y447578D01*
X1061275Y447554D01*
X1061201Y447401D01*
X1061122Y447251D01*
X1061113Y447222D01*
X1061100Y447195D01*
X1061057Y447030D01*
X1061009Y446868D01*
X1061007Y446838D01*
X1060999Y446808D01*
X1060990Y446639D01*
X1060975Y446470D01*
X1060979Y446440D01*
X1060977Y446410D01*
X1061002Y446242D01*
X1061021Y446073D01*
X1061031Y446044D01*
X1061035Y446014D01*
X1061092Y445855D01*
X1061145Y445693D01*
X1061160Y445667D01*
X1061170Y445638D01*
X1061259Y445493D01*
X1061342Y445346D01*
X1061362Y445323D01*
X1061378Y445297D01*
X1061561Y445086D01*
X1062409Y444238D01*
X1063481Y441650D01*
X1063481Y438850D01*
X1062409Y436262D01*
X1060428Y434281D01*
X1057840Y433209D01*
X1044960Y433209D01*
X1042372Y434281D01*
X1040391Y436262D01*
X1039319Y438850D01*
X1039319Y441650D01*
X1040391Y444238D01*
X1041239Y445086D01*
X1041258Y445110D01*
X1041281Y445130D01*
X1041385Y445265D01*
X1041492Y445396D01*
X1041506Y445422D01*
X1041525Y445446D01*
X1041599Y445599D01*
X1041678Y445749D01*
X1041687Y445778D01*
X1041700Y445805D01*
X1041743Y445969D01*
X1041791Y446132D01*
X1041793Y446162D01*
X1041801Y446192D01*
X1041810Y446360D01*
X1041825Y446530D01*
X1041821Y446560D01*
X1041823Y446590D01*
X1041798Y446758D01*
X1041779Y446927D01*
X1041769Y446956D01*
X1041765Y446986D01*
X1041707Y447146D01*
X1041655Y447307D01*
X1041640Y447333D01*
X1041630Y447361D01*
X1041542Y447507D01*
X1041458Y447654D01*
X1041438Y447677D01*
X1041422Y447703D01*
X1041239Y447914D01*
X1040391Y448762D01*
X1039319Y451350D01*
X1039319Y454150D01*
X1040391Y456738D01*
X1041239Y457586D01*
X1041258Y457610D01*
X1041281Y457630D01*
X1041385Y457765D01*
X1041492Y457896D01*
X1041506Y457922D01*
X1041525Y457946D01*
X1041599Y458098D01*
X1041678Y458249D01*
X1041687Y458278D01*
X1041700Y458305D01*
X1041743Y458469D01*
X1041791Y458632D01*
X1041793Y458662D01*
X1041801Y458692D01*
X1041810Y458860D01*
X1041825Y459030D01*
X1041821Y459060D01*
X1041823Y459090D01*
X1041798Y459258D01*
X1041779Y459427D01*
X1041769Y459456D01*
X1041765Y459486D01*
X1041707Y459646D01*
X1041655Y459807D01*
X1041640Y459833D01*
X1041630Y459861D01*
X1041542Y460007D01*
X1041458Y460154D01*
X1041438Y460177D01*
X1041422Y460203D01*
X1041239Y460414D01*
X1040391Y461262D01*
X1039319Y463850D01*
X1039319Y466650D01*
X1040391Y469238D01*
X1041239Y470086D01*
X1041258Y470110D01*
X1041281Y470130D01*
X1041385Y470265D01*
X1041492Y470396D01*
X1041506Y470422D01*
X1041525Y470446D01*
X1041599Y470599D01*
X1041678Y470749D01*
X1041687Y470778D01*
X1041700Y470805D01*
X1041743Y470969D01*
X1041791Y471132D01*
X1041793Y471162D01*
X1041801Y471192D01*
X1041810Y471360D01*
X1041825Y471530D01*
X1041821Y471560D01*
X1041823Y471590D01*
X1041798Y471758D01*
X1041779Y471927D01*
X1041769Y471956D01*
X1041765Y471986D01*
X1041707Y472146D01*
X1041655Y472307D01*
X1041640Y472333D01*
X1041630Y472361D01*
X1041542Y472507D01*
X1041458Y472654D01*
X1041438Y472677D01*
X1041422Y472703D01*
X1041239Y472914D01*
X1040391Y473762D01*
X1039319Y476350D01*
X1039319Y479150D01*
X1040391Y481738D01*
X1040989Y482336D01*
X1040999Y482348D01*
X1041010Y482358D01*
X1041125Y482503D01*
X1041242Y482646D01*
X1041249Y482659D01*
X1041259Y482671D01*
X1041342Y482836D01*
X1041428Y482999D01*
X1041433Y483013D01*
X1041439Y483027D01*
X1041489Y483204D01*
X1041541Y483382D01*
X1041542Y483397D01*
X1041546Y483412D01*
X1041559Y483595D01*
X1041575Y483780D01*
X1041573Y483795D01*
X1041574Y483810D01*
X1041550Y483994D01*
X1041529Y484177D01*
X1041524Y484191D01*
X1041522Y484206D01*
X1041462Y484382D01*
X1041405Y484557D01*
X1041397Y484570D01*
X1041392Y484584D01*
X1041299Y484744D01*
X1041208Y484904D01*
X1041198Y484916D01*
X1041190Y484929D01*
X1041067Y485067D01*
X1040946Y485206D01*
X1040934Y485215D01*
X1040924Y485226D01*
X1040775Y485337D01*
X1040629Y485449D01*
X1040616Y485456D01*
X1040603Y485465D01*
X1040437Y485543D01*
X1040271Y485625D01*
X1040256Y485628D01*
X1040242Y485635D01*
X1040063Y485679D01*
X1039884Y485725D01*
X1039869Y485726D01*
X1039854Y485730D01*
X1039576Y485749D01*
X1018855Y485749D01*
X1017201Y486434D01*
X990721Y512914D01*
X990686Y512942D01*
X990656Y512976D01*
X990532Y513068D01*
X990412Y513167D01*
X990372Y513188D01*
X990336Y513215D01*
X990196Y513281D01*
X990059Y513353D01*
X990015Y513366D01*
X989974Y513385D01*
X989824Y513422D01*
X989675Y513465D01*
X989630Y513469D01*
X989586Y513480D01*
X989308Y513499D01*
X855105Y513499D01*
X853451Y514184D01*
X840721Y526914D01*
X840686Y526942D01*
X840656Y526976D01*
X840532Y527068D01*
X840412Y527167D01*
X840372Y527188D01*
X840336Y527215D01*
X840196Y527281D01*
X840059Y527353D01*
X840015Y527366D01*
X839974Y527385D01*
X839824Y527422D01*
X839675Y527465D01*
X839630Y527469D01*
X839586Y527480D01*
X839308Y527499D01*
X719692Y527499D01*
X719647Y527495D01*
X719602Y527497D01*
X719449Y527475D01*
X719295Y527459D01*
X719252Y527446D01*
X719207Y527439D01*
X719061Y527387D01*
X718913Y527341D01*
X718874Y527320D01*
X718831Y527304D01*
X718699Y527224D01*
X718563Y527150D01*
X718528Y527120D01*
X718489Y527097D01*
X718279Y526914D01*
X678086Y486721D01*
X678058Y486686D01*
X678024Y486656D01*
X677932Y486532D01*
X677833Y486412D01*
X677812Y486372D01*
X677785Y486336D01*
X677719Y486196D01*
X677647Y486059D01*
X677634Y486015D01*
X677615Y485974D01*
X677578Y485824D01*
X677535Y485675D01*
X677531Y485630D01*
X677520Y485586D01*
X677501Y485308D01*
X677501Y464500D01*
X677505Y464455D01*
X677503Y464410D01*
X677525Y464257D01*
X677541Y464103D01*
X677554Y464060D01*
X677561Y464015D01*
X677613Y463869D01*
X677659Y463721D01*
X677681Y463681D01*
X677696Y463639D01*
X677776Y463507D01*
X677850Y463371D01*
X677880Y463336D01*
X677903Y463297D01*
X678086Y463087D01*
X680295Y460878D01*
X681605Y457716D01*
X681605Y441084D01*
X680295Y437922D01*
X677874Y435501D01*
X674712Y434191D01*
X671288Y434191D01*
X668126Y435501D01*
X665705Y437922D01*
X664395Y441084D01*
X664395Y457716D01*
X665705Y460878D01*
X667914Y463087D01*
X667942Y463122D01*
X667976Y463152D01*
X668068Y463276D01*
X668167Y463396D01*
X668188Y463436D01*
X668215Y463472D01*
X668281Y463612D01*
X668353Y463749D01*
X668366Y463793D01*
X668385Y463834D01*
X668422Y463984D01*
X668465Y464132D01*
X668469Y464178D01*
X668480Y464222D01*
X668499Y464500D01*
X668499Y488895D01*
X669184Y490549D01*
X714451Y535816D01*
X716105Y536501D01*
X842308Y536501D01*
X842323Y536502D01*
X842338Y536501D01*
X842522Y536522D01*
X842705Y536541D01*
X842720Y536545D01*
X842735Y536547D01*
X842910Y536604D01*
X843087Y536659D01*
X843100Y536666D01*
X843114Y536671D01*
X843275Y536762D01*
X843437Y536850D01*
X843449Y536860D01*
X843462Y536868D01*
X843602Y536989D01*
X843743Y537108D01*
X843752Y537120D01*
X843763Y537130D01*
X843876Y537276D01*
X843991Y537421D01*
X843998Y537434D01*
X844007Y537446D01*
X844088Y537612D01*
X844172Y537777D01*
X844176Y537791D01*
X844182Y537805D01*
X844229Y537985D01*
X844278Y538162D01*
X844279Y538177D01*
X844283Y538192D01*
X844293Y538376D01*
X844306Y538560D01*
X844304Y538575D01*
X844305Y538590D01*
X844278Y538772D01*
X844254Y538956D01*
X844249Y538971D01*
X844247Y538986D01*
X844185Y539159D01*
X844125Y539334D01*
X844117Y539347D01*
X844112Y539362D01*
X844016Y539520D01*
X843922Y539679D01*
X843912Y539690D01*
X843905Y539703D01*
X843721Y539914D01*
X842721Y540914D01*
X842686Y540942D01*
X842656Y540976D01*
X842532Y541069D01*
X842412Y541167D01*
X842372Y541188D01*
X842336Y541215D01*
X842195Y541281D01*
X842059Y541353D01*
X842015Y541366D01*
X841974Y541385D01*
X841824Y541422D01*
X841675Y541465D01*
X841630Y541469D01*
X841586Y541480D01*
X841308Y541499D01*
X707692Y541499D01*
X707647Y541495D01*
X707602Y541497D01*
X707449Y541475D01*
X707295Y541459D01*
X707252Y541446D01*
X707207Y541439D01*
X707061Y541387D01*
X706913Y541341D01*
X706874Y541320D01*
X706831Y541304D01*
X706699Y541224D01*
X706563Y541150D01*
X706528Y541120D01*
X706489Y541097D01*
X706279Y540914D01*
X652686Y487321D01*
X652658Y487286D01*
X652624Y487256D01*
X652532Y487132D01*
X652433Y487012D01*
X652412Y486972D01*
X652385Y486936D01*
X652319Y486796D01*
X652247Y486659D01*
X652234Y486615D01*
X652215Y486574D01*
X652178Y486424D01*
X652135Y486275D01*
X652131Y486230D01*
X652120Y486186D01*
X652101Y485908D01*
X652101Y464500D01*
X652105Y464455D01*
X652103Y464410D01*
X652125Y464257D01*
X652141Y464103D01*
X652154Y464060D01*
X652161Y464015D01*
X652213Y463869D01*
X652259Y463721D01*
X652281Y463681D01*
X652296Y463639D01*
X652376Y463507D01*
X652450Y463371D01*
X652480Y463336D01*
X652503Y463297D01*
X652686Y463087D01*
X654895Y460878D01*
X656205Y457716D01*
X656205Y441084D01*
X654895Y437922D01*
X652474Y435501D01*
X649312Y434191D01*
X645888Y434191D01*
X642726Y435501D01*
X640305Y437922D01*
X638995Y441084D01*
X638995Y457716D01*
X640305Y460878D01*
X642514Y463087D01*
X642542Y463122D01*
X642576Y463152D01*
X642668Y463276D01*
X642767Y463396D01*
X642788Y463436D01*
X642815Y463472D01*
X642881Y463612D01*
X642953Y463749D01*
X642966Y463793D01*
X642985Y463834D01*
X643022Y463984D01*
X643065Y464132D01*
X643069Y464178D01*
X643080Y464222D01*
X643099Y464500D01*
X643099Y489495D01*
X643784Y491149D01*
X702451Y549816D01*
X704105Y550501D01*
X844944Y550501D01*
X844959Y550502D01*
X844974Y550501D01*
X845158Y550522D01*
X845341Y550541D01*
X845356Y550545D01*
X845371Y550547D01*
X845546Y550604D01*
X845723Y550659D01*
X845736Y550666D01*
X845750Y550671D01*
X845910Y550761D01*
X846073Y550850D01*
X846085Y550860D01*
X846098Y550868D01*
X846237Y550988D01*
X846379Y551108D01*
X846388Y551120D01*
X846399Y551130D01*
X846512Y551276D01*
X846627Y551421D01*
X846634Y551434D01*
X846643Y551446D01*
X846724Y551612D01*
X846808Y551777D01*
X846812Y551792D01*
X846818Y551805D01*
X846865Y551984D01*
X846914Y552162D01*
X846915Y552177D01*
X846919Y552192D01*
X846929Y552375D01*
X846942Y552560D01*
X846940Y552575D01*
X846941Y552590D01*
X846914Y552773D01*
X846890Y552956D01*
X846885Y552971D01*
X846883Y552986D01*
X846820Y553160D01*
X846761Y553334D01*
X846753Y553347D01*
X846748Y553361D01*
X846652Y553519D01*
X846559Y553679D01*
X846548Y553690D01*
X846541Y553703D01*
X846357Y553914D01*
X838857Y561414D01*
X838822Y561442D01*
X838792Y561476D01*
X838668Y561568D01*
X838548Y561667D01*
X838508Y561688D01*
X838472Y561715D01*
X838332Y561781D01*
X838195Y561853D01*
X838151Y561866D01*
X838110Y561885D01*
X837960Y561922D01*
X837811Y561965D01*
X837766Y561969D01*
X837722Y561980D01*
X837444Y561999D01*
X696556Y561999D01*
X696511Y561995D01*
X696466Y561997D01*
X696313Y561975D01*
X696159Y561959D01*
X696116Y561946D01*
X696071Y561939D01*
X695925Y561887D01*
X695777Y561841D01*
X695738Y561820D01*
X695695Y561804D01*
X695563Y561724D01*
X695427Y561650D01*
X695392Y561620D01*
X695353Y561597D01*
X695143Y561414D01*
X617098Y483370D01*
X613790Y481999D01*
X599556Y481999D01*
X599511Y481995D01*
X599466Y481997D01*
X599313Y481975D01*
X599159Y481959D01*
X599116Y481946D01*
X599071Y481939D01*
X598925Y481887D01*
X598777Y481841D01*
X598738Y481820D01*
X598695Y481804D01*
X598563Y481724D01*
X598427Y481650D01*
X598392Y481620D01*
X598353Y481597D01*
X598143Y481414D01*
X566586Y449857D01*
X566558Y449822D01*
X566524Y449792D01*
X566432Y449668D01*
X566333Y449548D01*
X566312Y449508D01*
X566285Y449472D01*
X566219Y449332D01*
X566147Y449195D01*
X566134Y449151D01*
X566115Y449110D01*
X566078Y448960D01*
X566035Y448811D01*
X566031Y448766D01*
X566020Y448722D01*
X566001Y448444D01*
X566001Y394556D01*
X566005Y394511D01*
X566003Y394466D01*
X566025Y394313D01*
X566041Y394159D01*
X566054Y394116D01*
X566061Y394071D01*
X566113Y393925D01*
X566159Y393777D01*
X566180Y393738D01*
X566196Y393695D01*
X566276Y393563D01*
X566350Y393427D01*
X566380Y393392D01*
X566403Y393353D01*
X566586Y393143D01*
X597143Y362586D01*
X597178Y362558D01*
X597208Y362524D01*
X597332Y362432D01*
X597452Y362333D01*
X597492Y362312D01*
X597528Y362285D01*
X597668Y362219D01*
X597805Y362147D01*
X597849Y362134D01*
X597890Y362115D01*
X598040Y362078D01*
X598189Y362035D01*
X598234Y362031D01*
X598278Y362020D01*
X598556Y362001D01*
X600444Y362001D01*
X600489Y362005D01*
X600534Y362003D01*
X600687Y362025D01*
X600841Y362041D01*
X600884Y362054D01*
X600929Y362061D01*
X601075Y362113D01*
X601223Y362159D01*
X601262Y362180D01*
X601305Y362196D01*
X601437Y362276D01*
X601573Y362350D01*
X601608Y362380D01*
X601647Y362403D01*
X601857Y362586D01*
X635902Y396630D01*
X639210Y398001D01*
X667790Y398001D01*
X671098Y396630D01*
X688630Y379098D01*
X690001Y375790D01*
X690001Y372210D01*
X688630Y368902D01*
X686098Y366370D01*
X682790Y364999D01*
X679210Y364999D01*
X675902Y366370D01*
X662857Y379414D01*
X662822Y379442D01*
X662792Y379476D01*
X662668Y379568D01*
X662548Y379667D01*
X662508Y379688D01*
X662472Y379715D01*
X662332Y379781D01*
X662195Y379853D01*
X662151Y379866D01*
X662110Y379885D01*
X661960Y379922D01*
X661811Y379965D01*
X661766Y379969D01*
X661722Y379980D01*
X661444Y379999D01*
X645556Y379999D01*
X645511Y379995D01*
X645466Y379997D01*
X645313Y379975D01*
X645159Y379959D01*
X645116Y379946D01*
X645071Y379939D01*
X644925Y379887D01*
X644777Y379841D01*
X644738Y379820D01*
X644695Y379804D01*
X644563Y379724D01*
X644427Y379650D01*
X644392Y379620D01*
X644353Y379597D01*
X644143Y379414D01*
X610098Y345370D01*
X606790Y343999D01*
X592210Y343999D01*
G37*
%LPD*%
%LPC*%
G36*
X179651Y208217D02*
X179651Y208217D01*
X177158Y209250D01*
X175250Y211158D01*
X174217Y213651D01*
X174217Y216349D01*
X175176Y218664D01*
X175185Y218693D01*
X175198Y218720D01*
X175242Y218884D01*
X175291Y219047D01*
X175294Y219077D01*
X175302Y219106D01*
X175313Y219275D01*
X175328Y219444D01*
X175325Y219474D01*
X175327Y219505D01*
X175304Y219673D01*
X175285Y219841D01*
X175276Y219870D01*
X175272Y219900D01*
X175216Y220061D01*
X175164Y220222D01*
X175150Y220249D01*
X175140Y220277D01*
X175053Y220423D01*
X174970Y220571D01*
X174950Y220594D01*
X174935Y220620D01*
X174821Y220746D01*
X174710Y220875D01*
X174687Y220893D01*
X174666Y220916D01*
X174529Y221016D01*
X174396Y221120D01*
X174368Y221134D01*
X174344Y221152D01*
X174169Y221239D01*
X172250Y223158D01*
X171217Y225651D01*
X171217Y228349D01*
X172250Y230842D01*
X174158Y232750D01*
X176651Y233783D01*
X177590Y233783D01*
X177635Y233787D01*
X177680Y233785D01*
X177833Y233807D01*
X177987Y233823D01*
X178030Y233836D01*
X178075Y233843D01*
X178221Y233895D01*
X178369Y233941D01*
X178408Y233962D01*
X178451Y233978D01*
X178583Y234058D01*
X178719Y234132D01*
X178754Y234162D01*
X178793Y234185D01*
X179003Y234368D01*
X234451Y289816D01*
X236105Y290501D01*
X427080Y290501D01*
X427126Y290505D01*
X427171Y290503D01*
X427324Y290525D01*
X427478Y290541D01*
X427521Y290554D01*
X427566Y290561D01*
X427712Y290613D01*
X427859Y290659D01*
X427899Y290680D01*
X427942Y290696D01*
X428074Y290776D01*
X428210Y290850D01*
X428245Y290880D01*
X428283Y290903D01*
X428494Y291086D01*
X429158Y291750D01*
X431651Y292783D01*
X434349Y292783D01*
X436842Y291750D01*
X438750Y289842D01*
X439783Y287349D01*
X439783Y284651D01*
X438750Y282158D01*
X438506Y281914D01*
X438487Y281890D01*
X438464Y281870D01*
X438361Y281736D01*
X438253Y281605D01*
X438239Y281578D01*
X438221Y281554D01*
X438146Y281401D01*
X438067Y281251D01*
X438058Y281222D01*
X438045Y281195D01*
X438002Y281031D01*
X437954Y280868D01*
X437952Y280838D01*
X437944Y280808D01*
X437935Y280640D01*
X437921Y280470D01*
X437924Y280440D01*
X437922Y280410D01*
X437947Y280242D01*
X437966Y280073D01*
X437976Y280044D01*
X437980Y280014D01*
X438038Y279855D01*
X438090Y279693D01*
X438105Y279667D01*
X438115Y279639D01*
X438204Y279493D01*
X438287Y279346D01*
X438307Y279323D01*
X438323Y279297D01*
X438506Y279086D01*
X438750Y278842D01*
X439783Y276349D01*
X439783Y273651D01*
X438750Y271158D01*
X436842Y269250D01*
X434349Y268217D01*
X431651Y268217D01*
X429158Y269250D01*
X428494Y269914D01*
X428459Y269942D01*
X428429Y269976D01*
X428305Y270068D01*
X428185Y270167D01*
X428145Y270188D01*
X428108Y270215D01*
X427968Y270281D01*
X427831Y270353D01*
X427788Y270366D01*
X427747Y270385D01*
X427597Y270422D01*
X427448Y270465D01*
X427403Y270469D01*
X427359Y270480D01*
X427080Y270499D01*
X243692Y270499D01*
X243647Y270495D01*
X243602Y270497D01*
X243449Y270475D01*
X243295Y270459D01*
X243252Y270446D01*
X243207Y270439D01*
X243061Y270387D01*
X242913Y270341D01*
X242874Y270320D01*
X242831Y270304D01*
X242699Y270224D01*
X242563Y270150D01*
X242528Y270120D01*
X242489Y270097D01*
X242279Y269914D01*
X188368Y216003D01*
X188340Y215968D01*
X188306Y215938D01*
X188214Y215814D01*
X188115Y215694D01*
X188094Y215654D01*
X188067Y215618D01*
X188001Y215478D01*
X187929Y215341D01*
X187916Y215297D01*
X187897Y215256D01*
X187860Y215106D01*
X187817Y214957D01*
X187813Y214912D01*
X187802Y214868D01*
X187783Y214590D01*
X187783Y213651D01*
X186750Y211158D01*
X184842Y209250D01*
X182349Y208217D01*
X179651Y208217D01*
G37*
%LPD*%
%LPC*%
G36*
X973210Y60999D02*
X973210Y60999D01*
X969902Y62370D01*
X967370Y64902D01*
X965999Y68210D01*
X965999Y71790D01*
X967370Y75098D01*
X969902Y77630D01*
X973210Y79001D01*
X989444Y79001D01*
X989489Y79005D01*
X989534Y79003D01*
X989687Y79025D01*
X989841Y79041D01*
X989884Y79054D01*
X989929Y79061D01*
X990075Y79113D01*
X990223Y79159D01*
X990262Y79180D01*
X990305Y79196D01*
X990437Y79276D01*
X990573Y79350D01*
X990608Y79380D01*
X990647Y79403D01*
X990857Y79586D01*
X1039414Y128143D01*
X1039442Y128178D01*
X1039476Y128208D01*
X1039568Y128332D01*
X1039667Y128452D01*
X1039688Y128492D01*
X1039715Y128528D01*
X1039781Y128668D01*
X1039853Y128805D01*
X1039866Y128849D01*
X1039885Y128890D01*
X1039922Y129040D01*
X1039965Y129189D01*
X1039969Y129234D01*
X1039980Y129278D01*
X1039999Y129556D01*
X1039999Y217790D01*
X1041370Y221098D01*
X1043902Y223630D01*
X1047210Y225001D01*
X1050790Y225001D01*
X1054098Y223630D01*
X1056630Y221098D01*
X1058001Y217790D01*
X1058001Y123210D01*
X1056630Y119902D01*
X999098Y62370D01*
X995790Y60999D01*
X973210Y60999D01*
G37*
%LPD*%
%LPC*%
G36*
X838750Y341453D02*
X838750Y341453D01*
X838688Y341634D01*
X838684Y341641D01*
X838681Y341648D01*
X838582Y341813D01*
X838485Y341979D01*
X838480Y341984D01*
X838477Y341991D01*
X838347Y342133D01*
X838219Y342276D01*
X838213Y342281D01*
X838208Y342286D01*
X838052Y342401D01*
X837899Y342515D01*
X837892Y342518D01*
X837886Y342522D01*
X837636Y342647D01*
X834202Y344070D01*
X831370Y346902D01*
X829999Y350210D01*
X829999Y353790D01*
X831370Y357098D01*
X833902Y359630D01*
X837210Y361001D01*
X840790Y361001D01*
X841147Y360853D01*
X841198Y360838D01*
X841246Y360815D01*
X841389Y360780D01*
X841530Y360738D01*
X841582Y360733D01*
X841634Y360720D01*
X841912Y360701D01*
X883090Y360701D01*
X886398Y359330D01*
X887443Y358286D01*
X887478Y358258D01*
X887508Y358224D01*
X887632Y358132D01*
X887752Y358033D01*
X887792Y358012D01*
X887828Y357985D01*
X887968Y357919D01*
X888105Y357847D01*
X888149Y357834D01*
X888190Y357815D01*
X888340Y357778D01*
X888489Y357735D01*
X888534Y357731D01*
X888578Y357720D01*
X888856Y357701D01*
X889223Y357701D01*
X889268Y357705D01*
X889314Y357703D01*
X889467Y357725D01*
X889621Y357741D01*
X889664Y357754D01*
X889709Y357761D01*
X889854Y357813D01*
X890002Y357859D01*
X890042Y357880D01*
X890085Y357896D01*
X890217Y357976D01*
X890353Y358050D01*
X890387Y358080D01*
X890426Y358103D01*
X890538Y358201D01*
X905549Y358201D01*
X907301Y356449D01*
X907301Y346951D01*
X905549Y345199D01*
X890540Y345199D01*
X890447Y345268D01*
X890328Y345367D01*
X890287Y345388D01*
X890251Y345415D01*
X890111Y345481D01*
X889974Y345553D01*
X889931Y345566D01*
X889890Y345585D01*
X889739Y345622D01*
X889591Y345665D01*
X889546Y345669D01*
X889502Y345680D01*
X889223Y345699D01*
X888856Y345699D01*
X888811Y345695D01*
X888766Y345697D01*
X888613Y345675D01*
X888459Y345659D01*
X888416Y345646D01*
X888371Y345639D01*
X888225Y345587D01*
X888077Y345541D01*
X888038Y345520D01*
X887995Y345504D01*
X887863Y345424D01*
X887727Y345350D01*
X887692Y345320D01*
X887653Y345297D01*
X887443Y345114D01*
X886398Y344070D01*
X883090Y342699D01*
X840629Y342699D01*
X840622Y342699D01*
X840614Y342699D01*
X840424Y342679D01*
X840232Y342659D01*
X840225Y342657D01*
X840217Y342656D01*
X840035Y342599D01*
X839850Y342541D01*
X839844Y342538D01*
X839836Y342535D01*
X839670Y342443D01*
X839500Y342350D01*
X839494Y342345D01*
X839487Y342341D01*
X839342Y342216D01*
X839194Y342092D01*
X839190Y342086D01*
X839184Y342081D01*
X839066Y341930D01*
X838946Y341779D01*
X838943Y341772D01*
X838938Y341766D01*
X838853Y341595D01*
X838765Y341423D01*
X838763Y341416D01*
X838763Y341415D01*
X838750Y341453D01*
G37*
%LPD*%
%LPC*%
G36*
X658651Y406217D02*
X658651Y406217D01*
X656158Y407250D01*
X654250Y409158D01*
X653217Y411651D01*
X653217Y414349D01*
X654250Y416842D01*
X656158Y418750D01*
X658651Y419783D01*
X659590Y419783D01*
X659635Y419787D01*
X659680Y419785D01*
X659833Y419807D01*
X659987Y419823D01*
X660030Y419836D01*
X660075Y419843D01*
X660221Y419895D01*
X660369Y419941D01*
X660408Y419962D01*
X660451Y419978D01*
X660583Y420058D01*
X660719Y420132D01*
X660754Y420162D01*
X660793Y420185D01*
X661003Y420368D01*
X661451Y420816D01*
X663105Y421501D01*
X706308Y421501D01*
X706353Y421505D01*
X706398Y421503D01*
X706551Y421525D01*
X706705Y421541D01*
X706748Y421554D01*
X706793Y421561D01*
X706939Y421613D01*
X707087Y421659D01*
X707126Y421680D01*
X707169Y421696D01*
X707301Y421776D01*
X707437Y421850D01*
X707472Y421880D01*
X707511Y421903D01*
X707721Y422086D01*
X718617Y432982D01*
X718637Y433006D01*
X718659Y433026D01*
X718763Y433160D01*
X718870Y433292D01*
X718884Y433318D01*
X718903Y433342D01*
X718977Y433495D01*
X719056Y433645D01*
X719065Y433674D01*
X719078Y433701D01*
X719121Y433865D01*
X719169Y434028D01*
X719171Y434058D01*
X719179Y434088D01*
X719188Y434256D01*
X719203Y434426D01*
X719199Y434456D01*
X719201Y434487D01*
X719176Y434654D01*
X719157Y434823D01*
X719147Y434852D01*
X719143Y434882D01*
X719086Y435042D01*
X719033Y435203D01*
X719018Y435229D01*
X719008Y435258D01*
X718920Y435402D01*
X718836Y435550D01*
X718816Y435573D01*
X718801Y435599D01*
X718617Y435810D01*
X716505Y437922D01*
X715195Y441084D01*
X715195Y457716D01*
X716505Y460878D01*
X718926Y463299D01*
X722088Y464609D01*
X725512Y464609D01*
X728674Y463299D01*
X731095Y460878D01*
X732405Y457716D01*
X732405Y441084D01*
X731095Y437922D01*
X728886Y435713D01*
X728858Y435678D01*
X728824Y435648D01*
X728732Y435524D01*
X728633Y435404D01*
X728612Y435364D01*
X728585Y435328D01*
X728519Y435188D01*
X728447Y435051D01*
X728434Y435007D01*
X728415Y434966D01*
X728378Y434816D01*
X728335Y434668D01*
X728331Y434622D01*
X728320Y434578D01*
X728301Y434300D01*
X728301Y430905D01*
X727616Y429251D01*
X711549Y413184D01*
X709895Y412499D01*
X668470Y412499D01*
X668432Y412495D01*
X668395Y412498D01*
X668234Y412476D01*
X668073Y412459D01*
X668036Y412448D01*
X667999Y412443D01*
X667846Y412389D01*
X667691Y412341D01*
X667658Y412323D01*
X667622Y412311D01*
X667483Y412228D01*
X667341Y412150D01*
X667312Y412125D01*
X667279Y412106D01*
X667159Y411997D01*
X667035Y411892D01*
X667012Y411863D01*
X666984Y411837D01*
X666888Y411706D01*
X666787Y411579D01*
X666770Y411545D01*
X666748Y411515D01*
X666623Y411265D01*
X665750Y409158D01*
X663842Y407250D01*
X661349Y406217D01*
X658651Y406217D01*
G37*
%LPD*%
%LPC*%
G36*
X862631Y588569D02*
X862631Y588569D01*
X862631Y599968D01*
X862629Y599994D01*
X862631Y600032D01*
X862631Y611431D01*
X869824Y611431D01*
X870471Y611258D01*
X871050Y610923D01*
X871523Y610450D01*
X871858Y609871D01*
X872031Y609224D01*
X872031Y606259D01*
X872032Y606244D01*
X872031Y606229D01*
X872052Y606045D01*
X872071Y605862D01*
X872075Y605847D01*
X872077Y605832D01*
X872134Y605657D01*
X872189Y605480D01*
X872196Y605467D01*
X872201Y605452D01*
X872291Y605293D01*
X872380Y605130D01*
X872390Y605118D01*
X872398Y605105D01*
X872518Y604966D01*
X872638Y604824D01*
X872650Y604815D01*
X872660Y604803D01*
X872806Y604691D01*
X872951Y604576D01*
X872964Y604569D01*
X872976Y604560D01*
X873142Y604479D01*
X873307Y604395D01*
X873322Y604391D01*
X873335Y604385D01*
X873514Y604338D01*
X873692Y604289D01*
X873707Y604288D01*
X873722Y604284D01*
X873905Y604274D01*
X874090Y604261D01*
X874105Y604263D01*
X874120Y604262D01*
X874303Y604289D01*
X874486Y604313D01*
X874501Y604318D01*
X874516Y604320D01*
X874690Y604383D01*
X874864Y604442D01*
X874877Y604450D01*
X874891Y604455D01*
X875049Y604551D01*
X875209Y604644D01*
X875220Y604654D01*
X875233Y604662D01*
X875444Y604845D01*
X881489Y610891D01*
X890511Y610891D01*
X897286Y604115D01*
X897310Y604096D01*
X897330Y604073D01*
X897464Y603970D01*
X897596Y603863D01*
X897622Y603849D01*
X897646Y603830D01*
X897799Y603755D01*
X897949Y603676D01*
X897978Y603668D01*
X898005Y603655D01*
X898169Y603612D01*
X898332Y603564D01*
X898362Y603561D01*
X898392Y603554D01*
X898560Y603545D01*
X898730Y603530D01*
X898760Y603534D01*
X898790Y603532D01*
X898958Y603557D01*
X899127Y603576D01*
X899156Y603585D01*
X899186Y603590D01*
X899346Y603647D01*
X899507Y603700D01*
X899533Y603715D01*
X899561Y603725D01*
X899707Y603813D01*
X899854Y603897D01*
X899877Y603917D01*
X899903Y603932D01*
X900114Y604115D01*
X906889Y610891D01*
X915911Y610891D01*
X922291Y604511D01*
X922291Y595489D01*
X915911Y589109D01*
X906889Y589109D01*
X900114Y595885D01*
X900090Y595904D01*
X900070Y595927D01*
X899936Y596030D01*
X899804Y596137D01*
X899778Y596151D01*
X899754Y596170D01*
X899601Y596244D01*
X899451Y596324D01*
X899422Y596332D01*
X899395Y596345D01*
X899231Y596388D01*
X899068Y596436D01*
X899038Y596439D01*
X899008Y596446D01*
X898840Y596455D01*
X898670Y596470D01*
X898640Y596466D01*
X898610Y596468D01*
X898442Y596443D01*
X898273Y596424D01*
X898244Y596415D01*
X898214Y596410D01*
X898054Y596353D01*
X897893Y596300D01*
X897867Y596285D01*
X897838Y596275D01*
X897693Y596187D01*
X897546Y596103D01*
X897523Y596083D01*
X897497Y596068D01*
X897286Y595885D01*
X890511Y589109D01*
X881489Y589109D01*
X875444Y595155D01*
X875432Y595164D01*
X875422Y595176D01*
X875278Y595290D01*
X875134Y595407D01*
X875121Y595414D01*
X875109Y595424D01*
X874944Y595508D01*
X874781Y595594D01*
X874767Y595598D01*
X874753Y595605D01*
X874576Y595654D01*
X874398Y595706D01*
X874383Y595707D01*
X874368Y595711D01*
X874185Y595724D01*
X874000Y595740D01*
X873985Y595738D01*
X873970Y595739D01*
X873786Y595715D01*
X873603Y595694D01*
X873589Y595689D01*
X873574Y595687D01*
X873399Y595627D01*
X873223Y595570D01*
X873210Y595563D01*
X873196Y595558D01*
X873036Y595464D01*
X872876Y595373D01*
X872864Y595363D01*
X872851Y595356D01*
X872714Y595233D01*
X872574Y595111D01*
X872565Y595099D01*
X872554Y595089D01*
X872444Y594942D01*
X872331Y594795D01*
X872324Y594781D01*
X872315Y594769D01*
X872237Y594602D01*
X872155Y594436D01*
X872152Y594421D01*
X872145Y594407D01*
X872101Y594227D01*
X872055Y594049D01*
X872054Y594034D01*
X872050Y594019D01*
X872031Y593741D01*
X872031Y590776D01*
X871858Y590129D01*
X871523Y589550D01*
X871050Y589077D01*
X870471Y588742D01*
X869824Y588569D01*
X862631Y588569D01*
G37*
%LPD*%
%LPC*%
G36*
X620488Y154791D02*
X620488Y154791D01*
X617326Y156101D01*
X614905Y158522D01*
X613595Y161684D01*
X613595Y178316D01*
X614905Y181478D01*
X617326Y183899D01*
X620488Y185209D01*
X623912Y185209D01*
X627074Y183899D01*
X629495Y181478D01*
X630805Y178316D01*
X630805Y161684D01*
X629495Y158522D01*
X627074Y156101D01*
X623912Y154791D01*
X620488Y154791D01*
G37*
%LPD*%
%LPC*%
G36*
X823688Y434191D02*
X823688Y434191D01*
X820526Y435501D01*
X818105Y437922D01*
X816795Y441084D01*
X816795Y457716D01*
X818105Y460878D01*
X820526Y463299D01*
X823688Y464609D01*
X827112Y464609D01*
X830274Y463299D01*
X832695Y460878D01*
X834005Y457716D01*
X834005Y441084D01*
X832695Y437922D01*
X830274Y435501D01*
X827112Y434191D01*
X823688Y434191D01*
G37*
%LPD*%
%LPC*%
G36*
X645888Y154791D02*
X645888Y154791D01*
X642726Y156101D01*
X640305Y158522D01*
X638995Y161684D01*
X638995Y178316D01*
X640305Y181478D01*
X642726Y183899D01*
X645888Y185209D01*
X649312Y185209D01*
X652474Y183899D01*
X654895Y181478D01*
X656205Y178316D01*
X656205Y161684D01*
X654895Y158522D01*
X652474Y156101D01*
X649312Y154791D01*
X645888Y154791D01*
G37*
%LPD*%
%LPC*%
G36*
X925288Y154791D02*
X925288Y154791D01*
X922126Y156101D01*
X919705Y158522D01*
X918395Y161684D01*
X918395Y178316D01*
X919705Y181478D01*
X922126Y183899D01*
X925288Y185209D01*
X928712Y185209D01*
X931874Y183899D01*
X934295Y181478D01*
X935605Y178316D01*
X935605Y161684D01*
X934295Y158522D01*
X931874Y156101D01*
X928712Y154791D01*
X925288Y154791D01*
G37*
%LPD*%
%LPC*%
G36*
X976088Y154791D02*
X976088Y154791D01*
X972926Y156101D01*
X970505Y158522D01*
X969195Y161684D01*
X969195Y178316D01*
X970505Y181478D01*
X972926Y183899D01*
X976088Y185209D01*
X979512Y185209D01*
X982674Y183899D01*
X985095Y181478D01*
X986405Y178316D01*
X986405Y161684D01*
X985095Y158522D01*
X982674Y156101D01*
X979512Y154791D01*
X976088Y154791D01*
G37*
%LPD*%
%LPC*%
G36*
X874488Y154791D02*
X874488Y154791D01*
X871326Y156101D01*
X868905Y158522D01*
X867595Y161684D01*
X867595Y178316D01*
X868905Y181478D01*
X871326Y183899D01*
X874488Y185209D01*
X877912Y185209D01*
X881074Y183899D01*
X883495Y181478D01*
X884805Y178316D01*
X884805Y161684D01*
X883495Y158522D01*
X881074Y156101D01*
X877912Y154791D01*
X874488Y154791D01*
G37*
%LPD*%
%LPC*%
G36*
X722088Y154791D02*
X722088Y154791D01*
X718926Y156101D01*
X716505Y158522D01*
X715195Y161684D01*
X715195Y178316D01*
X716505Y181478D01*
X718926Y183899D01*
X722088Y185209D01*
X725512Y185209D01*
X728674Y183899D01*
X731095Y181478D01*
X732405Y178316D01*
X732405Y161684D01*
X731095Y158522D01*
X728674Y156101D01*
X725512Y154791D01*
X722088Y154791D01*
G37*
%LPD*%
%LPC*%
G36*
X899888Y154791D02*
X899888Y154791D01*
X896726Y156101D01*
X894305Y158522D01*
X892995Y161684D01*
X892995Y178316D01*
X894305Y181478D01*
X896726Y183899D01*
X899888Y185209D01*
X903312Y185209D01*
X906474Y183899D01*
X908895Y181478D01*
X910205Y178316D01*
X910205Y161684D01*
X908895Y158522D01*
X906474Y156101D01*
X903312Y154791D01*
X899888Y154791D01*
G37*
%LPD*%
%LPC*%
G36*
X849088Y154791D02*
X849088Y154791D01*
X845926Y156101D01*
X843505Y158522D01*
X842195Y161684D01*
X842195Y178316D01*
X843505Y181478D01*
X845926Y183899D01*
X849088Y185209D01*
X852512Y185209D01*
X855674Y183899D01*
X858095Y181478D01*
X859405Y178316D01*
X859405Y161684D01*
X858095Y158522D01*
X855674Y156101D01*
X852512Y154791D01*
X849088Y154791D01*
G37*
%LPD*%
%LPC*%
G36*
X823688Y154791D02*
X823688Y154791D01*
X820526Y156101D01*
X818105Y158522D01*
X816795Y161684D01*
X816795Y178316D01*
X818105Y181478D01*
X820526Y183899D01*
X823688Y185209D01*
X827112Y185209D01*
X830274Y183899D01*
X832695Y181478D01*
X834005Y178316D01*
X834005Y161684D01*
X832695Y158522D01*
X830274Y156101D01*
X827112Y154791D01*
X823688Y154791D01*
G37*
%LPD*%
%LPC*%
G36*
X874488Y434191D02*
X874488Y434191D01*
X871326Y435501D01*
X868905Y437922D01*
X867595Y441084D01*
X867595Y457716D01*
X868905Y460878D01*
X871326Y463299D01*
X874488Y464609D01*
X877912Y464609D01*
X881074Y463299D01*
X883495Y460878D01*
X884805Y457716D01*
X884805Y441084D01*
X883495Y437922D01*
X881074Y435501D01*
X877912Y434191D01*
X874488Y434191D01*
G37*
%LPD*%
%LPC*%
G36*
X899888Y434191D02*
X899888Y434191D01*
X896726Y435501D01*
X894305Y437922D01*
X892995Y441084D01*
X892995Y457716D01*
X894305Y460878D01*
X896726Y463299D01*
X899888Y464609D01*
X903312Y464609D01*
X906474Y463299D01*
X908895Y460878D01*
X910205Y457716D01*
X910205Y441084D01*
X908895Y437922D01*
X906474Y435501D01*
X903312Y434191D01*
X899888Y434191D01*
G37*
%LPD*%
%LPC*%
G36*
X925288Y434191D02*
X925288Y434191D01*
X922126Y435501D01*
X919705Y437922D01*
X918395Y441084D01*
X918395Y457716D01*
X919705Y460878D01*
X922126Y463299D01*
X925288Y464609D01*
X928712Y464609D01*
X931874Y463299D01*
X934295Y460878D01*
X935605Y457716D01*
X935605Y441084D01*
X934295Y437922D01*
X931874Y435501D01*
X928712Y434191D01*
X925288Y434191D01*
G37*
%LPD*%
%LPC*%
G36*
X849088Y434191D02*
X849088Y434191D01*
X845926Y435501D01*
X843505Y437922D01*
X842195Y441084D01*
X842195Y457716D01*
X843505Y460878D01*
X845926Y463299D01*
X849088Y464609D01*
X852512Y464609D01*
X855674Y463299D01*
X858095Y460878D01*
X859405Y457716D01*
X859405Y441084D01*
X858095Y437922D01*
X855674Y435501D01*
X852512Y434191D01*
X849088Y434191D01*
G37*
%LPD*%
%LPC*%
G36*
X747488Y154791D02*
X747488Y154791D01*
X744326Y156101D01*
X741905Y158522D01*
X740595Y161684D01*
X740595Y178316D01*
X741905Y181478D01*
X744326Y183899D01*
X747488Y185209D01*
X750912Y185209D01*
X754074Y183899D01*
X756495Y181478D01*
X757805Y178316D01*
X757805Y161684D01*
X756495Y158522D01*
X754074Y156101D01*
X750912Y154791D01*
X747488Y154791D01*
G37*
%LPD*%
%LPC*%
G36*
X798288Y434191D02*
X798288Y434191D01*
X795126Y435501D01*
X792705Y437922D01*
X791395Y441084D01*
X791395Y457716D01*
X792705Y460878D01*
X795126Y463299D01*
X798288Y464609D01*
X801712Y464609D01*
X804874Y463299D01*
X807295Y460878D01*
X808605Y457716D01*
X808605Y441084D01*
X807295Y437922D01*
X804874Y435501D01*
X801712Y434191D01*
X798288Y434191D01*
G37*
%LPD*%
%LPC*%
G36*
X772888Y434191D02*
X772888Y434191D01*
X769726Y435501D01*
X767305Y437922D01*
X765995Y441084D01*
X765995Y457716D01*
X767305Y460878D01*
X769726Y463299D01*
X772888Y464609D01*
X776312Y464609D01*
X779474Y463299D01*
X781895Y460878D01*
X783205Y457716D01*
X783205Y441084D01*
X781895Y437922D01*
X779474Y435501D01*
X776312Y434191D01*
X772888Y434191D01*
G37*
%LPD*%
%LPC*%
G36*
X747488Y434191D02*
X747488Y434191D01*
X744326Y435501D01*
X741905Y437922D01*
X740595Y441084D01*
X740595Y457716D01*
X741905Y460878D01*
X744326Y463299D01*
X747488Y464609D01*
X750912Y464609D01*
X754074Y463299D01*
X756495Y460878D01*
X757805Y457716D01*
X757805Y441084D01*
X756495Y437922D01*
X754074Y435501D01*
X750912Y434191D01*
X747488Y434191D01*
G37*
%LPD*%
%LPC*%
G36*
X620488Y434191D02*
X620488Y434191D01*
X617326Y435501D01*
X614905Y437922D01*
X613595Y441084D01*
X613595Y457716D01*
X614905Y460878D01*
X617326Y463299D01*
X620488Y464609D01*
X623912Y464609D01*
X627074Y463299D01*
X629495Y460878D01*
X630805Y457716D01*
X630805Y441084D01*
X629495Y437922D01*
X627074Y435501D01*
X623912Y434191D01*
X620488Y434191D01*
G37*
%LPD*%
%LPC*%
G36*
X696688Y434191D02*
X696688Y434191D01*
X693526Y435501D01*
X691105Y437922D01*
X689795Y441084D01*
X689795Y457716D01*
X691105Y460878D01*
X693526Y463299D01*
X696688Y464609D01*
X700112Y464609D01*
X703274Y463299D01*
X705695Y460878D01*
X707005Y457716D01*
X707005Y441084D01*
X705695Y437922D01*
X703274Y435501D01*
X700112Y434191D01*
X696688Y434191D01*
G37*
%LPD*%
%LPC*%
G36*
X798288Y154791D02*
X798288Y154791D01*
X795126Y156101D01*
X792705Y158522D01*
X791395Y161684D01*
X791395Y178316D01*
X792705Y181478D01*
X795126Y183899D01*
X798288Y185209D01*
X801712Y185209D01*
X804874Y183899D01*
X807295Y181478D01*
X808605Y178316D01*
X808605Y161684D01*
X807295Y158522D01*
X804874Y156101D01*
X801712Y154791D01*
X798288Y154791D01*
G37*
%LPD*%
%LPC*%
G36*
X696688Y154791D02*
X696688Y154791D01*
X693526Y156101D01*
X691105Y158522D01*
X689795Y161684D01*
X689795Y178316D01*
X691105Y181478D01*
X693526Y183899D01*
X696688Y185209D01*
X700112Y185209D01*
X703274Y183899D01*
X705695Y181478D01*
X707005Y178316D01*
X707005Y161684D01*
X705695Y158522D01*
X703274Y156101D01*
X700112Y154791D01*
X696688Y154791D01*
G37*
%LPD*%
%LPC*%
G36*
X671288Y154791D02*
X671288Y154791D01*
X668126Y156101D01*
X665705Y158522D01*
X664395Y161684D01*
X664395Y178316D01*
X665705Y181478D01*
X668126Y183899D01*
X671288Y185209D01*
X674712Y185209D01*
X677874Y183899D01*
X680295Y181478D01*
X681605Y178316D01*
X681605Y161684D01*
X680295Y158522D01*
X677874Y156101D01*
X674712Y154791D01*
X671288Y154791D01*
G37*
%LPD*%
%LPC*%
G36*
X772888Y154791D02*
X772888Y154791D01*
X769726Y156101D01*
X767305Y158522D01*
X765995Y161684D01*
X765995Y178316D01*
X767305Y181478D01*
X769726Y183899D01*
X772888Y185209D01*
X776312Y185209D01*
X779474Y183899D01*
X781895Y181478D01*
X783205Y178316D01*
X783205Y161684D01*
X781895Y158522D01*
X779474Y156101D01*
X776312Y154791D01*
X772888Y154791D01*
G37*
%LPD*%
%LPC*%
G36*
X43999Y43999D02*
X43999Y43999D01*
X43999Y68945D01*
X44901Y68843D01*
X48099Y68113D01*
X51196Y67030D01*
X54152Y65606D01*
X56930Y63861D01*
X59495Y61815D01*
X61815Y59495D01*
X63861Y56930D01*
X65606Y54152D01*
X67030Y51196D01*
X68113Y48099D01*
X68843Y44901D01*
X68945Y43999D01*
X43999Y43999D01*
G37*
%LPD*%
%LPC*%
G36*
X1063999Y43999D02*
X1063999Y43999D01*
X1063999Y68945D01*
X1064901Y68843D01*
X1068099Y68113D01*
X1071196Y67030D01*
X1074152Y65606D01*
X1076930Y63861D01*
X1079495Y61815D01*
X1081815Y59495D01*
X1083861Y56930D01*
X1085606Y54152D01*
X1087030Y51196D01*
X1088113Y48099D01*
X1088843Y44901D01*
X1088945Y43999D01*
X1063999Y43999D01*
G37*
%LPD*%
%LPC*%
G36*
X43999Y603999D02*
X43999Y603999D01*
X43999Y628945D01*
X44901Y628843D01*
X48099Y628113D01*
X51196Y627030D01*
X54152Y625606D01*
X56930Y623861D01*
X59495Y621815D01*
X61815Y619495D01*
X63861Y616930D01*
X65606Y614152D01*
X67030Y611196D01*
X68113Y608099D01*
X68843Y604901D01*
X68945Y603999D01*
X43999Y603999D01*
G37*
%LPD*%
%LPC*%
G36*
X1063999Y603999D02*
X1063999Y603999D01*
X1063999Y628945D01*
X1064901Y628843D01*
X1068099Y628113D01*
X1071196Y627030D01*
X1074152Y625606D01*
X1076930Y623861D01*
X1079495Y621815D01*
X1081815Y619495D01*
X1083861Y616930D01*
X1085606Y614152D01*
X1087030Y611196D01*
X1088113Y608099D01*
X1088843Y604901D01*
X1088945Y603999D01*
X1063999Y603999D01*
G37*
%LPD*%
%LPC*%
G36*
X1063999Y36001D02*
X1063999Y36001D01*
X1088945Y36001D01*
X1088843Y35099D01*
X1088113Y31901D01*
X1087030Y28804D01*
X1085606Y25848D01*
X1083861Y23070D01*
X1081815Y20505D01*
X1079495Y18185D01*
X1076930Y16139D01*
X1074152Y14394D01*
X1071196Y12970D01*
X1068099Y11887D01*
X1064901Y11157D01*
X1063999Y11055D01*
X1063999Y36001D01*
G37*
%LPD*%
%LPC*%
G36*
X1031055Y43999D02*
X1031055Y43999D01*
X1031157Y44901D01*
X1031887Y48099D01*
X1032970Y51196D01*
X1034394Y54152D01*
X1036139Y56930D01*
X1038185Y59495D01*
X1040505Y61815D01*
X1043070Y63861D01*
X1045848Y65606D01*
X1048804Y67030D01*
X1051901Y68113D01*
X1055099Y68843D01*
X1056001Y68945D01*
X1056001Y43999D01*
X1031055Y43999D01*
G37*
%LPD*%
%LPC*%
G36*
X1031055Y603999D02*
X1031055Y603999D01*
X1031157Y604901D01*
X1031887Y608099D01*
X1032970Y611196D01*
X1034394Y614152D01*
X1036139Y616930D01*
X1038185Y619495D01*
X1040505Y621815D01*
X1043070Y623861D01*
X1045848Y625606D01*
X1048804Y627030D01*
X1051901Y628113D01*
X1055099Y628843D01*
X1056001Y628945D01*
X1056001Y603999D01*
X1031055Y603999D01*
G37*
%LPD*%
%LPC*%
G36*
X1063999Y596001D02*
X1063999Y596001D01*
X1088945Y596001D01*
X1088843Y595099D01*
X1088113Y591901D01*
X1087030Y588804D01*
X1085606Y585848D01*
X1083861Y583070D01*
X1081815Y580505D01*
X1079495Y578185D01*
X1076930Y576139D01*
X1074152Y574394D01*
X1071196Y572970D01*
X1068099Y571887D01*
X1064901Y571157D01*
X1063999Y571055D01*
X1063999Y596001D01*
G37*
%LPD*%
%LPC*%
G36*
X11055Y603999D02*
X11055Y603999D01*
X11157Y604901D01*
X11887Y608099D01*
X12970Y611196D01*
X14394Y614152D01*
X16139Y616930D01*
X18185Y619495D01*
X20505Y621815D01*
X23070Y623861D01*
X25848Y625606D01*
X28804Y627030D01*
X31901Y628113D01*
X35099Y628843D01*
X36001Y628945D01*
X36001Y603999D01*
X11055Y603999D01*
G37*
%LPD*%
%LPC*%
G36*
X11055Y43999D02*
X11055Y43999D01*
X11157Y44901D01*
X11887Y48099D01*
X12970Y51196D01*
X14394Y54152D01*
X16139Y56930D01*
X18185Y59495D01*
X20505Y61815D01*
X23070Y63861D01*
X25848Y65606D01*
X28804Y67030D01*
X31901Y68113D01*
X35099Y68843D01*
X36001Y68945D01*
X36001Y43999D01*
X11055Y43999D01*
G37*
%LPD*%
%LPC*%
G36*
X43999Y36001D02*
X43999Y36001D01*
X68945Y36001D01*
X68843Y35099D01*
X68113Y31901D01*
X67030Y28804D01*
X65606Y25848D01*
X63861Y23070D01*
X61815Y20505D01*
X59495Y18185D01*
X56930Y16139D01*
X54152Y14394D01*
X51196Y12970D01*
X48099Y11887D01*
X44901Y11157D01*
X43999Y11055D01*
X43999Y36001D01*
G37*
%LPD*%
%LPC*%
G36*
X43999Y596001D02*
X43999Y596001D01*
X68945Y596001D01*
X68843Y595099D01*
X68113Y591901D01*
X67030Y588804D01*
X65606Y585848D01*
X63861Y583070D01*
X61815Y580505D01*
X59495Y578185D01*
X56930Y576139D01*
X54152Y574394D01*
X51196Y572970D01*
X48099Y571887D01*
X44901Y571157D01*
X43999Y571055D01*
X43999Y596001D01*
G37*
%LPD*%
%LPC*%
G36*
X35099Y571157D02*
X35099Y571157D01*
X31901Y571887D01*
X28804Y572970D01*
X25848Y574394D01*
X23070Y576139D01*
X20505Y578185D01*
X18185Y580505D01*
X16139Y583070D01*
X14394Y585848D01*
X12970Y588804D01*
X11887Y591901D01*
X11157Y595099D01*
X11055Y596001D01*
X36001Y596001D01*
X36001Y571055D01*
X35099Y571157D01*
G37*
%LPD*%
%LPC*%
G36*
X1055099Y571157D02*
X1055099Y571157D01*
X1051901Y571887D01*
X1048804Y572970D01*
X1045848Y574394D01*
X1043070Y576139D01*
X1040505Y578185D01*
X1038185Y580505D01*
X1036139Y583070D01*
X1034394Y585848D01*
X1032970Y588804D01*
X1031887Y591901D01*
X1031157Y595099D01*
X1031055Y596001D01*
X1056001Y596001D01*
X1056001Y571055D01*
X1055099Y571157D01*
G37*
%LPD*%
%LPC*%
G36*
X1055099Y11157D02*
X1055099Y11157D01*
X1051901Y11887D01*
X1048804Y12970D01*
X1045848Y14394D01*
X1043070Y16139D01*
X1040505Y18185D01*
X1038185Y20505D01*
X1036139Y23070D01*
X1034394Y25848D01*
X1032970Y28804D01*
X1031887Y31901D01*
X1031157Y35099D01*
X1031055Y36001D01*
X1056001Y36001D01*
X1056001Y11055D01*
X1055099Y11157D01*
G37*
%LPD*%
%LPC*%
G36*
X35099Y11157D02*
X35099Y11157D01*
X31901Y11887D01*
X28804Y12970D01*
X25848Y14394D01*
X23070Y16139D01*
X20505Y18185D01*
X18185Y20505D01*
X16139Y23070D01*
X14394Y25848D01*
X12970Y28804D01*
X11887Y31901D01*
X11157Y35099D01*
X11055Y36001D01*
X36001Y36001D01*
X36001Y11055D01*
X35099Y11157D01*
G37*
%LPD*%
%LPC*%
G36*
X860508Y12499D02*
X860508Y12499D01*
X857751Y13641D01*
X855641Y15751D01*
X854499Y18508D01*
X854499Y21492D01*
X855641Y24249D01*
X857751Y26359D01*
X860508Y27501D01*
X863492Y27501D01*
X866249Y26359D01*
X868359Y24249D01*
X869501Y21492D01*
X869501Y18508D01*
X868359Y15751D01*
X866249Y13641D01*
X863492Y12499D01*
X860508Y12499D01*
G37*
%LPD*%
%LPC*%
G36*
X734508Y12499D02*
X734508Y12499D01*
X731751Y13641D01*
X729641Y15751D01*
X728499Y18508D01*
X728499Y21492D01*
X729641Y24249D01*
X731751Y26359D01*
X734508Y27501D01*
X737492Y27501D01*
X740249Y26359D01*
X742359Y24249D01*
X743501Y21492D01*
X743501Y18508D01*
X742359Y15751D01*
X740249Y13641D01*
X737492Y12499D01*
X734508Y12499D01*
G37*
%LPD*%
%LPC*%
G36*
X890508Y12499D02*
X890508Y12499D01*
X887751Y13641D01*
X885641Y15751D01*
X884499Y18508D01*
X884499Y21492D01*
X885641Y24249D01*
X887751Y26359D01*
X890508Y27501D01*
X893492Y27501D01*
X896249Y26359D01*
X898359Y24249D01*
X899501Y21492D01*
X899501Y18508D01*
X898359Y15751D01*
X896249Y13641D01*
X893492Y12499D01*
X890508Y12499D01*
G37*
%LPD*%
%LPC*%
G36*
X704508Y12499D02*
X704508Y12499D01*
X701751Y13641D01*
X699641Y15751D01*
X698499Y18508D01*
X698499Y21492D01*
X699641Y24249D01*
X701751Y26359D01*
X704508Y27501D01*
X707492Y27501D01*
X710249Y26359D01*
X712359Y24249D01*
X713501Y21492D01*
X713501Y18508D01*
X712359Y15751D01*
X710249Y13641D01*
X707492Y12499D01*
X704508Y12499D01*
G37*
%LPD*%
%LPC*%
G36*
X246409Y29129D02*
X246409Y29129D01*
X246409Y48181D01*
X250554Y48181D01*
X251201Y48008D01*
X251780Y47673D01*
X252253Y47200D01*
X252588Y46621D01*
X252761Y45974D01*
X252761Y29129D01*
X246409Y29129D01*
G37*
%LPD*%
%LPC*%
G36*
X297209Y29129D02*
X297209Y29129D01*
X297209Y48181D01*
X301354Y48181D01*
X302001Y48008D01*
X302580Y47673D01*
X303053Y47200D01*
X303388Y46621D01*
X303561Y45974D01*
X303561Y29129D01*
X297209Y29129D01*
G37*
%LPD*%
%LPC*%
G36*
X232439Y29129D02*
X232439Y29129D01*
X232439Y45974D01*
X232612Y46621D01*
X232947Y47200D01*
X233420Y47673D01*
X233999Y48008D01*
X234646Y48181D01*
X238791Y48181D01*
X238791Y29129D01*
X232439Y29129D01*
G37*
%LPD*%
%LPC*%
G36*
X283239Y29129D02*
X283239Y29129D01*
X283239Y45974D01*
X283412Y46621D01*
X283747Y47200D01*
X284220Y47673D01*
X284799Y48008D01*
X285446Y48181D01*
X289591Y48181D01*
X289591Y29129D01*
X283239Y29129D01*
G37*
%LPD*%
%LPC*%
G36*
X849169Y602031D02*
X849169Y602031D01*
X849169Y609224D01*
X849342Y609871D01*
X849677Y610450D01*
X850150Y610923D01*
X850729Y611258D01*
X851376Y611431D01*
X858569Y611431D01*
X858569Y602031D01*
X849169Y602031D01*
G37*
%LPD*%
%LPC*%
G36*
X851376Y588569D02*
X851376Y588569D01*
X850729Y588742D01*
X850150Y589077D01*
X849677Y589550D01*
X849342Y590129D01*
X849169Y590776D01*
X849169Y597969D01*
X858569Y597969D01*
X858569Y588569D01*
X851376Y588569D01*
G37*
%LPD*%
%LPC*%
G36*
X954431Y172031D02*
X954431Y172031D01*
X954431Y185541D01*
X954541Y185524D01*
X955910Y185079D01*
X957193Y184425D01*
X958357Y183579D01*
X959375Y182561D01*
X960221Y181397D01*
X960875Y180114D01*
X961320Y178745D01*
X961545Y177324D01*
X961545Y172031D01*
X954431Y172031D01*
G37*
%LPD*%
%LPC*%
G36*
X954431Y451431D02*
X954431Y451431D01*
X954431Y464941D01*
X954541Y464924D01*
X955910Y464479D01*
X957193Y463825D01*
X958357Y462979D01*
X959375Y461961D01*
X960221Y460797D01*
X960875Y459514D01*
X961320Y458145D01*
X961545Y456724D01*
X961545Y451431D01*
X954431Y451431D01*
G37*
%LPD*%
%LPC*%
G36*
X954431Y167969D02*
X954431Y167969D01*
X961545Y167969D01*
X961545Y162676D01*
X961320Y161255D01*
X960875Y159886D01*
X960221Y158603D01*
X959375Y157439D01*
X958357Y156421D01*
X957193Y155575D01*
X955910Y154921D01*
X954541Y154476D01*
X954431Y154459D01*
X954431Y167969D01*
G37*
%LPD*%
%LPC*%
G36*
X954431Y447369D02*
X954431Y447369D01*
X961545Y447369D01*
X961545Y442076D01*
X961320Y440655D01*
X960875Y439286D01*
X960221Y438003D01*
X959375Y436839D01*
X958357Y435821D01*
X957193Y434975D01*
X955910Y434321D01*
X954541Y433876D01*
X954431Y433859D01*
X954431Y447369D01*
G37*
%LPD*%
%LPC*%
G36*
X943255Y172031D02*
X943255Y172031D01*
X943255Y177324D01*
X943480Y178745D01*
X943925Y180114D01*
X944579Y181397D01*
X945425Y182561D01*
X946443Y183579D01*
X947607Y184425D01*
X948890Y185079D01*
X950259Y185524D01*
X950369Y185541D01*
X950369Y172031D01*
X943255Y172031D01*
G37*
%LPD*%
%LPC*%
G36*
X943255Y451431D02*
X943255Y451431D01*
X943255Y456724D01*
X943480Y458145D01*
X943925Y459514D01*
X944579Y460797D01*
X945425Y461961D01*
X946443Y462979D01*
X947607Y463825D01*
X948890Y464479D01*
X950259Y464924D01*
X950369Y464941D01*
X950369Y451431D01*
X943255Y451431D01*
G37*
%LPD*%
%LPC*%
G36*
X950259Y154476D02*
X950259Y154476D01*
X948890Y154921D01*
X947607Y155575D01*
X946443Y156421D01*
X945425Y157439D01*
X944579Y158603D01*
X943925Y159886D01*
X943480Y161255D01*
X943255Y162676D01*
X943255Y167969D01*
X950369Y167969D01*
X950369Y154459D01*
X950259Y154476D01*
G37*
%LPD*%
%LPC*%
G36*
X950259Y433876D02*
X950259Y433876D01*
X948890Y434321D01*
X947607Y434975D01*
X946443Y435821D01*
X945425Y436839D01*
X944579Y438003D01*
X943925Y439286D01*
X943480Y440655D01*
X943255Y442076D01*
X943255Y447369D01*
X950369Y447369D01*
X950369Y433859D01*
X950259Y433876D01*
G37*
%LPD*%
%LPC*%
G36*
X900299Y307949D02*
X900299Y307949D01*
X900299Y312741D01*
X904775Y312741D01*
X905673Y312500D01*
X906478Y312035D01*
X907135Y311378D01*
X907600Y310573D01*
X907841Y309675D01*
X907841Y307949D01*
X900299Y307949D01*
G37*
%LPD*%
%LPC*%
G36*
X888259Y307949D02*
X888259Y307949D01*
X888259Y309675D01*
X888500Y310573D01*
X888965Y311378D01*
X889622Y312035D01*
X890427Y312500D01*
X891325Y312741D01*
X895801Y312741D01*
X895801Y307949D01*
X888259Y307949D01*
G37*
%LPD*%
%LPC*%
G36*
X900299Y298659D02*
X900299Y298659D01*
X900299Y303451D01*
X907841Y303451D01*
X907841Y301725D01*
X907600Y300827D01*
X907135Y300022D01*
X906478Y299365D01*
X905673Y298900D01*
X904775Y298659D01*
X900299Y298659D01*
G37*
%LPD*%
%LPC*%
G36*
X891325Y298659D02*
X891325Y298659D01*
X890427Y298900D01*
X889622Y299365D01*
X888965Y300022D01*
X888500Y300827D01*
X888259Y301725D01*
X888259Y303451D01*
X895801Y303451D01*
X895801Y298659D01*
X891325Y298659D01*
G37*
%LPD*%
%LPC*%
G36*
X857699Y304759D02*
X857699Y304759D01*
X857699Y310301D01*
X862741Y310301D01*
X862741Y306966D01*
X862568Y306319D01*
X862233Y305740D01*
X861760Y305267D01*
X861181Y304932D01*
X860534Y304759D01*
X857699Y304759D01*
G37*
%LPD*%
%LPC*%
G36*
X849866Y304759D02*
X849866Y304759D01*
X849219Y304932D01*
X848640Y305267D01*
X848167Y305740D01*
X847832Y306319D01*
X847659Y306966D01*
X847659Y310301D01*
X852701Y310301D01*
X852701Y304759D01*
X849866Y304759D01*
G37*
%LPD*%
%LPC*%
G36*
X1059999Y599999D02*
X1059999Y599999D01*
X1059999Y600001D01*
X1060001Y600001D01*
X1060001Y599999D01*
X1059999Y599999D01*
G37*
%LPD*%
%LPC*%
G36*
X39999Y599999D02*
X39999Y599999D01*
X39999Y600001D01*
X40001Y600001D01*
X40001Y599999D01*
X39999Y599999D01*
G37*
%LPD*%
%LPC*%
G36*
X1059999Y39999D02*
X1059999Y39999D01*
X1059999Y40001D01*
X1060001Y40001D01*
X1060001Y39999D01*
X1059999Y39999D01*
G37*
%LPD*%
%LPC*%
G36*
X39999Y39999D02*
X39999Y39999D01*
X39999Y40001D01*
X40001Y40001D01*
X40001Y39999D01*
X39999Y39999D01*
G37*
%LPD*%
D10*
X1046360Y440250D02*
X1056440Y440250D01*
X1056440Y452750D02*
X1046360Y452750D01*
X1046360Y465250D02*
X1056440Y465250D01*
X1056440Y477750D02*
X1046360Y477750D01*
X1046360Y490250D02*
X1056440Y490250D01*
X1056440Y502750D02*
X1046360Y502750D01*
X1046360Y515250D02*
X1056440Y515250D01*
X1056440Y527750D02*
X1046360Y527750D01*
D11*
X860600Y600000D03*
D12*
X886000Y600000D03*
X911400Y600000D03*
D13*
X977800Y456004D02*
X977800Y442796D01*
X952400Y442796D02*
X952400Y456004D01*
X927000Y456004D02*
X927000Y442796D01*
X901600Y442796D02*
X901600Y456004D01*
X876200Y456004D02*
X876200Y442796D01*
X850800Y442796D02*
X850800Y456004D01*
X825400Y456004D02*
X825400Y442796D01*
X800000Y442796D02*
X800000Y456004D01*
X774600Y456004D02*
X774600Y442796D01*
X749200Y442796D02*
X749200Y456004D01*
X723800Y456004D02*
X723800Y442796D01*
X698400Y442796D02*
X698400Y456004D01*
X673000Y456004D02*
X673000Y442796D01*
X647600Y442796D02*
X647600Y456004D01*
X622200Y456004D02*
X622200Y442796D01*
X977800Y176604D02*
X977800Y163396D01*
X952400Y163396D02*
X952400Y176604D01*
X927000Y176604D02*
X927000Y163396D01*
X901600Y163396D02*
X901600Y176604D01*
X876200Y176604D02*
X876200Y163396D01*
X850800Y163396D02*
X850800Y176604D01*
X825400Y176604D02*
X825400Y163396D01*
X800000Y163396D02*
X800000Y176604D01*
X774600Y176604D02*
X774600Y163396D01*
X749200Y163396D02*
X749200Y176604D01*
X723800Y176604D02*
X723800Y163396D01*
X698400Y163396D02*
X698400Y176604D01*
X673000Y176604D02*
X673000Y163396D01*
X647600Y163396D02*
X647600Y176604D01*
X622200Y176604D02*
X622200Y163396D01*
D14*
X891790Y302190D02*
X891790Y309210D01*
X904310Y309210D01*
X904310Y302190D01*
X891790Y302190D01*
X891790Y304071D02*
X904310Y304071D01*
X904310Y305952D02*
X891790Y305952D01*
X891790Y307833D02*
X904310Y307833D01*
X891790Y325190D02*
X891790Y332210D01*
X904310Y332210D01*
X904310Y325190D01*
X891790Y325190D01*
X891790Y327071D02*
X904310Y327071D01*
X904310Y328952D02*
X891790Y328952D01*
X891790Y330833D02*
X904310Y330833D01*
X891790Y348190D02*
X891790Y355210D01*
X904310Y355210D01*
X904310Y348190D01*
X891790Y348190D01*
X891790Y350071D02*
X904310Y350071D01*
X904310Y351952D02*
X891790Y351952D01*
X891790Y353833D02*
X904310Y353833D01*
D15*
X953315Y343435D02*
X953315Y313965D01*
X953315Y343435D02*
X965785Y343435D01*
X965785Y313965D01*
X953315Y313965D01*
X953315Y315893D02*
X965785Y315893D01*
X965785Y317821D02*
X953315Y317821D01*
X953315Y319749D02*
X965785Y319749D01*
X965785Y321677D02*
X953315Y321677D01*
X953315Y323605D02*
X965785Y323605D01*
X965785Y325533D02*
X953315Y325533D01*
X953315Y327461D02*
X965785Y327461D01*
X965785Y329389D02*
X953315Y329389D01*
X953315Y331317D02*
X965785Y331317D01*
X965785Y333245D02*
X953315Y333245D01*
X953315Y335173D02*
X965785Y335173D01*
X965785Y337101D02*
X953315Y337101D01*
X953315Y339029D02*
X965785Y339029D01*
X965785Y340957D02*
X953315Y340957D01*
X953315Y342885D02*
X965785Y342885D01*
D16*
X855200Y329800D03*
X855200Y312800D03*
D17*
X1060000Y40000D03*
X1060000Y600000D03*
X40000Y600000D03*
X40000Y40000D03*
D18*
X242600Y25320D03*
X293400Y25320D03*
D19*
X768000Y237000D03*
X791000Y237000D03*
X818000Y237000D03*
X848000Y237000D03*
X872000Y236000D03*
X893000Y235000D03*
X915000Y235000D03*
X938000Y235000D03*
X939000Y215000D03*
X916000Y216000D03*
X894000Y216000D03*
X873000Y217000D03*
X850000Y218000D03*
X820000Y218000D03*
X792000Y218000D03*
X770000Y218000D03*
X921000Y306000D03*
X936000Y307000D03*
X958000Y301000D03*
X972000Y304000D03*
X921000Y289000D03*
X943000Y289000D03*
X961000Y290000D03*
X1001000Y42000D03*
X986000Y42000D03*
X987000Y27000D03*
X1001000Y28000D03*
X602000Y85000D03*
X613000Y85000D03*
X624000Y85000D03*
X635000Y85000D03*
X646000Y85000D03*
X602000Y73000D03*
X616000Y73000D03*
X631000Y73000D03*
X646000Y73000D03*
X369000Y493000D03*
X387000Y493000D03*
X407000Y493000D03*
X424000Y493000D03*
X438000Y493000D03*
X452000Y493000D03*
X466000Y493000D03*
X481000Y493000D03*
X369000Y476000D03*
X387000Y476000D03*
X407000Y476000D03*
X424000Y476000D03*
X438000Y476000D03*
X452000Y476000D03*
X466000Y476000D03*
X481000Y476000D03*
X370000Y461000D03*
X388000Y461000D03*
X407000Y461000D03*
X425000Y461000D03*
X438000Y461000D03*
X452000Y461000D03*
X467000Y461000D03*
X481000Y461000D03*
X746000Y505000D03*
X759000Y505000D03*
X771000Y505000D03*
X783000Y505000D03*
X795000Y505000D03*
X808000Y505000D03*
X821000Y505000D03*
X733000Y505000D03*
X897000Y505000D03*
X885000Y505000D03*
X873000Y505000D03*
X861000Y505000D03*
X848000Y505000D03*
X834000Y505000D03*
X37000Y398000D03*
X54000Y398000D03*
X73000Y398000D03*
X92000Y398000D03*
X109000Y399000D03*
X109000Y413000D03*
X92000Y413000D03*
X73000Y413000D03*
X54000Y413000D03*
X37000Y413000D03*
X109000Y428000D03*
X92000Y428000D03*
X73000Y428000D03*
X54000Y428000D03*
X38000Y428000D03*
X72000Y444000D03*
X91000Y444000D03*
X109000Y444000D03*
X54000Y444000D03*
X37000Y444000D03*
X181000Y50000D03*
X194000Y53000D03*
X207000Y53000D03*
X221000Y53000D03*
X182000Y36000D03*
X195000Y36000D03*
X207000Y36000D03*
X223000Y36000D03*
X223000Y22000D03*
X308000Y54000D03*
X322000Y54000D03*
X309000Y39000D03*
X323000Y40000D03*
X310000Y20000D03*
X322000Y19000D03*
X235000Y54000D03*
X248000Y54000D03*
X284000Y54000D03*
X298000Y54000D03*
X410000Y160000D03*
X429000Y160000D03*
X446000Y161000D03*
X410000Y144000D03*
X429000Y144000D03*
X446000Y145000D03*
X410000Y126000D03*
X429000Y126000D03*
X446000Y127000D03*
X410000Y107000D03*
X429000Y108000D03*
X446000Y108000D03*
X410000Y90000D03*
X429000Y90000D03*
X446000Y90000D03*
D20*
X881300Y351700D02*
X898050Y351700D01*
D21*
X881300Y351700D02*
X839300Y351700D01*
X839000Y352000D01*
D19*
X839000Y352000D03*
X681000Y374000D03*
D21*
X666000Y389000D01*
X641000Y389000D01*
X605000Y353000D02*
X594000Y353000D01*
X557000Y390000D01*
X595000Y491000D02*
X612000Y491000D01*
X557000Y453000D02*
X557000Y390000D01*
X557000Y453000D02*
X595000Y491000D01*
X612000Y491000D02*
X692000Y571000D01*
X641000Y389000D02*
X605000Y353000D01*
X1020000Y528000D02*
X1030000Y528000D01*
X842000Y571000D02*
X692000Y571000D01*
X842000Y571000D02*
X867000Y546000D01*
X1002000Y546000D01*
X1020000Y528000D01*
D20*
X1030000Y528000D02*
X1051150Y528000D01*
X1051400Y527750D01*
D21*
X959550Y328700D02*
X916300Y328700D01*
D20*
X898050Y328700D01*
X885300Y328700D01*
D21*
X870300Y328700D01*
D20*
X856300Y328700D01*
X855200Y329800D01*
X838200Y329800D01*
D21*
X821800Y329800D01*
X807000Y315000D01*
X807000Y288000D01*
X977800Y420200D02*
X977800Y449400D01*
X807000Y288000D02*
X822000Y273000D01*
X969000Y273000D01*
X1013000Y317000D01*
X1013000Y385000D01*
X977800Y420200D01*
X822000Y273000D02*
X654000Y273000D01*
X615000Y312000D01*
X416000Y312000D01*
X377000Y351000D01*
X173000Y351000D01*
X90000Y268000D01*
X90000Y136000D01*
X80000Y126000D01*
X62000Y126000D02*
X49000Y113000D01*
X48000Y112000D01*
X48000Y104000D01*
X62000Y126000D02*
X80000Y126000D01*
D19*
X48000Y104000D03*
X49000Y113000D03*
X1049000Y208000D03*
X1049000Y216000D03*
D21*
X994000Y70000D02*
X984000Y70000D01*
X975000Y70000D01*
X1049000Y125000D02*
X1049000Y216000D01*
X1049000Y125000D02*
X994000Y70000D01*
D19*
X975000Y70000D03*
X984000Y70000D03*
D22*
X673000Y449400D02*
X673000Y488000D01*
X1019750Y490250D02*
X1051400Y490250D01*
X717000Y532000D02*
X673000Y488000D01*
X717000Y532000D02*
X842000Y532000D01*
X856000Y518000D01*
X992000Y518000D01*
X1019750Y490250D01*
X647600Y488600D02*
X647600Y449400D01*
X647600Y488600D02*
X705000Y546000D01*
X844000Y546000D02*
X861000Y529000D01*
X999000Y529000D02*
X1021000Y507000D01*
X844000Y546000D02*
X705000Y546000D01*
X861000Y529000D02*
X999000Y529000D01*
D19*
X1021000Y507000D03*
X660000Y413000D03*
D22*
X664000Y417000D01*
X709000Y417000D01*
X723800Y431800D01*
X723800Y449400D01*
D19*
X178000Y227000D03*
D22*
X237000Y286000D01*
X433000Y286000D01*
D19*
X433000Y286000D03*
X181000Y215000D03*
D22*
X241000Y275000D01*
X433000Y275000D01*
D19*
X433000Y275000D03*
M02*
