G04 EAGLE Gerber RS-274X export*
G75*
%MOMM*%
%FSLAX34Y34*%
%LPD*%
%INSoldermask Top*%
%IPPOS*%
%AMOC8*
5,1,8,0,0,1.08239X$1,22.5*%
G01*
%ADD10R,1.553200X0.603200*%
%ADD11R,1.803200X2.303200*%
%ADD12R,2.103200X2.003200*%
%ADD13R,2.103200X2.103200*%
%ADD14R,1.203200X1.303200*%
%ADD15C,1.211200*%
%ADD16R,1.981200X1.981200*%
%ADD17P,2.144431X8X22.500000*%
%ADD18C,1.524000*%
%ADD19R,1.003200X1.003200*%
%ADD20R,1.303200X1.203200*%
%ADD21C,5.537200*%
%ADD22R,0.903200X1.703200*%
%ADD23R,1.203200X1.003200*%
%ADD24C,1.103200*%
%ADD25R,0.903200X1.203200*%
%ADD26R,1.203200X0.903200*%
%ADD27C,0.463294*%
%ADD28R,0.914400X2.336800*%
%ADD29R,1.727200X4.267200*%
%ADD30R,1.219200X2.235200*%
%ADD31C,0.959600*%


D10*
X1059100Y323500D03*
X1059100Y330000D03*
X1059100Y336500D03*
X1059100Y343000D03*
X1059100Y349500D03*
D11*
X1060350Y305500D03*
X1060350Y367500D03*
D12*
X1085850Y298500D03*
D13*
X1085850Y324500D03*
X1085850Y348500D03*
D12*
X1085850Y374500D03*
D14*
X991800Y352500D03*
X991800Y335500D03*
D15*
X954650Y586460D02*
X954650Y596540D01*
X942150Y596540D02*
X942150Y586460D01*
X929650Y586460D02*
X929650Y596540D01*
X917150Y596540D02*
X917150Y586460D01*
X904650Y586460D02*
X904650Y596540D01*
X892150Y596540D02*
X892150Y586460D01*
X879650Y586460D02*
X879650Y596540D01*
X867150Y596540D02*
X867150Y586460D01*
D16*
X1073000Y516900D03*
D17*
X1073000Y491500D03*
X1073000Y466100D03*
D18*
X977800Y456004D02*
X977800Y442796D01*
X952400Y442796D02*
X952400Y456004D01*
X927000Y456004D02*
X927000Y442796D01*
X901600Y442796D02*
X901600Y456004D01*
X876200Y456004D02*
X876200Y442796D01*
X850800Y442796D02*
X850800Y456004D01*
X825400Y456004D02*
X825400Y442796D01*
X800000Y442796D02*
X800000Y456004D01*
X774600Y456004D02*
X774600Y442796D01*
X749200Y442796D02*
X749200Y456004D01*
X723800Y456004D02*
X723800Y442796D01*
X698400Y442796D02*
X698400Y456004D01*
X673000Y456004D02*
X673000Y442796D01*
X647600Y442796D02*
X647600Y456004D01*
X622200Y456004D02*
X622200Y442796D01*
X977800Y176604D02*
X977800Y163396D01*
X952400Y163396D02*
X952400Y176604D01*
X927000Y176604D02*
X927000Y163396D01*
X901600Y163396D02*
X901600Y176604D01*
X876200Y176604D02*
X876200Y163396D01*
X850800Y163396D02*
X850800Y176604D01*
X825400Y176604D02*
X825400Y163396D01*
X800000Y163396D02*
X800000Y176604D01*
X774600Y176604D02*
X774600Y163396D01*
X749200Y163396D02*
X749200Y176604D01*
X723800Y176604D02*
X723800Y163396D01*
X698400Y163396D02*
X698400Y176604D01*
X673000Y176604D02*
X673000Y163396D01*
X647600Y163396D02*
X647600Y176604D01*
X622200Y176604D02*
X622200Y163396D01*
D19*
X559100Y65500D03*
X559100Y50500D03*
D14*
X561600Y206000D03*
X578600Y206000D03*
D20*
X1030300Y465900D03*
X1030300Y482900D03*
D19*
X1029900Y117900D03*
X1044900Y117900D03*
D14*
X1044600Y144300D03*
X1027600Y144300D03*
D21*
X1060000Y40000D03*
X1060000Y600000D03*
X40000Y600000D03*
X40000Y40000D03*
D19*
X525442Y65442D03*
X525442Y50442D03*
D14*
X524873Y206613D03*
X541873Y206613D03*
D22*
X854500Y37500D03*
X884500Y37500D03*
X899500Y37500D03*
D23*
X840500Y29650D03*
X840500Y10350D03*
X913500Y10350D03*
X913500Y29650D03*
D24*
X862000Y20000D03*
X892000Y20000D03*
D22*
X698500Y37500D03*
X728500Y37500D03*
X743500Y37500D03*
D23*
X684500Y29650D03*
X684500Y10350D03*
X757500Y10350D03*
X757500Y29650D03*
D24*
X706000Y20000D03*
X736000Y20000D03*
D25*
X278500Y259500D03*
X267500Y259500D03*
X256500Y259500D03*
X245500Y259500D03*
X234500Y259500D03*
X223500Y259500D03*
X212500Y259500D03*
X201500Y259500D03*
X190500Y259500D03*
X179500Y259500D03*
X168500Y259500D03*
X157500Y259500D03*
D26*
X148600Y234200D03*
X148600Y223200D03*
X148600Y212200D03*
X148600Y201200D03*
X148600Y190200D03*
X148600Y179200D03*
X148600Y168200D03*
D25*
X157500Y142000D03*
X168500Y142000D03*
X179500Y142000D03*
X190500Y142000D03*
X201500Y142000D03*
X212500Y142000D03*
X223500Y142000D03*
X234500Y142000D03*
X245500Y142000D03*
X256500Y142000D03*
X267500Y142000D03*
X278500Y142000D03*
D14*
X267000Y122500D03*
X267000Y105500D03*
D27*
X287330Y76315D02*
X294890Y76315D01*
X287330Y76315D02*
X287330Y87685D01*
X294890Y87685D01*
X294890Y76315D01*
X294890Y80716D02*
X287330Y80716D01*
X287330Y85117D02*
X294890Y85117D01*
X305110Y76315D02*
X312670Y76315D01*
X305110Y76315D02*
X305110Y87685D01*
X312670Y87685D01*
X312670Y76315D01*
X312670Y80716D02*
X305110Y80716D01*
X305110Y85117D02*
X312670Y85117D01*
D20*
X268000Y64500D03*
X268000Y81500D03*
D28*
X254046Y25574D03*
X281954Y25574D03*
D29*
X293400Y25320D03*
X242600Y25320D03*
D30*
X268000Y35480D03*
D14*
X168000Y120500D03*
X168000Y103500D03*
X107500Y90000D03*
X124500Y90000D03*
D20*
X124500Y130000D03*
X107500Y130000D03*
D14*
X121500Y169000D03*
X104500Y169000D03*
X122500Y230000D03*
X105500Y230000D03*
X156500Y288000D03*
X139500Y288000D03*
D19*
X40500Y177000D03*
X55500Y177000D03*
X40500Y230000D03*
X55500Y230000D03*
X40500Y284000D03*
X55500Y284000D03*
D31*
X768000Y237000D03*
X791000Y237000D03*
X818000Y237000D03*
X848000Y237000D03*
X872000Y236000D03*
X893000Y235000D03*
X915000Y235000D03*
X938000Y235000D03*
X939000Y215000D03*
X916000Y216000D03*
X894000Y216000D03*
X873000Y217000D03*
X850000Y218000D03*
X820000Y218000D03*
X792000Y218000D03*
X770000Y218000D03*
X921000Y306000D03*
X936000Y307000D03*
X958000Y301000D03*
X972000Y304000D03*
X921000Y289000D03*
X943000Y289000D03*
X961000Y290000D03*
X1001000Y42000D03*
X986000Y42000D03*
X987000Y27000D03*
X1001000Y28000D03*
X602000Y85000D03*
X613000Y85000D03*
X624000Y85000D03*
X635000Y85000D03*
X646000Y85000D03*
X602000Y73000D03*
X616000Y73000D03*
X631000Y73000D03*
X646000Y73000D03*
X369000Y493000D03*
X387000Y493000D03*
X407000Y493000D03*
X424000Y493000D03*
X438000Y493000D03*
X452000Y493000D03*
X466000Y493000D03*
X481000Y493000D03*
X369000Y476000D03*
X387000Y476000D03*
X407000Y476000D03*
X424000Y476000D03*
X438000Y476000D03*
X452000Y476000D03*
X466000Y476000D03*
X481000Y476000D03*
X370000Y461000D03*
X388000Y461000D03*
X407000Y461000D03*
X425000Y461000D03*
X438000Y461000D03*
X452000Y461000D03*
X467000Y461000D03*
X481000Y461000D03*
X746000Y505000D03*
X759000Y505000D03*
X771000Y505000D03*
X783000Y505000D03*
X795000Y505000D03*
X808000Y505000D03*
X821000Y505000D03*
X733000Y505000D03*
X897000Y505000D03*
X885000Y505000D03*
X873000Y505000D03*
X861000Y505000D03*
X848000Y505000D03*
X834000Y505000D03*
X37000Y398000D03*
X54000Y398000D03*
X73000Y398000D03*
X92000Y398000D03*
X109000Y399000D03*
X109000Y413000D03*
X92000Y413000D03*
X73000Y413000D03*
X54000Y413000D03*
X37000Y413000D03*
X109000Y428000D03*
X92000Y428000D03*
X73000Y428000D03*
X54000Y428000D03*
X38000Y428000D03*
X72000Y444000D03*
X91000Y444000D03*
X109000Y444000D03*
X54000Y444000D03*
X37000Y444000D03*
X181000Y50000D03*
X194000Y53000D03*
X207000Y53000D03*
X221000Y53000D03*
X182000Y36000D03*
X195000Y36000D03*
X207000Y36000D03*
X223000Y36000D03*
X223000Y22000D03*
X308000Y54000D03*
X322000Y54000D03*
X309000Y39000D03*
X323000Y40000D03*
X310000Y20000D03*
X322000Y19000D03*
X235000Y54000D03*
X248000Y54000D03*
X284000Y54000D03*
X298000Y54000D03*
X410000Y160000D03*
X429000Y160000D03*
X446000Y161000D03*
X410000Y144000D03*
X429000Y144000D03*
X446000Y145000D03*
X410000Y126000D03*
X429000Y126000D03*
X446000Y127000D03*
X410000Y107000D03*
X429000Y108000D03*
X446000Y108000D03*
X410000Y90000D03*
X429000Y90000D03*
X446000Y90000D03*
X839000Y352000D03*
X681000Y374000D03*
X48000Y104000D03*
X49000Y113000D03*
X1049000Y208000D03*
X1049000Y216000D03*
X975000Y70000D03*
X984000Y70000D03*
X884000Y530000D03*
X660000Y413000D03*
X178000Y227000D03*
X433000Y286000D03*
X181000Y215000D03*
X433000Y275000D03*
M02*
