G04 EAGLE Gerber RS-274X export*
G75*
%MOMM*%
%FSLAX34Y34*%
%LPD*%
%INSoldermask Bottom*%
%IPPOS*%
%AMOC8*
5,1,8,0,0,1.08239X$1,22.5*%
G01*
%ADD10C,1.211200*%
%ADD11R,1.981200X1.981200*%
%ADD12P,2.144431X8X112.500000*%
%ADD13C,1.524000*%
%ADD14C,0.397150*%
%ADD15C,0.413300*%
%ADD16R,1.203200X1.303200*%
%ADD17C,5.537200*%
%ADD18C,1.103200*%
%ADD19R,1.727200X4.267200*%
%ADD20C,0.959600*%


D10*
X1046360Y440250D02*
X1056440Y440250D01*
X1056440Y452750D02*
X1046360Y452750D01*
X1046360Y465250D02*
X1056440Y465250D01*
X1056440Y477750D02*
X1046360Y477750D01*
X1046360Y490250D02*
X1056440Y490250D01*
X1056440Y502750D02*
X1046360Y502750D01*
X1046360Y515250D02*
X1056440Y515250D01*
X1056440Y527750D02*
X1046360Y527750D01*
D11*
X860600Y600000D03*
D12*
X886000Y600000D03*
X911400Y600000D03*
D13*
X977800Y456004D02*
X977800Y442796D01*
X952400Y442796D02*
X952400Y456004D01*
X927000Y456004D02*
X927000Y442796D01*
X901600Y442796D02*
X901600Y456004D01*
X876200Y456004D02*
X876200Y442796D01*
X850800Y442796D02*
X850800Y456004D01*
X825400Y456004D02*
X825400Y442796D01*
X800000Y442796D02*
X800000Y456004D01*
X774600Y456004D02*
X774600Y442796D01*
X749200Y442796D02*
X749200Y456004D01*
X723800Y456004D02*
X723800Y442796D01*
X698400Y442796D02*
X698400Y456004D01*
X673000Y456004D02*
X673000Y442796D01*
X647600Y442796D02*
X647600Y456004D01*
X622200Y456004D02*
X622200Y442796D01*
X977800Y176604D02*
X977800Y163396D01*
X952400Y163396D02*
X952400Y176604D01*
X927000Y176604D02*
X927000Y163396D01*
X901600Y163396D02*
X901600Y176604D01*
X876200Y176604D02*
X876200Y163396D01*
X850800Y163396D02*
X850800Y176604D01*
X825400Y176604D02*
X825400Y163396D01*
X800000Y163396D02*
X800000Y176604D01*
X774600Y176604D02*
X774600Y163396D01*
X749200Y163396D02*
X749200Y176604D01*
X723800Y176604D02*
X723800Y163396D01*
X698400Y163396D02*
X698400Y176604D01*
X673000Y176604D02*
X673000Y163396D01*
X647600Y163396D02*
X647600Y176604D01*
X622200Y176604D02*
X622200Y163396D01*
D14*
X891770Y302170D02*
X891770Y309230D01*
X904330Y309230D01*
X904330Y302170D01*
X891770Y302170D01*
X891770Y305943D02*
X904330Y305943D01*
X891770Y325170D02*
X891770Y332230D01*
X904330Y332230D01*
X904330Y325170D01*
X891770Y325170D01*
X891770Y328943D02*
X904330Y328943D01*
X891770Y348170D02*
X891770Y355230D01*
X904330Y355230D01*
X904330Y348170D01*
X891770Y348170D01*
X891770Y351943D02*
X904330Y351943D01*
D15*
X953350Y343400D02*
X953350Y314000D01*
X953350Y343400D02*
X965750Y343400D01*
X965750Y314000D01*
X953350Y314000D01*
X953350Y317926D02*
X965750Y317926D01*
X965750Y321852D02*
X953350Y321852D01*
X953350Y325778D02*
X965750Y325778D01*
X965750Y329704D02*
X953350Y329704D01*
X953350Y333630D02*
X965750Y333630D01*
X965750Y337556D02*
X953350Y337556D01*
X953350Y341482D02*
X965750Y341482D01*
D16*
X855200Y329800D03*
X855200Y312800D03*
D17*
X1060000Y40000D03*
X1060000Y600000D03*
X40000Y600000D03*
X40000Y40000D03*
D18*
X862000Y20000D03*
X892000Y20000D03*
X706000Y20000D03*
X736000Y20000D03*
D19*
X242600Y25320D03*
X293400Y25320D03*
D20*
X768000Y237000D03*
X791000Y237000D03*
X818000Y237000D03*
X848000Y237000D03*
X872000Y236000D03*
X893000Y235000D03*
X915000Y235000D03*
X938000Y235000D03*
X939000Y215000D03*
X916000Y216000D03*
X894000Y216000D03*
X873000Y217000D03*
X850000Y218000D03*
X820000Y218000D03*
X792000Y218000D03*
X770000Y218000D03*
X921000Y306000D03*
X936000Y307000D03*
X958000Y301000D03*
X972000Y304000D03*
X921000Y289000D03*
X943000Y289000D03*
X961000Y290000D03*
X1001000Y42000D03*
X986000Y42000D03*
X987000Y27000D03*
X1001000Y28000D03*
X602000Y85000D03*
X613000Y85000D03*
X624000Y85000D03*
X635000Y85000D03*
X646000Y85000D03*
X602000Y73000D03*
X616000Y73000D03*
X631000Y73000D03*
X646000Y73000D03*
X369000Y493000D03*
X387000Y493000D03*
X407000Y493000D03*
X424000Y493000D03*
X438000Y493000D03*
X452000Y493000D03*
X466000Y493000D03*
X481000Y493000D03*
X369000Y476000D03*
X387000Y476000D03*
X407000Y476000D03*
X424000Y476000D03*
X438000Y476000D03*
X452000Y476000D03*
X466000Y476000D03*
X481000Y476000D03*
X370000Y461000D03*
X388000Y461000D03*
X407000Y461000D03*
X425000Y461000D03*
X438000Y461000D03*
X452000Y461000D03*
X467000Y461000D03*
X481000Y461000D03*
X746000Y505000D03*
X759000Y505000D03*
X771000Y505000D03*
X783000Y505000D03*
X795000Y505000D03*
X808000Y505000D03*
X821000Y505000D03*
X733000Y505000D03*
X897000Y505000D03*
X885000Y505000D03*
X873000Y505000D03*
X861000Y505000D03*
X848000Y505000D03*
X834000Y505000D03*
X37000Y398000D03*
X54000Y398000D03*
X73000Y398000D03*
X92000Y398000D03*
X109000Y399000D03*
X109000Y413000D03*
X92000Y413000D03*
X73000Y413000D03*
X54000Y413000D03*
X37000Y413000D03*
X109000Y428000D03*
X92000Y428000D03*
X73000Y428000D03*
X54000Y428000D03*
X38000Y428000D03*
X72000Y444000D03*
X91000Y444000D03*
X109000Y444000D03*
X54000Y444000D03*
X37000Y444000D03*
X181000Y50000D03*
X194000Y53000D03*
X207000Y53000D03*
X221000Y53000D03*
X182000Y36000D03*
X195000Y36000D03*
X207000Y36000D03*
X223000Y36000D03*
X223000Y22000D03*
X308000Y54000D03*
X322000Y54000D03*
X309000Y39000D03*
X323000Y40000D03*
X310000Y20000D03*
X322000Y19000D03*
X235000Y54000D03*
X248000Y54000D03*
X284000Y54000D03*
X298000Y54000D03*
X410000Y160000D03*
X429000Y160000D03*
X446000Y161000D03*
X410000Y144000D03*
X429000Y144000D03*
X446000Y145000D03*
X410000Y126000D03*
X429000Y126000D03*
X446000Y127000D03*
X410000Y107000D03*
X429000Y108000D03*
X446000Y108000D03*
X410000Y90000D03*
X429000Y90000D03*
X446000Y90000D03*
X839000Y352000D03*
X681000Y374000D03*
X48000Y104000D03*
X49000Y113000D03*
X1049000Y208000D03*
X1049000Y216000D03*
X975000Y70000D03*
X984000Y70000D03*
X1021000Y507000D03*
X660000Y413000D03*
X178000Y227000D03*
X433000Y286000D03*
X181000Y215000D03*
X433000Y275000D03*
M02*
