G04 EAGLE Gerber RS-274X export*
G75*
%MOMM*%
%FSLAX34Y34*%
%LPD*%
%INBottom Copper*%
%IPPOS*%
%AMOC8*
5,1,8,0,0,1.08239X$1,22.5*%
G01*
%ADD10C,1.008000*%
%ADD11R,1.778000X1.778000*%
%ADD12P,1.924489X8X22.500000*%
%ADD13C,1.320800*%
%ADD14C,0.198000*%
%ADD15C,0.203000*%
%ADD16R,1.000000X1.100000*%
%ADD17C,5.334000*%
%ADD18R,1.524000X4.064000*%
%ADD19C,0.756400*%
%ADD20C,0.400000*%
%ADD21C,0.600000*%
%ADD22C,1.200000*%
%ADD23C,0.300000*%

G36*
X230470Y3004D02*
X230470Y3004D01*
X230500Y3002D01*
X230669Y3024D01*
X230837Y3041D01*
X230866Y3050D01*
X230896Y3054D01*
X231057Y3109D01*
X231219Y3159D01*
X231246Y3173D01*
X231274Y3183D01*
X231420Y3269D01*
X231569Y3350D01*
X231593Y3370D01*
X231619Y3385D01*
X231745Y3498D01*
X231875Y3608D01*
X231894Y3631D01*
X231916Y3652D01*
X232017Y3788D01*
X232123Y3921D01*
X232137Y3948D01*
X232155Y3972D01*
X232227Y4125D01*
X232304Y4277D01*
X232312Y4306D01*
X232325Y4333D01*
X232365Y4499D01*
X232410Y4662D01*
X232413Y4692D01*
X232420Y4721D01*
X232439Y5000D01*
X232439Y21511D01*
X240790Y21511D01*
X240820Y21514D01*
X240850Y21512D01*
X241019Y21534D01*
X241187Y21551D01*
X241216Y21560D01*
X241246Y21563D01*
X241407Y21618D01*
X241569Y21669D01*
X241595Y21683D01*
X241624Y21693D01*
X241770Y21779D01*
X241919Y21860D01*
X241942Y21880D01*
X241969Y21895D01*
X242095Y22008D01*
X242225Y22118D01*
X242243Y22141D01*
X242266Y22162D01*
X242367Y22298D01*
X242473Y22431D01*
X242487Y22458D01*
X242505Y22482D01*
X242577Y22635D01*
X242595Y22672D01*
X242679Y22530D01*
X242761Y22380D01*
X242780Y22357D01*
X242795Y22331D01*
X242909Y22205D01*
X243018Y22075D01*
X243042Y22056D01*
X243062Y22034D01*
X243198Y21933D01*
X243331Y21827D01*
X243358Y21813D01*
X243382Y21795D01*
X243536Y21723D01*
X243687Y21646D01*
X243716Y21638D01*
X243744Y21625D01*
X243909Y21585D01*
X244072Y21540D01*
X244102Y21537D01*
X244132Y21530D01*
X244410Y21511D01*
X252761Y21511D01*
X252761Y5000D01*
X252764Y4970D01*
X252762Y4940D01*
X252784Y4771D01*
X252801Y4603D01*
X252810Y4574D01*
X252814Y4544D01*
X252869Y4383D01*
X252919Y4221D01*
X252933Y4194D01*
X252943Y4166D01*
X253029Y4020D01*
X253110Y3871D01*
X253130Y3847D01*
X253145Y3821D01*
X253258Y3695D01*
X253368Y3565D01*
X253391Y3546D01*
X253412Y3524D01*
X253548Y3423D01*
X253681Y3317D01*
X253708Y3303D01*
X253732Y3285D01*
X253885Y3213D01*
X254037Y3136D01*
X254066Y3128D01*
X254093Y3115D01*
X254259Y3075D01*
X254422Y3030D01*
X254452Y3027D01*
X254481Y3020D01*
X254760Y3001D01*
X281240Y3001D01*
X281270Y3004D01*
X281300Y3002D01*
X281469Y3024D01*
X281637Y3041D01*
X281666Y3050D01*
X281696Y3054D01*
X281857Y3109D01*
X282019Y3159D01*
X282046Y3173D01*
X282074Y3183D01*
X282220Y3269D01*
X282369Y3350D01*
X282393Y3370D01*
X282419Y3385D01*
X282545Y3498D01*
X282675Y3608D01*
X282694Y3631D01*
X282716Y3652D01*
X282817Y3788D01*
X282923Y3921D01*
X282937Y3948D01*
X282955Y3972D01*
X283027Y4125D01*
X283104Y4277D01*
X283112Y4306D01*
X283125Y4333D01*
X283165Y4499D01*
X283210Y4662D01*
X283213Y4692D01*
X283220Y4721D01*
X283239Y5000D01*
X283239Y21511D01*
X291590Y21511D01*
X291620Y21514D01*
X291650Y21512D01*
X291819Y21534D01*
X291987Y21551D01*
X292016Y21560D01*
X292046Y21563D01*
X292207Y21618D01*
X292369Y21669D01*
X292395Y21683D01*
X292424Y21693D01*
X292570Y21779D01*
X292719Y21860D01*
X292742Y21880D01*
X292769Y21895D01*
X292895Y22008D01*
X293025Y22118D01*
X293043Y22141D01*
X293066Y22162D01*
X293167Y22298D01*
X293273Y22431D01*
X293287Y22458D01*
X293305Y22482D01*
X293377Y22635D01*
X293395Y22672D01*
X293479Y22530D01*
X293561Y22380D01*
X293580Y22357D01*
X293595Y22331D01*
X293709Y22205D01*
X293818Y22075D01*
X293842Y22056D01*
X293862Y22034D01*
X293998Y21933D01*
X294131Y21827D01*
X294158Y21813D01*
X294182Y21795D01*
X294336Y21723D01*
X294487Y21646D01*
X294516Y21638D01*
X294544Y21625D01*
X294709Y21585D01*
X294872Y21540D01*
X294902Y21537D01*
X294932Y21530D01*
X295210Y21511D01*
X303561Y21511D01*
X303561Y5000D01*
X303564Y4970D01*
X303562Y4940D01*
X303584Y4771D01*
X303601Y4603D01*
X303610Y4574D01*
X303614Y4544D01*
X303669Y4383D01*
X303719Y4221D01*
X303733Y4194D01*
X303743Y4166D01*
X303829Y4020D01*
X303910Y3871D01*
X303930Y3847D01*
X303945Y3821D01*
X304058Y3695D01*
X304168Y3565D01*
X304191Y3546D01*
X304212Y3524D01*
X304348Y3423D01*
X304481Y3317D01*
X304508Y3303D01*
X304532Y3285D01*
X304685Y3213D01*
X304837Y3136D01*
X304866Y3128D01*
X304893Y3115D01*
X305059Y3075D01*
X305222Y3030D01*
X305252Y3027D01*
X305281Y3020D01*
X305560Y3001D01*
X1095000Y3001D01*
X1095030Y3004D01*
X1095060Y3002D01*
X1095229Y3024D01*
X1095397Y3041D01*
X1095426Y3050D01*
X1095456Y3054D01*
X1095617Y3109D01*
X1095779Y3159D01*
X1095806Y3173D01*
X1095834Y3183D01*
X1095980Y3269D01*
X1096129Y3350D01*
X1096153Y3370D01*
X1096179Y3385D01*
X1096305Y3498D01*
X1096435Y3608D01*
X1096454Y3631D01*
X1096476Y3652D01*
X1096577Y3788D01*
X1096683Y3921D01*
X1096697Y3948D01*
X1096715Y3972D01*
X1096787Y4125D01*
X1096864Y4277D01*
X1096872Y4306D01*
X1096885Y4333D01*
X1096925Y4499D01*
X1096970Y4662D01*
X1096973Y4692D01*
X1096980Y4721D01*
X1096999Y5000D01*
X1096999Y635000D01*
X1096996Y635030D01*
X1096998Y635060D01*
X1096976Y635229D01*
X1096959Y635397D01*
X1096950Y635426D01*
X1096946Y635456D01*
X1096891Y635617D01*
X1096841Y635779D01*
X1096827Y635806D01*
X1096817Y635834D01*
X1096731Y635980D01*
X1096650Y636129D01*
X1096630Y636153D01*
X1096615Y636179D01*
X1096502Y636305D01*
X1096392Y636435D01*
X1096369Y636454D01*
X1096348Y636476D01*
X1096212Y636577D01*
X1096079Y636683D01*
X1096052Y636697D01*
X1096028Y636715D01*
X1095875Y636787D01*
X1095723Y636864D01*
X1095694Y636872D01*
X1095667Y636885D01*
X1095501Y636925D01*
X1095338Y636970D01*
X1095308Y636973D01*
X1095279Y636980D01*
X1095000Y636999D01*
X5000Y636999D01*
X4970Y636996D01*
X4940Y636998D01*
X4771Y636976D01*
X4603Y636959D01*
X4574Y636950D01*
X4544Y636946D01*
X4383Y636891D01*
X4221Y636841D01*
X4194Y636827D01*
X4166Y636817D01*
X4020Y636731D01*
X3871Y636650D01*
X3847Y636630D01*
X3821Y636615D01*
X3695Y636502D01*
X3565Y636392D01*
X3546Y636369D01*
X3524Y636348D01*
X3423Y636212D01*
X3317Y636079D01*
X3303Y636052D01*
X3285Y636028D01*
X3213Y635875D01*
X3136Y635723D01*
X3128Y635694D01*
X3115Y635667D01*
X3075Y635501D01*
X3030Y635338D01*
X3027Y635308D01*
X3020Y635279D01*
X3001Y635000D01*
X3001Y5000D01*
X3004Y4970D01*
X3002Y4940D01*
X3024Y4771D01*
X3041Y4603D01*
X3050Y4574D01*
X3054Y4544D01*
X3109Y4383D01*
X3159Y4221D01*
X3173Y4194D01*
X3183Y4166D01*
X3269Y4020D01*
X3350Y3871D01*
X3370Y3847D01*
X3385Y3821D01*
X3498Y3695D01*
X3608Y3565D01*
X3631Y3546D01*
X3652Y3524D01*
X3788Y3423D01*
X3921Y3317D01*
X3948Y3303D01*
X3972Y3285D01*
X4125Y3213D01*
X4277Y3136D01*
X4306Y3128D01*
X4333Y3115D01*
X4499Y3075D01*
X4662Y3030D01*
X4692Y3027D01*
X4721Y3020D01*
X5000Y3001D01*
X230440Y3001D01*
X230470Y3004D01*
G37*
%LPC*%
G36*
X46210Y94999D02*
X46210Y94999D01*
X42902Y96370D01*
X40370Y98902D01*
X38999Y102210D01*
X38999Y113790D01*
X40370Y117098D01*
X56902Y133630D01*
X60210Y135001D01*
X75444Y135001D01*
X75489Y135005D01*
X75534Y135003D01*
X75687Y135025D01*
X75841Y135041D01*
X75884Y135054D01*
X75929Y135061D01*
X76075Y135113D01*
X76223Y135159D01*
X76262Y135180D01*
X76305Y135196D01*
X76437Y135276D01*
X76573Y135350D01*
X76608Y135380D01*
X76647Y135403D01*
X76857Y135586D01*
X80414Y139143D01*
X80442Y139178D01*
X80476Y139208D01*
X80568Y139332D01*
X80667Y139452D01*
X80688Y139492D01*
X80715Y139528D01*
X80781Y139668D01*
X80853Y139805D01*
X80866Y139849D01*
X80885Y139890D01*
X80922Y140040D01*
X80965Y140189D01*
X80969Y140234D01*
X80980Y140278D01*
X80999Y140556D01*
X80999Y269790D01*
X82370Y273098D01*
X167902Y358630D01*
X171210Y360001D01*
X378790Y360001D01*
X382098Y358630D01*
X419143Y321586D01*
X419178Y321558D01*
X419208Y321524D01*
X419332Y321432D01*
X419452Y321333D01*
X419492Y321312D01*
X419528Y321285D01*
X419668Y321219D01*
X419805Y321147D01*
X419849Y321134D01*
X419890Y321115D01*
X420040Y321078D01*
X420189Y321035D01*
X420234Y321031D01*
X420278Y321020D01*
X420556Y321001D01*
X616790Y321001D01*
X620098Y319630D01*
X657143Y282586D01*
X657178Y282558D01*
X657208Y282524D01*
X657332Y282432D01*
X657452Y282333D01*
X657492Y282312D01*
X657528Y282285D01*
X657668Y282219D01*
X657805Y282147D01*
X657849Y282134D01*
X657890Y282115D01*
X658040Y282078D01*
X658189Y282035D01*
X658234Y282031D01*
X658278Y282020D01*
X658556Y282001D01*
X796751Y282001D01*
X796773Y282003D01*
X796796Y282001D01*
X796972Y282023D01*
X797148Y282041D01*
X797170Y282047D01*
X797192Y282050D01*
X797360Y282106D01*
X797530Y282159D01*
X797550Y282170D01*
X797571Y282177D01*
X797724Y282265D01*
X797880Y282350D01*
X797897Y282365D01*
X797917Y282376D01*
X798050Y282494D01*
X798185Y282608D01*
X798199Y282626D01*
X798217Y282641D01*
X798324Y282782D01*
X798434Y282921D01*
X798444Y282941D01*
X798458Y282959D01*
X798534Y283119D01*
X798614Y283277D01*
X798621Y283299D01*
X798630Y283319D01*
X798674Y283491D01*
X798721Y283662D01*
X798723Y283684D01*
X798728Y283707D01*
X798737Y283884D01*
X798749Y284060D01*
X798746Y284083D01*
X798747Y284106D01*
X798720Y284281D01*
X798697Y284456D01*
X798690Y284478D01*
X798686Y284500D01*
X798598Y284765D01*
X797999Y286210D01*
X797999Y316790D01*
X799370Y320098D01*
X802182Y322911D01*
X802183Y322912D01*
X816702Y337430D01*
X820010Y338801D01*
X836871Y338801D01*
X836878Y338801D01*
X836886Y338801D01*
X837076Y338821D01*
X837268Y338841D01*
X837275Y338843D01*
X837283Y338844D01*
X837465Y338902D01*
X837650Y338959D01*
X837656Y338962D01*
X837664Y338965D01*
X837830Y339057D01*
X838000Y339150D01*
X838006Y339155D01*
X838013Y339159D01*
X838157Y339283D01*
X838306Y339408D01*
X838310Y339414D01*
X838316Y339419D01*
X838434Y339569D01*
X838554Y339721D01*
X838557Y339728D01*
X838562Y339734D01*
X838647Y339905D01*
X838735Y340077D01*
X838737Y340084D01*
X838737Y340085D01*
X838750Y340047D01*
X838812Y339866D01*
X838816Y339859D01*
X838819Y339852D01*
X838919Y339685D01*
X839014Y339521D01*
X839020Y339516D01*
X839023Y339509D01*
X839152Y339367D01*
X839281Y339224D01*
X839287Y339219D01*
X839292Y339214D01*
X839447Y339100D01*
X839601Y338985D01*
X839608Y338982D01*
X839614Y338978D01*
X839864Y338853D01*
X843299Y337430D01*
X844343Y336386D01*
X844378Y336358D01*
X844408Y336324D01*
X844532Y336231D01*
X844652Y336134D01*
X844692Y336112D01*
X844728Y336085D01*
X844868Y336019D01*
X845005Y335947D01*
X845049Y335934D01*
X845090Y335915D01*
X845240Y335878D01*
X845388Y335835D01*
X845434Y335831D01*
X845478Y335820D01*
X845756Y335801D01*
X847043Y335801D01*
X847088Y335805D01*
X847134Y335803D01*
X847287Y335825D01*
X847441Y335841D01*
X847484Y335854D01*
X847529Y335861D01*
X847674Y335913D01*
X847822Y335959D01*
X847862Y335980D01*
X847905Y335996D01*
X848037Y336076D01*
X848173Y336150D01*
X848207Y336180D01*
X848246Y336203D01*
X848457Y336386D01*
X849371Y337301D01*
X861029Y337301D01*
X861887Y336443D01*
X861910Y336424D01*
X861930Y336401D01*
X862065Y336297D01*
X862196Y336190D01*
X862223Y336176D01*
X862247Y336157D01*
X862399Y336083D01*
X862549Y336004D01*
X862578Y335995D01*
X862605Y335982D01*
X862770Y335939D01*
X862932Y335891D01*
X862963Y335889D01*
X862992Y335881D01*
X863161Y335872D01*
X863330Y335858D01*
X863361Y335861D01*
X863391Y335859D01*
X863559Y335884D01*
X863727Y335903D01*
X863756Y335913D01*
X863786Y335917D01*
X863946Y335975D01*
X864107Y336027D01*
X864133Y336042D01*
X864162Y336052D01*
X864307Y336141D01*
X864454Y336224D01*
X864477Y336244D01*
X864503Y336260D01*
X864714Y336443D01*
X864901Y336630D01*
X868210Y338001D01*
X871790Y338001D01*
X872147Y337853D01*
X872198Y337838D01*
X872246Y337815D01*
X872389Y337780D01*
X872530Y337738D01*
X872582Y337733D01*
X872634Y337720D01*
X872912Y337701D01*
X887090Y337701D01*
X890398Y336330D01*
X890943Y335786D01*
X890978Y335758D01*
X891008Y335724D01*
X891132Y335632D01*
X891252Y335533D01*
X891292Y335512D01*
X891328Y335485D01*
X891468Y335419D01*
X891605Y335347D01*
X891649Y335334D01*
X891690Y335315D01*
X891840Y335278D01*
X891989Y335235D01*
X892034Y335231D01*
X892078Y335220D01*
X892356Y335201D01*
X905560Y335201D01*
X905653Y335132D01*
X905772Y335033D01*
X905813Y335012D01*
X905849Y334985D01*
X905989Y334919D01*
X906126Y334847D01*
X906169Y334834D01*
X906210Y334815D01*
X906361Y334778D01*
X906509Y334735D01*
X906554Y334731D01*
X906598Y334720D01*
X906877Y334701D01*
X908144Y334701D01*
X908189Y334705D01*
X908234Y334703D01*
X908387Y334725D01*
X908541Y334741D01*
X908584Y334754D01*
X908629Y334761D01*
X908775Y334813D01*
X908923Y334859D01*
X908962Y334880D01*
X909005Y334896D01*
X909137Y334976D01*
X909273Y335050D01*
X909308Y335080D01*
X909347Y335103D01*
X909557Y335286D01*
X910902Y336630D01*
X914210Y338001D01*
X917790Y338001D01*
X918147Y337853D01*
X918198Y337838D01*
X918246Y337815D01*
X918389Y337780D01*
X918530Y337738D01*
X918582Y337733D01*
X918634Y337720D01*
X918912Y337701D01*
X948300Y337701D01*
X948330Y337704D01*
X948360Y337702D01*
X948529Y337724D01*
X948697Y337741D01*
X948726Y337750D01*
X948756Y337754D01*
X948917Y337809D01*
X949079Y337859D01*
X949106Y337873D01*
X949134Y337883D01*
X949280Y337969D01*
X949429Y338050D01*
X949453Y338070D01*
X949479Y338085D01*
X949605Y338198D01*
X949735Y338308D01*
X949754Y338331D01*
X949776Y338352D01*
X949877Y338488D01*
X949983Y338621D01*
X949997Y338648D01*
X950015Y338672D01*
X950087Y338825D01*
X950164Y338977D01*
X950172Y339006D01*
X950185Y339033D01*
X950225Y339199D01*
X950270Y339362D01*
X950273Y339392D01*
X950280Y339421D01*
X950299Y339700D01*
X950299Y344684D01*
X952066Y346451D01*
X967034Y346451D01*
X968801Y344684D01*
X968801Y312716D01*
X967034Y310949D01*
X952066Y310949D01*
X950299Y312716D01*
X950299Y317700D01*
X950296Y317730D01*
X950298Y317760D01*
X950276Y317929D01*
X950259Y318097D01*
X950250Y318126D01*
X950246Y318156D01*
X950191Y318317D01*
X950141Y318479D01*
X950127Y318506D01*
X950117Y318534D01*
X950031Y318680D01*
X949950Y318829D01*
X949930Y318853D01*
X949915Y318879D01*
X949802Y319005D01*
X949692Y319135D01*
X949669Y319154D01*
X949648Y319176D01*
X949512Y319277D01*
X949379Y319383D01*
X949352Y319397D01*
X949328Y319415D01*
X949175Y319487D01*
X949023Y319564D01*
X948994Y319572D01*
X948967Y319585D01*
X948801Y319625D01*
X948638Y319670D01*
X948608Y319673D01*
X948579Y319680D01*
X948300Y319699D01*
X914510Y319699D01*
X911202Y321070D01*
X910157Y322114D01*
X910122Y322142D01*
X910092Y322176D01*
X909968Y322268D01*
X909848Y322367D01*
X909808Y322388D01*
X909772Y322415D01*
X909632Y322481D01*
X909495Y322553D01*
X909451Y322566D01*
X909410Y322585D01*
X909260Y322622D01*
X909111Y322665D01*
X909066Y322669D01*
X909022Y322680D01*
X908744Y322699D01*
X906877Y322699D01*
X906832Y322695D01*
X906786Y322697D01*
X906633Y322675D01*
X906479Y322659D01*
X906436Y322646D01*
X906391Y322639D01*
X906246Y322587D01*
X906098Y322541D01*
X906058Y322520D01*
X906015Y322504D01*
X905883Y322424D01*
X905747Y322350D01*
X905713Y322320D01*
X905674Y322297D01*
X905562Y322199D01*
X892356Y322199D01*
X892311Y322195D01*
X892266Y322197D01*
X892113Y322175D01*
X891959Y322159D01*
X891916Y322146D01*
X891871Y322139D01*
X891725Y322087D01*
X891577Y322041D01*
X891538Y322020D01*
X891495Y322004D01*
X891363Y321924D01*
X891227Y321850D01*
X891192Y321820D01*
X891153Y321797D01*
X890943Y321614D01*
X890398Y321070D01*
X887090Y319699D01*
X868510Y319699D01*
X865445Y320969D01*
X865364Y320993D01*
X865287Y321027D01*
X865173Y321051D01*
X865063Y321084D01*
X864979Y321092D01*
X864896Y321109D01*
X864780Y321110D01*
X864665Y321121D01*
X864581Y321112D01*
X864497Y321112D01*
X864383Y321090D01*
X864268Y321078D01*
X864187Y321052D01*
X864104Y321036D01*
X863998Y320992D01*
X863887Y320957D01*
X863813Y320916D01*
X863735Y320884D01*
X863639Y320819D01*
X863538Y320763D01*
X863474Y320708D01*
X863404Y320661D01*
X863323Y320578D01*
X863235Y320503D01*
X863183Y320436D01*
X863123Y320376D01*
X863060Y320279D01*
X862989Y320188D01*
X862951Y320113D01*
X862905Y320042D01*
X862862Y319934D01*
X862811Y319831D01*
X862789Y319749D01*
X862758Y319671D01*
X862737Y319557D01*
X862707Y319445D01*
X862702Y319361D01*
X862687Y319278D01*
X862689Y319162D01*
X862682Y319046D01*
X862694Y318962D01*
X862696Y318878D01*
X862730Y318701D01*
X862737Y318651D01*
X862741Y318640D01*
X862741Y315299D01*
X855700Y315299D01*
X855670Y315296D01*
X855640Y315298D01*
X855471Y315276D01*
X855303Y315259D01*
X855274Y315250D01*
X855244Y315246D01*
X855191Y315228D01*
X855038Y315270D01*
X855008Y315273D01*
X854978Y315280D01*
X854700Y315299D01*
X847659Y315299D01*
X847659Y318634D01*
X847832Y319281D01*
X848167Y319860D01*
X848575Y320268D01*
X848594Y320292D01*
X848617Y320311D01*
X848720Y320446D01*
X848828Y320577D01*
X848842Y320604D01*
X848860Y320628D01*
X848935Y320781D01*
X849014Y320931D01*
X849023Y320960D01*
X849036Y320987D01*
X849079Y321151D01*
X849126Y321314D01*
X849129Y321344D01*
X849137Y321373D01*
X849146Y321542D01*
X849160Y321712D01*
X849157Y321742D01*
X849159Y321772D01*
X849134Y321940D01*
X849114Y322109D01*
X849105Y322137D01*
X849101Y322167D01*
X849043Y322328D01*
X848991Y322489D01*
X848976Y322515D01*
X848965Y322543D01*
X848877Y322689D01*
X848794Y322836D01*
X848774Y322859D01*
X848758Y322885D01*
X848575Y323096D01*
X848457Y323214D01*
X848422Y323242D01*
X848391Y323276D01*
X848267Y323368D01*
X848148Y323467D01*
X848107Y323488D01*
X848071Y323515D01*
X847931Y323581D01*
X847794Y323653D01*
X847751Y323666D01*
X847710Y323685D01*
X847559Y323722D01*
X847411Y323765D01*
X847366Y323769D01*
X847322Y323780D01*
X847043Y323799D01*
X845756Y323799D01*
X845711Y323795D01*
X845666Y323797D01*
X845513Y323775D01*
X845359Y323759D01*
X845315Y323746D01*
X845271Y323739D01*
X845125Y323687D01*
X844977Y323641D01*
X844937Y323619D01*
X844895Y323604D01*
X844763Y323524D01*
X844627Y323450D01*
X844592Y323420D01*
X844553Y323397D01*
X844343Y323214D01*
X843299Y322170D01*
X839990Y320799D01*
X826356Y320799D01*
X826311Y320795D01*
X826266Y320797D01*
X826113Y320775D01*
X825959Y320759D01*
X825916Y320746D01*
X825871Y320739D01*
X825725Y320687D01*
X825577Y320641D01*
X825538Y320620D01*
X825495Y320604D01*
X825363Y320524D01*
X825227Y320450D01*
X825192Y320420D01*
X825153Y320397D01*
X824943Y320214D01*
X816586Y311857D01*
X816558Y311822D01*
X816524Y311792D01*
X816432Y311668D01*
X816333Y311548D01*
X816312Y311508D01*
X816285Y311472D01*
X816219Y311332D01*
X816147Y311195D01*
X816134Y311151D01*
X816115Y311110D01*
X816078Y310960D01*
X816035Y310812D01*
X816031Y310766D01*
X816020Y310722D01*
X816001Y310444D01*
X816001Y292556D01*
X816005Y292511D01*
X816003Y292466D01*
X816025Y292313D01*
X816041Y292159D01*
X816054Y292116D01*
X816061Y292071D01*
X816113Y291925D01*
X816159Y291777D01*
X816180Y291738D01*
X816196Y291695D01*
X816276Y291563D01*
X816350Y291427D01*
X816380Y291392D01*
X816403Y291353D01*
X816586Y291143D01*
X825143Y282586D01*
X825178Y282558D01*
X825208Y282524D01*
X825332Y282432D01*
X825452Y282333D01*
X825492Y282312D01*
X825528Y282285D01*
X825668Y282219D01*
X825805Y282147D01*
X825849Y282134D01*
X825890Y282115D01*
X826040Y282078D01*
X826189Y282035D01*
X826234Y282031D01*
X826278Y282020D01*
X826556Y282001D01*
X964444Y282001D01*
X964489Y282005D01*
X964534Y282003D01*
X964687Y282025D01*
X964841Y282041D01*
X964884Y282054D01*
X964929Y282061D01*
X965075Y282113D01*
X965223Y282159D01*
X965262Y282180D01*
X965305Y282196D01*
X965437Y282276D01*
X965573Y282350D01*
X965608Y282380D01*
X965647Y282403D01*
X965857Y282586D01*
X1003414Y320143D01*
X1003442Y320178D01*
X1003476Y320208D01*
X1003568Y320332D01*
X1003667Y320452D01*
X1003688Y320492D01*
X1003715Y320528D01*
X1003781Y320668D01*
X1003853Y320805D01*
X1003866Y320849D01*
X1003885Y320890D01*
X1003922Y321040D01*
X1003965Y321189D01*
X1003969Y321234D01*
X1003980Y321278D01*
X1003999Y321556D01*
X1003999Y380444D01*
X1003995Y380489D01*
X1003997Y380534D01*
X1003975Y380687D01*
X1003959Y380841D01*
X1003946Y380884D01*
X1003939Y380929D01*
X1003887Y381075D01*
X1003841Y381223D01*
X1003820Y381262D01*
X1003804Y381305D01*
X1003724Y381437D01*
X1003650Y381573D01*
X1003620Y381608D01*
X1003597Y381647D01*
X1003414Y381857D01*
X970170Y415102D01*
X968799Y418410D01*
X968799Y451190D01*
X969043Y451779D01*
X969058Y451830D01*
X969081Y451878D01*
X969116Y452021D01*
X969158Y452161D01*
X969163Y452214D01*
X969176Y452266D01*
X969195Y452544D01*
X969195Y457716D01*
X970505Y460878D01*
X972926Y463299D01*
X976088Y464609D01*
X979512Y464609D01*
X982674Y463299D01*
X985095Y460878D01*
X986405Y457716D01*
X986405Y452544D01*
X986410Y452491D01*
X986408Y452439D01*
X986430Y452293D01*
X986445Y452147D01*
X986460Y452096D01*
X986468Y452044D01*
X986557Y451779D01*
X986801Y451190D01*
X986801Y424756D01*
X986805Y424711D01*
X986803Y424666D01*
X986825Y424513D01*
X986841Y424359D01*
X986854Y424316D01*
X986861Y424271D01*
X986913Y424125D01*
X986959Y423977D01*
X986980Y423938D01*
X986996Y423895D01*
X987076Y423763D01*
X987150Y423627D01*
X987180Y423592D01*
X987203Y423553D01*
X987386Y423343D01*
X1020630Y390098D01*
X1022001Y386790D01*
X1022001Y315210D01*
X1020630Y311902D01*
X974098Y265370D01*
X970790Y263999D01*
X652210Y263999D01*
X648902Y265370D01*
X611857Y302414D01*
X611822Y302442D01*
X611792Y302476D01*
X611668Y302568D01*
X611548Y302667D01*
X611508Y302688D01*
X611472Y302715D01*
X611332Y302781D01*
X611195Y302853D01*
X611151Y302866D01*
X611110Y302885D01*
X610960Y302922D01*
X610811Y302965D01*
X610766Y302969D01*
X610722Y302980D01*
X610444Y302999D01*
X414210Y302999D01*
X410902Y304370D01*
X373857Y341414D01*
X373822Y341442D01*
X373792Y341476D01*
X373668Y341568D01*
X373548Y341667D01*
X373508Y341688D01*
X373472Y341715D01*
X373332Y341781D01*
X373195Y341853D01*
X373151Y341866D01*
X373110Y341885D01*
X372960Y341922D01*
X372811Y341965D01*
X372766Y341969D01*
X372722Y341980D01*
X372444Y341999D01*
X177556Y341999D01*
X177511Y341995D01*
X177466Y341997D01*
X177313Y341975D01*
X177159Y341959D01*
X177116Y341946D01*
X177071Y341939D01*
X176925Y341887D01*
X176777Y341841D01*
X176738Y341820D01*
X176695Y341804D01*
X176563Y341724D01*
X176427Y341650D01*
X176392Y341620D01*
X176353Y341597D01*
X176143Y341414D01*
X99586Y264857D01*
X99558Y264822D01*
X99524Y264792D01*
X99432Y264668D01*
X99333Y264548D01*
X99312Y264508D01*
X99285Y264472D01*
X99219Y264332D01*
X99147Y264195D01*
X99134Y264151D01*
X99115Y264110D01*
X99078Y263960D01*
X99035Y263811D01*
X99031Y263766D01*
X99020Y263722D01*
X99001Y263444D01*
X99001Y134210D01*
X97630Y130902D01*
X85098Y118370D01*
X81790Y116999D01*
X66556Y116999D01*
X66511Y116995D01*
X66466Y116997D01*
X66313Y116975D01*
X66159Y116959D01*
X66116Y116946D01*
X66071Y116939D01*
X65925Y116887D01*
X65777Y116841D01*
X65738Y116820D01*
X65695Y116804D01*
X65563Y116724D01*
X65427Y116650D01*
X65392Y116620D01*
X65353Y116597D01*
X65143Y116414D01*
X57586Y108857D01*
X57558Y108822D01*
X57524Y108792D01*
X57432Y108668D01*
X57333Y108548D01*
X57312Y108508D01*
X57285Y108472D01*
X57219Y108332D01*
X57147Y108195D01*
X57134Y108151D01*
X57115Y108110D01*
X57078Y107960D01*
X57035Y107811D01*
X57031Y107766D01*
X57020Y107722D01*
X57001Y107444D01*
X57001Y102210D01*
X55630Y98902D01*
X53098Y96370D01*
X49790Y94999D01*
X46210Y94999D01*
G37*
%LPD*%
%LPC*%
G36*
X592210Y343999D02*
X592210Y343999D01*
X588902Y345370D01*
X549370Y384902D01*
X547999Y388210D01*
X547999Y454790D01*
X549370Y458098D01*
X589902Y498630D01*
X593210Y500001D01*
X607444Y500001D01*
X607489Y500005D01*
X607534Y500003D01*
X607687Y500025D01*
X607841Y500041D01*
X607884Y500054D01*
X607929Y500061D01*
X608075Y500113D01*
X608223Y500159D01*
X608262Y500180D01*
X608305Y500196D01*
X608437Y500276D01*
X608573Y500350D01*
X608608Y500380D01*
X608647Y500403D01*
X608857Y500586D01*
X686902Y578630D01*
X690210Y580001D01*
X761790Y580001D01*
X765098Y578630D01*
X774143Y569586D01*
X774178Y569558D01*
X774208Y569524D01*
X774332Y569432D01*
X774452Y569333D01*
X774492Y569312D01*
X774528Y569285D01*
X774668Y569219D01*
X774805Y569147D01*
X774849Y569134D01*
X774890Y569115D01*
X775040Y569078D01*
X775189Y569035D01*
X775234Y569031D01*
X775278Y569020D01*
X775556Y569001D01*
X854444Y569001D01*
X854489Y569005D01*
X854534Y569003D01*
X854687Y569025D01*
X854841Y569041D01*
X854884Y569054D01*
X854929Y569061D01*
X855075Y569113D01*
X855223Y569159D01*
X855262Y569180D01*
X855305Y569196D01*
X855437Y569276D01*
X855573Y569350D01*
X855608Y569380D01*
X855647Y569403D01*
X855857Y569586D01*
X857564Y571293D01*
X857592Y571328D01*
X857626Y571358D01*
X857718Y571482D01*
X857817Y571602D01*
X857838Y571642D01*
X857865Y571678D01*
X857931Y571818D01*
X858003Y571955D01*
X858016Y571999D01*
X858035Y572040D01*
X858072Y572190D01*
X858115Y572339D01*
X858119Y572384D01*
X858130Y572428D01*
X858149Y572706D01*
X858149Y576940D01*
X859520Y580249D01*
X860401Y581130D01*
X860425Y581159D01*
X860453Y581184D01*
X860552Y581314D01*
X860654Y581439D01*
X860671Y581473D01*
X860694Y581503D01*
X860765Y581649D01*
X860840Y581793D01*
X860851Y581829D01*
X860867Y581863D01*
X860907Y582020D01*
X860953Y582176D01*
X860956Y582214D01*
X860965Y582250D01*
X860973Y582412D01*
X860986Y582574D01*
X860982Y582611D01*
X860984Y582649D01*
X860959Y582810D01*
X860941Y582971D01*
X860929Y583006D01*
X860923Y583044D01*
X860834Y583309D01*
X860109Y585060D01*
X860109Y597940D01*
X861181Y600528D01*
X863162Y602509D01*
X865750Y603581D01*
X868550Y603581D01*
X871138Y602509D01*
X871604Y602043D01*
X871628Y602023D01*
X871648Y602001D01*
X871782Y601897D01*
X871914Y601790D01*
X871940Y601776D01*
X871965Y601757D01*
X872117Y601682D01*
X872267Y601604D01*
X872296Y601595D01*
X872323Y601582D01*
X872488Y601539D01*
X872650Y601491D01*
X872680Y601489D01*
X872710Y601481D01*
X872879Y601472D01*
X873048Y601457D01*
X873079Y601461D01*
X873109Y601459D01*
X873276Y601484D01*
X873445Y601503D01*
X873474Y601513D01*
X873504Y601517D01*
X873664Y601574D01*
X873825Y601627D01*
X873851Y601642D01*
X873880Y601652D01*
X874025Y601740D01*
X874172Y601824D01*
X874195Y601844D01*
X874221Y601859D01*
X874432Y602043D01*
X874818Y602428D01*
X876059Y603258D01*
X877439Y603829D01*
X877651Y603872D01*
X877651Y591500D01*
X877651Y578922D01*
X877530Y578881D01*
X877364Y578829D01*
X877341Y578816D01*
X877316Y578808D01*
X877167Y578720D01*
X877014Y578636D01*
X876994Y578619D01*
X876971Y578606D01*
X876842Y578490D01*
X876710Y578378D01*
X876694Y578357D01*
X876674Y578339D01*
X876570Y578200D01*
X876463Y578064D01*
X876451Y578040D01*
X876435Y578019D01*
X876362Y577862D01*
X876283Y577707D01*
X876276Y577681D01*
X876265Y577657D01*
X876224Y577489D01*
X876178Y577322D01*
X876177Y577295D01*
X876170Y577269D01*
X876151Y576991D01*
X876151Y566360D01*
X874780Y563052D01*
X865643Y553914D01*
X865633Y553902D01*
X865621Y553892D01*
X865507Y553748D01*
X865390Y553604D01*
X865383Y553591D01*
X865373Y553579D01*
X865289Y553414D01*
X865203Y553251D01*
X865199Y553237D01*
X865192Y553223D01*
X865143Y553045D01*
X865091Y552868D01*
X865090Y552853D01*
X865086Y552838D01*
X865073Y552655D01*
X865057Y552470D01*
X865059Y552455D01*
X865058Y552440D01*
X865082Y552256D01*
X865103Y552073D01*
X865108Y552059D01*
X865110Y552044D01*
X865170Y551869D01*
X865227Y551693D01*
X865234Y551680D01*
X865239Y551666D01*
X865333Y551506D01*
X865424Y551346D01*
X865434Y551334D01*
X865441Y551321D01*
X865565Y551184D01*
X865686Y551044D01*
X865698Y551035D01*
X865708Y551024D01*
X865855Y550914D01*
X866003Y550801D01*
X866016Y550794D01*
X866028Y550785D01*
X866195Y550707D01*
X866361Y550625D01*
X866376Y550622D01*
X866390Y550615D01*
X866570Y550571D01*
X866748Y550525D01*
X866763Y550524D01*
X866778Y550520D01*
X867056Y550501D01*
X886308Y550501D01*
X886353Y550505D01*
X886398Y550503D01*
X886551Y550525D01*
X886705Y550541D01*
X886748Y550554D01*
X886793Y550561D01*
X886939Y550613D01*
X887087Y550659D01*
X887126Y550680D01*
X887169Y550696D01*
X887301Y550776D01*
X887437Y550850D01*
X887472Y550880D01*
X887511Y550903D01*
X887721Y551086D01*
X912064Y575429D01*
X912092Y575464D01*
X912126Y575494D01*
X912218Y575618D01*
X912317Y575738D01*
X912338Y575778D01*
X912365Y575814D01*
X912430Y575954D01*
X912503Y576091D01*
X912516Y576135D01*
X912535Y576176D01*
X912572Y576326D01*
X912615Y576475D01*
X912619Y576520D01*
X912630Y576564D01*
X912649Y576842D01*
X912649Y579676D01*
X912648Y579691D01*
X912649Y579706D01*
X912628Y579890D01*
X912609Y580073D01*
X912605Y580087D01*
X912603Y580103D01*
X912546Y580278D01*
X912491Y580455D01*
X912484Y580468D01*
X912479Y580482D01*
X912388Y580643D01*
X912300Y580805D01*
X912290Y580817D01*
X912282Y580830D01*
X912161Y580970D01*
X912042Y581110D01*
X912030Y581120D01*
X912020Y581131D01*
X911874Y581244D01*
X911729Y581359D01*
X911716Y581365D01*
X911704Y581375D01*
X911538Y581456D01*
X911373Y581539D01*
X911359Y581544D01*
X911345Y581550D01*
X911165Y581597D01*
X910988Y581646D01*
X910973Y581647D01*
X910958Y581651D01*
X910774Y581661D01*
X910590Y581674D01*
X910575Y581672D01*
X910560Y581673D01*
X910378Y581646D01*
X910194Y581622D01*
X910179Y581617D01*
X910164Y581615D01*
X909991Y581553D01*
X909816Y581492D01*
X909803Y581485D01*
X909788Y581480D01*
X909630Y581384D01*
X909471Y581290D01*
X909460Y581280D01*
X909447Y581272D01*
X909236Y581089D01*
X908638Y580491D01*
X906050Y579419D01*
X903250Y579419D01*
X900662Y580491D01*
X899814Y581339D01*
X899790Y581358D01*
X899770Y581381D01*
X899635Y581485D01*
X899504Y581592D01*
X899478Y581606D01*
X899454Y581625D01*
X899301Y581699D01*
X899151Y581778D01*
X899122Y581787D01*
X899095Y581800D01*
X898931Y581843D01*
X898768Y581891D01*
X898738Y581893D01*
X898708Y581901D01*
X898540Y581910D01*
X898370Y581925D01*
X898340Y581921D01*
X898310Y581923D01*
X898142Y581898D01*
X897973Y581879D01*
X897944Y581869D01*
X897914Y581865D01*
X897754Y581807D01*
X897593Y581755D01*
X897567Y581740D01*
X897539Y581730D01*
X897393Y581642D01*
X897246Y581558D01*
X897223Y581538D01*
X897197Y581522D01*
X896986Y581339D01*
X896138Y580491D01*
X893550Y579419D01*
X890750Y579419D01*
X888162Y580491D01*
X887696Y580957D01*
X887672Y580977D01*
X887652Y580999D01*
X887518Y581103D01*
X887386Y581210D01*
X887360Y581224D01*
X887336Y581243D01*
X887183Y581317D01*
X887033Y581396D01*
X887004Y581405D01*
X886977Y581418D01*
X886813Y581461D01*
X886650Y581509D01*
X886619Y581511D01*
X886590Y581519D01*
X886422Y581528D01*
X886252Y581543D01*
X886222Y581539D01*
X886191Y581541D01*
X886024Y581516D01*
X885855Y581497D01*
X885826Y581487D01*
X885796Y581483D01*
X885637Y581426D01*
X885475Y581373D01*
X885449Y581358D01*
X885420Y581348D01*
X885275Y581260D01*
X885128Y581176D01*
X885105Y581156D01*
X885079Y581141D01*
X884868Y580957D01*
X884482Y580572D01*
X883241Y579742D01*
X881861Y579171D01*
X881649Y579128D01*
X881649Y591500D01*
X881649Y603872D01*
X881861Y603829D01*
X883241Y603258D01*
X884482Y602428D01*
X884868Y602043D01*
X884892Y602023D01*
X884911Y602001D01*
X885046Y601897D01*
X885177Y601790D01*
X885204Y601776D01*
X885228Y601757D01*
X885380Y601683D01*
X885531Y601604D01*
X885560Y601595D01*
X885587Y601582D01*
X885752Y601539D01*
X885914Y601491D01*
X885944Y601489D01*
X885974Y601481D01*
X886143Y601472D01*
X886312Y601457D01*
X886342Y601461D01*
X886372Y601459D01*
X886540Y601484D01*
X886709Y601503D01*
X886738Y601513D01*
X886768Y601517D01*
X886927Y601574D01*
X887089Y601627D01*
X887115Y601642D01*
X887143Y601652D01*
X887289Y601740D01*
X887436Y601824D01*
X887459Y601844D01*
X887485Y601859D01*
X887696Y602043D01*
X888162Y602509D01*
X890750Y603581D01*
X893550Y603581D01*
X896138Y602509D01*
X896986Y601661D01*
X897010Y601642D01*
X897030Y601619D01*
X897164Y601515D01*
X897296Y601408D01*
X897322Y601394D01*
X897346Y601375D01*
X897499Y601301D01*
X897649Y601222D01*
X897678Y601213D01*
X897705Y601200D01*
X897870Y601157D01*
X898032Y601109D01*
X898062Y601107D01*
X898092Y601099D01*
X898261Y601090D01*
X898430Y601075D01*
X898460Y601079D01*
X898490Y601077D01*
X898658Y601102D01*
X898827Y601121D01*
X898856Y601131D01*
X898886Y601135D01*
X899045Y601192D01*
X899207Y601245D01*
X899233Y601260D01*
X899262Y601270D01*
X899407Y601359D01*
X899554Y601442D01*
X899577Y601462D01*
X899603Y601478D01*
X899814Y601661D01*
X900662Y602509D01*
X903250Y603581D01*
X906050Y603581D01*
X908638Y602509D01*
X909486Y601661D01*
X909510Y601642D01*
X909530Y601619D01*
X909664Y601515D01*
X909796Y601408D01*
X909822Y601394D01*
X909846Y601375D01*
X909999Y601301D01*
X910149Y601222D01*
X910178Y601213D01*
X910205Y601200D01*
X910370Y601157D01*
X910532Y601109D01*
X910562Y601107D01*
X910592Y601099D01*
X910761Y601090D01*
X910930Y601075D01*
X910960Y601079D01*
X910990Y601077D01*
X911158Y601102D01*
X911327Y601121D01*
X911356Y601131D01*
X911386Y601135D01*
X911545Y601192D01*
X911707Y601245D01*
X911733Y601260D01*
X911762Y601270D01*
X911907Y601359D01*
X912054Y601442D01*
X912077Y601462D01*
X912103Y601478D01*
X912314Y601661D01*
X913162Y602509D01*
X915750Y603581D01*
X918550Y603581D01*
X921138Y602509D01*
X921986Y601661D01*
X922010Y601642D01*
X922030Y601619D01*
X922164Y601515D01*
X922296Y601408D01*
X922322Y601394D01*
X922346Y601375D01*
X922499Y601301D01*
X922649Y601222D01*
X922678Y601213D01*
X922705Y601200D01*
X922870Y601157D01*
X923032Y601109D01*
X923062Y601107D01*
X923092Y601099D01*
X923261Y601090D01*
X923430Y601075D01*
X923460Y601079D01*
X923490Y601077D01*
X923658Y601102D01*
X923827Y601121D01*
X923856Y601131D01*
X923886Y601135D01*
X924045Y601192D01*
X924207Y601245D01*
X924233Y601260D01*
X924262Y601270D01*
X924407Y601359D01*
X924554Y601442D01*
X924577Y601462D01*
X924603Y601478D01*
X924814Y601661D01*
X925662Y602509D01*
X928250Y603581D01*
X931050Y603581D01*
X933638Y602509D01*
X934486Y601661D01*
X934510Y601642D01*
X934530Y601619D01*
X934664Y601515D01*
X934796Y601408D01*
X934822Y601394D01*
X934846Y601375D01*
X934999Y601301D01*
X935149Y601222D01*
X935178Y601213D01*
X935205Y601200D01*
X935370Y601157D01*
X935532Y601109D01*
X935562Y601107D01*
X935592Y601099D01*
X935761Y601090D01*
X935930Y601075D01*
X935960Y601079D01*
X935990Y601077D01*
X936158Y601102D01*
X936327Y601121D01*
X936356Y601131D01*
X936386Y601135D01*
X936545Y601192D01*
X936707Y601245D01*
X936733Y601260D01*
X936762Y601270D01*
X936907Y601359D01*
X937054Y601442D01*
X937077Y601462D01*
X937103Y601478D01*
X937314Y601661D01*
X938162Y602509D01*
X940750Y603581D01*
X943550Y603581D01*
X946138Y602509D01*
X946986Y601661D01*
X947010Y601642D01*
X947030Y601619D01*
X947164Y601515D01*
X947296Y601408D01*
X947322Y601394D01*
X947346Y601375D01*
X947499Y601301D01*
X947649Y601222D01*
X947678Y601213D01*
X947705Y601200D01*
X947870Y601157D01*
X948032Y601109D01*
X948062Y601107D01*
X948092Y601099D01*
X948261Y601090D01*
X948430Y601075D01*
X948460Y601079D01*
X948490Y601077D01*
X948658Y601102D01*
X948827Y601121D01*
X948856Y601131D01*
X948886Y601135D01*
X949045Y601192D01*
X949207Y601245D01*
X949233Y601260D01*
X949262Y601270D01*
X949407Y601359D01*
X949554Y601442D01*
X949577Y601462D01*
X949603Y601478D01*
X949814Y601661D01*
X950662Y602509D01*
X953250Y603581D01*
X956050Y603581D01*
X958638Y602509D01*
X960619Y600528D01*
X961691Y597940D01*
X961691Y585060D01*
X960619Y582472D01*
X958638Y580491D01*
X956050Y579419D01*
X953250Y579419D01*
X950662Y580491D01*
X949814Y581339D01*
X949790Y581358D01*
X949770Y581381D01*
X949635Y581485D01*
X949504Y581592D01*
X949478Y581606D01*
X949454Y581625D01*
X949301Y581699D01*
X949151Y581778D01*
X949122Y581787D01*
X949095Y581800D01*
X948931Y581843D01*
X948768Y581891D01*
X948738Y581893D01*
X948708Y581901D01*
X948540Y581910D01*
X948370Y581925D01*
X948340Y581921D01*
X948310Y581923D01*
X948142Y581898D01*
X947973Y581879D01*
X947944Y581869D01*
X947914Y581865D01*
X947754Y581807D01*
X947593Y581755D01*
X947567Y581740D01*
X947539Y581730D01*
X947393Y581642D01*
X947246Y581558D01*
X947223Y581538D01*
X947197Y581522D01*
X946986Y581339D01*
X946138Y580491D01*
X943550Y579419D01*
X940750Y579419D01*
X938162Y580491D01*
X937314Y581339D01*
X937290Y581358D01*
X937270Y581381D01*
X937135Y581485D01*
X937004Y581592D01*
X936978Y581606D01*
X936954Y581625D01*
X936801Y581699D01*
X936651Y581778D01*
X936622Y581787D01*
X936595Y581800D01*
X936431Y581843D01*
X936268Y581891D01*
X936238Y581893D01*
X936208Y581901D01*
X936040Y581910D01*
X935870Y581925D01*
X935840Y581921D01*
X935810Y581923D01*
X935642Y581898D01*
X935473Y581879D01*
X935444Y581869D01*
X935414Y581865D01*
X935254Y581807D01*
X935093Y581755D01*
X935067Y581740D01*
X935039Y581730D01*
X934893Y581642D01*
X934746Y581558D01*
X934723Y581538D01*
X934697Y581522D01*
X934486Y581339D01*
X933638Y580491D01*
X931050Y579419D01*
X928250Y579419D01*
X925662Y580491D01*
X925064Y581089D01*
X925052Y581099D01*
X925042Y581110D01*
X924897Y581225D01*
X924754Y581342D01*
X924741Y581349D01*
X924729Y581359D01*
X924564Y581442D01*
X924401Y581528D01*
X924387Y581533D01*
X924373Y581539D01*
X924196Y581589D01*
X924018Y581641D01*
X924003Y581642D01*
X923988Y581646D01*
X923805Y581659D01*
X923620Y581675D01*
X923605Y581673D01*
X923590Y581674D01*
X923406Y581650D01*
X923223Y581629D01*
X923209Y581624D01*
X923194Y581622D01*
X923018Y581562D01*
X922843Y581505D01*
X922830Y581497D01*
X922816Y581492D01*
X922656Y581399D01*
X922496Y581308D01*
X922484Y581298D01*
X922471Y581290D01*
X922333Y581167D01*
X922194Y581046D01*
X922185Y581034D01*
X922174Y581024D01*
X922063Y580875D01*
X921951Y580729D01*
X921944Y580716D01*
X921935Y580703D01*
X921857Y580537D01*
X921775Y580371D01*
X921772Y580356D01*
X921765Y580342D01*
X921721Y580163D01*
X921675Y579984D01*
X921674Y579969D01*
X921670Y579954D01*
X921651Y579676D01*
X921651Y573255D01*
X920966Y571601D01*
X891549Y542184D01*
X889895Y541499D01*
X707692Y541499D01*
X707647Y541495D01*
X707602Y541497D01*
X707449Y541475D01*
X707295Y541459D01*
X707252Y541446D01*
X707207Y541439D01*
X707061Y541387D01*
X706913Y541341D01*
X706874Y541320D01*
X706831Y541304D01*
X706699Y541224D01*
X706563Y541150D01*
X706528Y541120D01*
X706489Y541097D01*
X706279Y540914D01*
X652686Y487321D01*
X652658Y487286D01*
X652624Y487256D01*
X652532Y487132D01*
X652433Y487012D01*
X652412Y486972D01*
X652385Y486936D01*
X652319Y486796D01*
X652247Y486659D01*
X652234Y486615D01*
X652215Y486574D01*
X652178Y486424D01*
X652135Y486275D01*
X652131Y486230D01*
X652120Y486186D01*
X652101Y485908D01*
X652101Y464500D01*
X652105Y464455D01*
X652103Y464410D01*
X652125Y464257D01*
X652141Y464103D01*
X652154Y464060D01*
X652161Y464015D01*
X652213Y463869D01*
X652259Y463721D01*
X652281Y463681D01*
X652296Y463639D01*
X652376Y463507D01*
X652450Y463371D01*
X652480Y463336D01*
X652503Y463297D01*
X652686Y463087D01*
X654895Y460878D01*
X656205Y457716D01*
X656205Y441084D01*
X654895Y437922D01*
X652474Y435501D01*
X649312Y434191D01*
X645888Y434191D01*
X642726Y435501D01*
X640305Y437922D01*
X638995Y441084D01*
X638995Y457716D01*
X640305Y460878D01*
X642514Y463087D01*
X642542Y463122D01*
X642576Y463152D01*
X642668Y463276D01*
X642767Y463396D01*
X642788Y463436D01*
X642815Y463472D01*
X642881Y463612D01*
X642953Y463749D01*
X642966Y463793D01*
X642985Y463834D01*
X643022Y463984D01*
X643065Y464132D01*
X643069Y464178D01*
X643080Y464222D01*
X643099Y464500D01*
X643099Y489495D01*
X643784Y491149D01*
X645332Y492697D01*
X700903Y548268D01*
X702451Y549816D01*
X704105Y550501D01*
X762944Y550501D01*
X762959Y550502D01*
X762974Y550501D01*
X763158Y550522D01*
X763341Y550541D01*
X763356Y550545D01*
X763371Y550547D01*
X763546Y550604D01*
X763723Y550659D01*
X763736Y550666D01*
X763750Y550671D01*
X763911Y550761D01*
X764073Y550850D01*
X764085Y550860D01*
X764098Y550868D01*
X764238Y550989D01*
X764379Y551108D01*
X764388Y551120D01*
X764399Y551130D01*
X764512Y551276D01*
X764627Y551421D01*
X764634Y551434D01*
X764643Y551446D01*
X764724Y551612D01*
X764808Y551777D01*
X764812Y551792D01*
X764818Y551805D01*
X764865Y551983D01*
X764914Y552162D01*
X764915Y552177D01*
X764919Y552192D01*
X764929Y552375D01*
X764942Y552560D01*
X764940Y552575D01*
X764941Y552590D01*
X764914Y552772D01*
X764890Y552956D01*
X764885Y552971D01*
X764883Y552986D01*
X764821Y553159D01*
X764761Y553334D01*
X764753Y553347D01*
X764748Y553362D01*
X764652Y553520D01*
X764559Y553679D01*
X764548Y553690D01*
X764541Y553703D01*
X764357Y553914D01*
X763089Y555182D01*
X763088Y555183D01*
X756857Y561414D01*
X756822Y561442D01*
X756792Y561476D01*
X756668Y561568D01*
X756548Y561667D01*
X756508Y561688D01*
X756472Y561715D01*
X756332Y561781D01*
X756195Y561853D01*
X756151Y561866D01*
X756110Y561885D01*
X755960Y561922D01*
X755811Y561965D01*
X755766Y561969D01*
X755722Y561980D01*
X755444Y561999D01*
X696556Y561999D01*
X696511Y561995D01*
X696466Y561997D01*
X696313Y561975D01*
X696159Y561959D01*
X696116Y561946D01*
X696071Y561939D01*
X695925Y561887D01*
X695777Y561841D01*
X695738Y561820D01*
X695695Y561804D01*
X695563Y561724D01*
X695427Y561650D01*
X695392Y561620D01*
X695353Y561597D01*
X695143Y561414D01*
X617098Y483370D01*
X613790Y481999D01*
X599556Y481999D01*
X599511Y481995D01*
X599466Y481997D01*
X599313Y481975D01*
X599159Y481959D01*
X599116Y481946D01*
X599071Y481939D01*
X598925Y481887D01*
X598777Y481841D01*
X598738Y481820D01*
X598695Y481804D01*
X598563Y481724D01*
X598427Y481650D01*
X598392Y481620D01*
X598353Y481597D01*
X598143Y481414D01*
X566586Y449857D01*
X566558Y449822D01*
X566524Y449792D01*
X566432Y449668D01*
X566333Y449548D01*
X566312Y449508D01*
X566285Y449472D01*
X566219Y449332D01*
X566147Y449195D01*
X566134Y449151D01*
X566115Y449110D01*
X566078Y448960D01*
X566035Y448811D01*
X566031Y448766D01*
X566020Y448722D01*
X566001Y448444D01*
X566001Y394556D01*
X566005Y394511D01*
X566003Y394466D01*
X566025Y394313D01*
X566041Y394159D01*
X566054Y394116D01*
X566061Y394071D01*
X566113Y393925D01*
X566159Y393777D01*
X566180Y393738D01*
X566196Y393695D01*
X566276Y393563D01*
X566350Y393427D01*
X566380Y393392D01*
X566403Y393353D01*
X566586Y393143D01*
X597143Y362586D01*
X597178Y362558D01*
X597208Y362524D01*
X597332Y362432D01*
X597452Y362333D01*
X597492Y362312D01*
X597528Y362285D01*
X597668Y362219D01*
X597805Y362147D01*
X597849Y362134D01*
X597890Y362115D01*
X598040Y362078D01*
X598189Y362035D01*
X598234Y362031D01*
X598278Y362020D01*
X598556Y362001D01*
X600444Y362001D01*
X600489Y362005D01*
X600534Y362003D01*
X600687Y362025D01*
X600841Y362041D01*
X600884Y362054D01*
X600929Y362061D01*
X601075Y362113D01*
X601223Y362159D01*
X601262Y362180D01*
X601305Y362196D01*
X601437Y362276D01*
X601573Y362350D01*
X601608Y362380D01*
X601647Y362403D01*
X601857Y362586D01*
X635902Y396630D01*
X639210Y398001D01*
X667790Y398001D01*
X671098Y396630D01*
X688630Y379098D01*
X690001Y375790D01*
X690001Y372210D01*
X688630Y368902D01*
X686098Y366370D01*
X682790Y364999D01*
X679210Y364999D01*
X675902Y366370D01*
X662857Y379414D01*
X662822Y379442D01*
X662792Y379476D01*
X662668Y379568D01*
X662548Y379667D01*
X662508Y379688D01*
X662472Y379715D01*
X662332Y379781D01*
X662195Y379853D01*
X662151Y379866D01*
X662110Y379885D01*
X661960Y379922D01*
X661811Y379965D01*
X661766Y379969D01*
X661722Y379980D01*
X661444Y379999D01*
X645556Y379999D01*
X645511Y379995D01*
X645466Y379997D01*
X645313Y379975D01*
X645159Y379959D01*
X645116Y379946D01*
X645071Y379939D01*
X644925Y379887D01*
X644777Y379841D01*
X644738Y379820D01*
X644695Y379804D01*
X644563Y379724D01*
X644427Y379650D01*
X644392Y379620D01*
X644353Y379597D01*
X644143Y379414D01*
X610098Y345370D01*
X606790Y343999D01*
X592210Y343999D01*
G37*
%LPD*%
%LPC*%
G36*
X179651Y208217D02*
X179651Y208217D01*
X177158Y209250D01*
X175250Y211158D01*
X174217Y213651D01*
X174217Y216349D01*
X175176Y218664D01*
X175185Y218693D01*
X175198Y218720D01*
X175242Y218884D01*
X175291Y219047D01*
X175294Y219077D01*
X175302Y219106D01*
X175313Y219275D01*
X175328Y219444D01*
X175325Y219474D01*
X175327Y219505D01*
X175304Y219673D01*
X175285Y219841D01*
X175276Y219870D01*
X175272Y219900D01*
X175216Y220061D01*
X175164Y220222D01*
X175150Y220249D01*
X175140Y220277D01*
X175053Y220423D01*
X174970Y220571D01*
X174950Y220594D01*
X174935Y220620D01*
X174821Y220746D01*
X174710Y220875D01*
X174687Y220893D01*
X174666Y220916D01*
X174529Y221016D01*
X174396Y221120D01*
X174368Y221134D01*
X174344Y221152D01*
X174169Y221239D01*
X172250Y223158D01*
X171217Y225651D01*
X171217Y228349D01*
X172250Y230842D01*
X174158Y232750D01*
X176651Y233783D01*
X177590Y233783D01*
X177635Y233787D01*
X177680Y233785D01*
X177833Y233807D01*
X177987Y233823D01*
X178030Y233836D01*
X178075Y233843D01*
X178221Y233895D01*
X178369Y233941D01*
X178408Y233962D01*
X178451Y233978D01*
X178583Y234058D01*
X178719Y234132D01*
X178754Y234162D01*
X178793Y234185D01*
X179003Y234368D01*
X234451Y289816D01*
X236105Y290501D01*
X427080Y290501D01*
X427126Y290505D01*
X427171Y290503D01*
X427324Y290525D01*
X427478Y290541D01*
X427521Y290554D01*
X427566Y290561D01*
X427712Y290613D01*
X427859Y290659D01*
X427899Y290680D01*
X427942Y290696D01*
X428074Y290776D01*
X428210Y290850D01*
X428245Y290880D01*
X428283Y290903D01*
X428494Y291086D01*
X429158Y291750D01*
X431651Y292783D01*
X434349Y292783D01*
X436842Y291750D01*
X438750Y289842D01*
X439783Y287349D01*
X439783Y284651D01*
X438750Y282158D01*
X438506Y281914D01*
X438487Y281890D01*
X438464Y281870D01*
X438361Y281736D01*
X438253Y281605D01*
X438239Y281578D01*
X438221Y281554D01*
X438146Y281401D01*
X438067Y281251D01*
X438058Y281222D01*
X438045Y281195D01*
X438002Y281031D01*
X437954Y280868D01*
X437952Y280838D01*
X437944Y280808D01*
X437935Y280640D01*
X437921Y280470D01*
X437924Y280440D01*
X437922Y280410D01*
X437947Y280242D01*
X437966Y280073D01*
X437976Y280044D01*
X437980Y280014D01*
X438038Y279855D01*
X438090Y279693D01*
X438105Y279667D01*
X438115Y279639D01*
X438204Y279493D01*
X438287Y279346D01*
X438307Y279323D01*
X438323Y279297D01*
X438506Y279086D01*
X438750Y278842D01*
X439783Y276349D01*
X439783Y273651D01*
X438750Y271158D01*
X436842Y269250D01*
X434349Y268217D01*
X431651Y268217D01*
X429158Y269250D01*
X428494Y269914D01*
X428459Y269942D01*
X428429Y269976D01*
X428305Y270068D01*
X428185Y270167D01*
X428145Y270188D01*
X428108Y270215D01*
X427968Y270281D01*
X427831Y270353D01*
X427788Y270366D01*
X427747Y270385D01*
X427597Y270422D01*
X427448Y270465D01*
X427403Y270469D01*
X427359Y270480D01*
X427080Y270499D01*
X243692Y270499D01*
X243647Y270495D01*
X243602Y270497D01*
X243449Y270475D01*
X243295Y270459D01*
X243252Y270446D01*
X243207Y270439D01*
X243061Y270387D01*
X242913Y270341D01*
X242874Y270320D01*
X242831Y270304D01*
X242699Y270224D01*
X242563Y270150D01*
X242528Y270120D01*
X242489Y270097D01*
X242279Y269914D01*
X188368Y216003D01*
X188340Y215968D01*
X188306Y215938D01*
X188214Y215814D01*
X188115Y215694D01*
X188094Y215654D01*
X188067Y215618D01*
X188001Y215478D01*
X187929Y215341D01*
X187916Y215297D01*
X187897Y215256D01*
X187860Y215106D01*
X187817Y214957D01*
X187813Y214912D01*
X187802Y214868D01*
X187783Y214590D01*
X187783Y213651D01*
X186750Y211158D01*
X184842Y209250D01*
X182349Y208217D01*
X179651Y208217D01*
G37*
%LPD*%
%LPC*%
G36*
X973210Y60999D02*
X973210Y60999D01*
X969902Y62370D01*
X967370Y64902D01*
X965999Y68210D01*
X965999Y71790D01*
X967370Y75098D01*
X969902Y77630D01*
X973210Y79001D01*
X989444Y79001D01*
X989489Y79005D01*
X989534Y79003D01*
X989687Y79025D01*
X989841Y79041D01*
X989884Y79054D01*
X989929Y79061D01*
X990075Y79113D01*
X990223Y79159D01*
X990262Y79180D01*
X990305Y79196D01*
X990437Y79276D01*
X990573Y79350D01*
X990608Y79380D01*
X990647Y79403D01*
X990857Y79586D01*
X1039414Y128143D01*
X1039442Y128178D01*
X1039476Y128208D01*
X1039568Y128332D01*
X1039667Y128452D01*
X1039688Y128492D01*
X1039715Y128528D01*
X1039781Y128668D01*
X1039853Y128805D01*
X1039866Y128849D01*
X1039885Y128890D01*
X1039922Y129040D01*
X1039965Y129189D01*
X1039969Y129234D01*
X1039980Y129278D01*
X1039999Y129556D01*
X1039999Y217790D01*
X1041370Y221098D01*
X1043902Y223630D01*
X1047210Y225001D01*
X1050790Y225001D01*
X1054098Y223630D01*
X1056630Y221098D01*
X1058001Y217790D01*
X1058001Y123210D01*
X1056630Y119902D01*
X999098Y62370D01*
X995790Y60999D01*
X973210Y60999D01*
G37*
%LPD*%
%LPC*%
G36*
X671288Y434191D02*
X671288Y434191D01*
X668126Y435501D01*
X665705Y437922D01*
X664395Y441084D01*
X664395Y457716D01*
X665705Y460878D01*
X667914Y463087D01*
X667942Y463122D01*
X667976Y463152D01*
X668068Y463276D01*
X668167Y463396D01*
X668188Y463436D01*
X668215Y463472D01*
X668281Y463612D01*
X668353Y463749D01*
X668366Y463793D01*
X668385Y463834D01*
X668422Y463984D01*
X668465Y464132D01*
X668469Y464178D01*
X668480Y464222D01*
X668499Y464500D01*
X668499Y488895D01*
X669184Y490549D01*
X712451Y533816D01*
X714105Y534501D01*
X878080Y534501D01*
X878126Y534505D01*
X878171Y534503D01*
X878324Y534525D01*
X878478Y534541D01*
X878521Y534554D01*
X878566Y534561D01*
X878712Y534613D01*
X878859Y534659D01*
X878899Y534680D01*
X878942Y534696D01*
X879074Y534776D01*
X879210Y534850D01*
X879245Y534880D01*
X879283Y534903D01*
X879494Y535086D01*
X880158Y535750D01*
X882651Y536783D01*
X885349Y536783D01*
X887842Y535750D01*
X889750Y533842D01*
X890783Y531349D01*
X890783Y528651D01*
X889750Y526158D01*
X887842Y524250D01*
X885349Y523217D01*
X882651Y523217D01*
X880158Y524250D01*
X879494Y524914D01*
X879459Y524942D01*
X879429Y524976D01*
X879305Y525068D01*
X879185Y525167D01*
X879145Y525188D01*
X879108Y525215D01*
X878968Y525281D01*
X878831Y525353D01*
X878788Y525366D01*
X878747Y525385D01*
X878597Y525422D01*
X878448Y525465D01*
X878403Y525469D01*
X878359Y525480D01*
X878080Y525499D01*
X717692Y525499D01*
X717647Y525495D01*
X717602Y525497D01*
X717449Y525475D01*
X717295Y525459D01*
X717252Y525446D01*
X717207Y525439D01*
X717061Y525387D01*
X716913Y525341D01*
X716874Y525320D01*
X716831Y525304D01*
X716699Y525224D01*
X716563Y525150D01*
X716528Y525120D01*
X716489Y525097D01*
X716279Y524914D01*
X678086Y486721D01*
X678058Y486686D01*
X678024Y486656D01*
X677932Y486532D01*
X677833Y486412D01*
X677812Y486372D01*
X677785Y486336D01*
X677719Y486196D01*
X677647Y486059D01*
X677634Y486015D01*
X677615Y485974D01*
X677578Y485824D01*
X677535Y485675D01*
X677531Y485630D01*
X677520Y485586D01*
X677501Y485308D01*
X677501Y464500D01*
X677505Y464455D01*
X677503Y464410D01*
X677525Y464257D01*
X677541Y464103D01*
X677554Y464060D01*
X677561Y464015D01*
X677613Y463869D01*
X677659Y463721D01*
X677681Y463681D01*
X677696Y463639D01*
X677776Y463507D01*
X677850Y463371D01*
X677880Y463336D01*
X677903Y463297D01*
X678086Y463087D01*
X680295Y460878D01*
X681605Y457716D01*
X681605Y441084D01*
X680295Y437922D01*
X677874Y435501D01*
X674712Y434191D01*
X671288Y434191D01*
G37*
%LPD*%
%LPC*%
G36*
X838750Y341453D02*
X838750Y341453D01*
X838688Y341634D01*
X838684Y341641D01*
X838681Y341648D01*
X838582Y341813D01*
X838486Y341979D01*
X838480Y341984D01*
X838477Y341991D01*
X838348Y342133D01*
X838219Y342276D01*
X838213Y342281D01*
X838208Y342286D01*
X838053Y342400D01*
X837899Y342515D01*
X837892Y342518D01*
X837886Y342522D01*
X837636Y342647D01*
X834202Y344070D01*
X831370Y346902D01*
X829999Y350210D01*
X829999Y353790D01*
X831370Y357098D01*
X833902Y359630D01*
X837210Y361001D01*
X840790Y361001D01*
X841147Y360853D01*
X841198Y360838D01*
X841246Y360815D01*
X841389Y360780D01*
X841530Y360738D01*
X841582Y360733D01*
X841634Y360720D01*
X841912Y360701D01*
X883090Y360701D01*
X886398Y359330D01*
X887443Y358286D01*
X887478Y358258D01*
X887508Y358224D01*
X887632Y358132D01*
X887752Y358033D01*
X887792Y358012D01*
X887828Y357985D01*
X887968Y357919D01*
X888105Y357847D01*
X888149Y357834D01*
X888190Y357815D01*
X888340Y357778D01*
X888489Y357735D01*
X888534Y357731D01*
X888578Y357720D01*
X888856Y357701D01*
X889223Y357701D01*
X889268Y357705D01*
X889314Y357703D01*
X889467Y357725D01*
X889621Y357741D01*
X889664Y357754D01*
X889709Y357761D01*
X889854Y357813D01*
X890002Y357859D01*
X890042Y357880D01*
X890085Y357896D01*
X890217Y357976D01*
X890353Y358050D01*
X890387Y358080D01*
X890426Y358103D01*
X890538Y358201D01*
X905549Y358201D01*
X907301Y356449D01*
X907301Y346951D01*
X905549Y345199D01*
X890540Y345199D01*
X890447Y345268D01*
X890328Y345367D01*
X890287Y345388D01*
X890251Y345415D01*
X890111Y345481D01*
X889974Y345553D01*
X889931Y345566D01*
X889890Y345585D01*
X889739Y345622D01*
X889591Y345665D01*
X889546Y345669D01*
X889502Y345680D01*
X889223Y345699D01*
X888856Y345699D01*
X888811Y345695D01*
X888766Y345697D01*
X888613Y345675D01*
X888459Y345659D01*
X888416Y345646D01*
X888371Y345639D01*
X888225Y345587D01*
X888077Y345541D01*
X888038Y345520D01*
X887995Y345504D01*
X887863Y345424D01*
X887727Y345350D01*
X887692Y345320D01*
X887653Y345297D01*
X887443Y345114D01*
X886398Y344070D01*
X883090Y342699D01*
X840629Y342699D01*
X840622Y342699D01*
X840614Y342699D01*
X840424Y342679D01*
X840232Y342659D01*
X840225Y342657D01*
X840217Y342656D01*
X840035Y342598D01*
X839850Y342541D01*
X839844Y342538D01*
X839836Y342535D01*
X839670Y342443D01*
X839500Y342350D01*
X839494Y342345D01*
X839487Y342341D01*
X839343Y342217D01*
X839194Y342092D01*
X839190Y342086D01*
X839184Y342081D01*
X839066Y341931D01*
X838946Y341779D01*
X838943Y341772D01*
X838938Y341766D01*
X838853Y341595D01*
X838765Y341423D01*
X838763Y341416D01*
X838763Y341415D01*
X838750Y341453D01*
G37*
%LPD*%
%LPC*%
G36*
X658651Y406217D02*
X658651Y406217D01*
X656158Y407250D01*
X654250Y409158D01*
X653217Y411651D01*
X653217Y414349D01*
X654250Y416842D01*
X656158Y418750D01*
X658651Y419783D01*
X659590Y419783D01*
X659635Y419787D01*
X659680Y419785D01*
X659833Y419807D01*
X659987Y419823D01*
X660030Y419836D01*
X660075Y419843D01*
X660221Y419895D01*
X660369Y419941D01*
X660408Y419962D01*
X660451Y419978D01*
X660583Y420058D01*
X660719Y420132D01*
X660754Y420162D01*
X660793Y420185D01*
X661003Y420368D01*
X661451Y420816D01*
X663105Y421501D01*
X706308Y421501D01*
X706353Y421505D01*
X706398Y421503D01*
X706551Y421525D01*
X706705Y421541D01*
X706748Y421554D01*
X706793Y421561D01*
X706939Y421613D01*
X707087Y421659D01*
X707126Y421680D01*
X707169Y421696D01*
X707301Y421776D01*
X707437Y421850D01*
X707472Y421880D01*
X707511Y421903D01*
X707721Y422086D01*
X718617Y432982D01*
X718637Y433006D01*
X718659Y433026D01*
X718763Y433160D01*
X718870Y433292D01*
X718884Y433318D01*
X718903Y433342D01*
X718977Y433495D01*
X719056Y433645D01*
X719065Y433674D01*
X719078Y433701D01*
X719121Y433865D01*
X719169Y434028D01*
X719171Y434058D01*
X719179Y434088D01*
X719188Y434256D01*
X719203Y434426D01*
X719199Y434456D01*
X719201Y434487D01*
X719176Y434654D01*
X719157Y434823D01*
X719147Y434852D01*
X719143Y434882D01*
X719086Y435042D01*
X719033Y435203D01*
X719018Y435229D01*
X719008Y435258D01*
X718920Y435402D01*
X718836Y435550D01*
X718816Y435573D01*
X718801Y435599D01*
X718617Y435810D01*
X716505Y437922D01*
X715195Y441084D01*
X715195Y457716D01*
X716505Y460878D01*
X718926Y463299D01*
X722088Y464609D01*
X725512Y464609D01*
X728674Y463299D01*
X731095Y460878D01*
X732405Y457716D01*
X732405Y441084D01*
X731095Y437922D01*
X728886Y435713D01*
X728858Y435678D01*
X728824Y435648D01*
X728732Y435524D01*
X728633Y435404D01*
X728612Y435364D01*
X728585Y435328D01*
X728519Y435188D01*
X728447Y435051D01*
X728434Y435007D01*
X728415Y434966D01*
X728378Y434816D01*
X728335Y434668D01*
X728331Y434622D01*
X728320Y434578D01*
X728301Y434300D01*
X728301Y430905D01*
X727616Y429251D01*
X711549Y413184D01*
X709895Y412499D01*
X668470Y412499D01*
X668432Y412495D01*
X668395Y412498D01*
X668234Y412476D01*
X668073Y412459D01*
X668036Y412448D01*
X667999Y412443D01*
X667846Y412389D01*
X667691Y412341D01*
X667658Y412323D01*
X667622Y412311D01*
X667483Y412228D01*
X667341Y412150D01*
X667312Y412125D01*
X667279Y412106D01*
X667159Y411997D01*
X667035Y411892D01*
X667012Y411863D01*
X666984Y411837D01*
X666888Y411706D01*
X666787Y411579D01*
X666770Y411545D01*
X666748Y411515D01*
X666623Y411265D01*
X665750Y409158D01*
X663842Y407250D01*
X661349Y406217D01*
X658651Y406217D01*
G37*
%LPD*%
%LPC*%
G36*
X1068489Y455209D02*
X1068489Y455209D01*
X1062109Y461589D01*
X1062109Y470611D01*
X1068885Y477386D01*
X1068904Y477410D01*
X1068927Y477430D01*
X1069030Y477564D01*
X1069137Y477696D01*
X1069151Y477722D01*
X1069170Y477746D01*
X1069244Y477899D01*
X1069324Y478049D01*
X1069332Y478078D01*
X1069345Y478105D01*
X1069388Y478269D01*
X1069436Y478432D01*
X1069439Y478462D01*
X1069446Y478492D01*
X1069455Y478660D01*
X1069470Y478830D01*
X1069466Y478860D01*
X1069468Y478890D01*
X1069443Y479058D01*
X1069424Y479227D01*
X1069415Y479256D01*
X1069410Y479286D01*
X1069353Y479446D01*
X1069300Y479607D01*
X1069285Y479633D01*
X1069275Y479662D01*
X1069187Y479807D01*
X1069103Y479954D01*
X1069083Y479977D01*
X1069068Y480003D01*
X1068885Y480214D01*
X1062109Y486989D01*
X1062109Y496011D01*
X1068155Y502056D01*
X1068164Y502068D01*
X1068176Y502078D01*
X1068290Y502222D01*
X1068407Y502366D01*
X1068414Y502379D01*
X1068424Y502391D01*
X1068508Y502556D01*
X1068594Y502719D01*
X1068598Y502733D01*
X1068605Y502747D01*
X1068654Y502924D01*
X1068706Y503102D01*
X1068707Y503117D01*
X1068711Y503132D01*
X1068724Y503315D01*
X1068740Y503500D01*
X1068738Y503515D01*
X1068739Y503530D01*
X1068715Y503714D01*
X1068694Y503897D01*
X1068689Y503911D01*
X1068687Y503926D01*
X1068627Y504101D01*
X1068570Y504277D01*
X1068563Y504290D01*
X1068558Y504304D01*
X1068464Y504464D01*
X1068373Y504624D01*
X1068363Y504636D01*
X1068356Y504649D01*
X1068233Y504786D01*
X1068111Y504926D01*
X1068099Y504935D01*
X1068089Y504946D01*
X1067942Y505055D01*
X1067795Y505169D01*
X1067781Y505176D01*
X1067769Y505185D01*
X1067602Y505263D01*
X1067436Y505345D01*
X1067421Y505348D01*
X1067407Y505355D01*
X1067227Y505399D01*
X1067049Y505445D01*
X1067034Y505446D01*
X1067019Y505450D01*
X1066741Y505469D01*
X1063776Y505469D01*
X1063129Y505642D01*
X1062550Y505977D01*
X1062077Y506450D01*
X1061742Y507029D01*
X1061569Y507676D01*
X1061569Y514869D01*
X1072968Y514869D01*
X1072994Y514871D01*
X1073032Y514869D01*
X1084431Y514869D01*
X1084431Y507676D01*
X1084258Y507029D01*
X1083923Y506450D01*
X1083450Y505977D01*
X1082871Y505642D01*
X1082224Y505469D01*
X1079259Y505469D01*
X1079244Y505468D01*
X1079229Y505469D01*
X1079045Y505448D01*
X1078862Y505429D01*
X1078847Y505425D01*
X1078832Y505423D01*
X1078657Y505366D01*
X1078480Y505311D01*
X1078467Y505304D01*
X1078452Y505299D01*
X1078293Y505209D01*
X1078130Y505120D01*
X1078118Y505110D01*
X1078105Y505102D01*
X1077966Y504982D01*
X1077824Y504862D01*
X1077815Y504850D01*
X1077803Y504840D01*
X1077691Y504694D01*
X1077576Y504549D01*
X1077569Y504536D01*
X1077560Y504524D01*
X1077479Y504358D01*
X1077395Y504193D01*
X1077391Y504178D01*
X1077385Y504165D01*
X1077338Y503986D01*
X1077289Y503808D01*
X1077288Y503793D01*
X1077284Y503778D01*
X1077274Y503593D01*
X1077261Y503410D01*
X1077263Y503395D01*
X1077262Y503380D01*
X1077289Y503197D01*
X1077313Y503014D01*
X1077318Y502999D01*
X1077320Y502984D01*
X1077383Y502810D01*
X1077442Y502636D01*
X1077450Y502623D01*
X1077455Y502609D01*
X1077551Y502451D01*
X1077644Y502291D01*
X1077654Y502280D01*
X1077662Y502267D01*
X1077845Y502056D01*
X1083891Y496011D01*
X1083891Y486989D01*
X1077115Y480214D01*
X1077096Y480190D01*
X1077073Y480170D01*
X1076970Y480036D01*
X1076863Y479904D01*
X1076849Y479878D01*
X1076830Y479854D01*
X1076755Y479701D01*
X1076676Y479551D01*
X1076668Y479522D01*
X1076655Y479495D01*
X1076612Y479331D01*
X1076564Y479168D01*
X1076561Y479138D01*
X1076554Y479108D01*
X1076545Y478940D01*
X1076530Y478770D01*
X1076534Y478740D01*
X1076532Y478710D01*
X1076557Y478542D01*
X1076576Y478373D01*
X1076585Y478344D01*
X1076590Y478314D01*
X1076647Y478154D01*
X1076700Y477993D01*
X1076715Y477967D01*
X1076725Y477939D01*
X1076813Y477793D01*
X1076897Y477646D01*
X1076917Y477623D01*
X1076932Y477597D01*
X1077115Y477386D01*
X1083891Y470611D01*
X1083891Y461589D01*
X1077511Y455209D01*
X1068489Y455209D01*
G37*
%LPD*%
%LPC*%
G36*
X772888Y154791D02*
X772888Y154791D01*
X769726Y156101D01*
X767305Y158522D01*
X765995Y161684D01*
X765995Y178316D01*
X767305Y181478D01*
X769726Y183899D01*
X772888Y185209D01*
X776312Y185209D01*
X779474Y183899D01*
X781895Y181478D01*
X783205Y178316D01*
X783205Y161684D01*
X781895Y158522D01*
X779474Y156101D01*
X776312Y154791D01*
X772888Y154791D01*
G37*
%LPD*%
%LPC*%
G36*
X671288Y154791D02*
X671288Y154791D01*
X668126Y156101D01*
X665705Y158522D01*
X664395Y161684D01*
X664395Y178316D01*
X665705Y181478D01*
X668126Y183899D01*
X671288Y185209D01*
X674712Y185209D01*
X677874Y183899D01*
X680295Y181478D01*
X681605Y178316D01*
X681605Y161684D01*
X680295Y158522D01*
X677874Y156101D01*
X674712Y154791D01*
X671288Y154791D01*
G37*
%LPD*%
%LPC*%
G36*
X696688Y154791D02*
X696688Y154791D01*
X693526Y156101D01*
X691105Y158522D01*
X689795Y161684D01*
X689795Y178316D01*
X691105Y181478D01*
X693526Y183899D01*
X696688Y185209D01*
X700112Y185209D01*
X703274Y183899D01*
X705695Y181478D01*
X707005Y178316D01*
X707005Y161684D01*
X705695Y158522D01*
X703274Y156101D01*
X700112Y154791D01*
X696688Y154791D01*
G37*
%LPD*%
%LPC*%
G36*
X696688Y434191D02*
X696688Y434191D01*
X693526Y435501D01*
X691105Y437922D01*
X689795Y441084D01*
X689795Y457716D01*
X691105Y460878D01*
X693526Y463299D01*
X696688Y464609D01*
X700112Y464609D01*
X703274Y463299D01*
X705695Y460878D01*
X707005Y457716D01*
X707005Y441084D01*
X705695Y437922D01*
X703274Y435501D01*
X700112Y434191D01*
X696688Y434191D01*
G37*
%LPD*%
%LPC*%
G36*
X620488Y434191D02*
X620488Y434191D01*
X617326Y435501D01*
X614905Y437922D01*
X613595Y441084D01*
X613595Y457716D01*
X614905Y460878D01*
X617326Y463299D01*
X620488Y464609D01*
X623912Y464609D01*
X627074Y463299D01*
X629495Y460878D01*
X630805Y457716D01*
X630805Y441084D01*
X629495Y437922D01*
X627074Y435501D01*
X623912Y434191D01*
X620488Y434191D01*
G37*
%LPD*%
%LPC*%
G36*
X722088Y154791D02*
X722088Y154791D01*
X718926Y156101D01*
X716505Y158522D01*
X715195Y161684D01*
X715195Y178316D01*
X716505Y181478D01*
X718926Y183899D01*
X722088Y185209D01*
X725512Y185209D01*
X728674Y183899D01*
X731095Y181478D01*
X732405Y178316D01*
X732405Y161684D01*
X731095Y158522D01*
X728674Y156101D01*
X725512Y154791D01*
X722088Y154791D01*
G37*
%LPD*%
%LPC*%
G36*
X620488Y154791D02*
X620488Y154791D01*
X617326Y156101D01*
X614905Y158522D01*
X613595Y161684D01*
X613595Y178316D01*
X614905Y181478D01*
X617326Y183899D01*
X620488Y185209D01*
X623912Y185209D01*
X627074Y183899D01*
X629495Y181478D01*
X630805Y178316D01*
X630805Y161684D01*
X629495Y158522D01*
X627074Y156101D01*
X623912Y154791D01*
X620488Y154791D01*
G37*
%LPD*%
%LPC*%
G36*
X874488Y154791D02*
X874488Y154791D01*
X871326Y156101D01*
X868905Y158522D01*
X867595Y161684D01*
X867595Y178316D01*
X868905Y181478D01*
X871326Y183899D01*
X874488Y185209D01*
X877912Y185209D01*
X881074Y183899D01*
X883495Y181478D01*
X884805Y178316D01*
X884805Y161684D01*
X883495Y158522D01*
X881074Y156101D01*
X877912Y154791D01*
X874488Y154791D01*
G37*
%LPD*%
%LPC*%
G36*
X747488Y154791D02*
X747488Y154791D01*
X744326Y156101D01*
X741905Y158522D01*
X740595Y161684D01*
X740595Y178316D01*
X741905Y181478D01*
X744326Y183899D01*
X747488Y185209D01*
X750912Y185209D01*
X754074Y183899D01*
X756495Y181478D01*
X757805Y178316D01*
X757805Y161684D01*
X756495Y158522D01*
X754074Y156101D01*
X750912Y154791D01*
X747488Y154791D01*
G37*
%LPD*%
%LPC*%
G36*
X823688Y154791D02*
X823688Y154791D01*
X820526Y156101D01*
X818105Y158522D01*
X816795Y161684D01*
X816795Y178316D01*
X818105Y181478D01*
X820526Y183899D01*
X823688Y185209D01*
X827112Y185209D01*
X830274Y183899D01*
X832695Y181478D01*
X834005Y178316D01*
X834005Y161684D01*
X832695Y158522D01*
X830274Y156101D01*
X827112Y154791D01*
X823688Y154791D01*
G37*
%LPD*%
%LPC*%
G36*
X645888Y154791D02*
X645888Y154791D01*
X642726Y156101D01*
X640305Y158522D01*
X638995Y161684D01*
X638995Y178316D01*
X640305Y181478D01*
X642726Y183899D01*
X645888Y185209D01*
X649312Y185209D01*
X652474Y183899D01*
X654895Y181478D01*
X656205Y178316D01*
X656205Y161684D01*
X654895Y158522D01*
X652474Y156101D01*
X649312Y154791D01*
X645888Y154791D01*
G37*
%LPD*%
%LPC*%
G36*
X925288Y154791D02*
X925288Y154791D01*
X922126Y156101D01*
X919705Y158522D01*
X918395Y161684D01*
X918395Y178316D01*
X919705Y181478D01*
X922126Y183899D01*
X925288Y185209D01*
X928712Y185209D01*
X931874Y183899D01*
X934295Y181478D01*
X935605Y178316D01*
X935605Y161684D01*
X934295Y158522D01*
X931874Y156101D01*
X928712Y154791D01*
X925288Y154791D01*
G37*
%LPD*%
%LPC*%
G36*
X798288Y154791D02*
X798288Y154791D01*
X795126Y156101D01*
X792705Y158522D01*
X791395Y161684D01*
X791395Y178316D01*
X792705Y181478D01*
X795126Y183899D01*
X798288Y185209D01*
X801712Y185209D01*
X804874Y183899D01*
X807295Y181478D01*
X808605Y178316D01*
X808605Y161684D01*
X807295Y158522D01*
X804874Y156101D01*
X801712Y154791D01*
X798288Y154791D01*
G37*
%LPD*%
%LPC*%
G36*
X849088Y154791D02*
X849088Y154791D01*
X845926Y156101D01*
X843505Y158522D01*
X842195Y161684D01*
X842195Y178316D01*
X843505Y181478D01*
X845926Y183899D01*
X849088Y185209D01*
X852512Y185209D01*
X855674Y183899D01*
X858095Y181478D01*
X859405Y178316D01*
X859405Y161684D01*
X858095Y158522D01*
X855674Y156101D01*
X852512Y154791D01*
X849088Y154791D01*
G37*
%LPD*%
%LPC*%
G36*
X976088Y154791D02*
X976088Y154791D01*
X972926Y156101D01*
X970505Y158522D01*
X969195Y161684D01*
X969195Y178316D01*
X970505Y181478D01*
X972926Y183899D01*
X976088Y185209D01*
X979512Y185209D01*
X982674Y183899D01*
X985095Y181478D01*
X986405Y178316D01*
X986405Y161684D01*
X985095Y158522D01*
X982674Y156101D01*
X979512Y154791D01*
X976088Y154791D01*
G37*
%LPD*%
%LPC*%
G36*
X899888Y154791D02*
X899888Y154791D01*
X896726Y156101D01*
X894305Y158522D01*
X892995Y161684D01*
X892995Y178316D01*
X894305Y181478D01*
X896726Y183899D01*
X899888Y185209D01*
X903312Y185209D01*
X906474Y183899D01*
X908895Y181478D01*
X910205Y178316D01*
X910205Y161684D01*
X908895Y158522D01*
X906474Y156101D01*
X903312Y154791D01*
X899888Y154791D01*
G37*
%LPD*%
%LPC*%
G36*
X899888Y434191D02*
X899888Y434191D01*
X896726Y435501D01*
X894305Y437922D01*
X892995Y441084D01*
X892995Y457716D01*
X894305Y460878D01*
X896726Y463299D01*
X899888Y464609D01*
X903312Y464609D01*
X906474Y463299D01*
X908895Y460878D01*
X910205Y457716D01*
X910205Y441084D01*
X908895Y437922D01*
X906474Y435501D01*
X903312Y434191D01*
X899888Y434191D01*
G37*
%LPD*%
%LPC*%
G36*
X874488Y434191D02*
X874488Y434191D01*
X871326Y435501D01*
X868905Y437922D01*
X867595Y441084D01*
X867595Y457716D01*
X868905Y460878D01*
X871326Y463299D01*
X874488Y464609D01*
X877912Y464609D01*
X881074Y463299D01*
X883495Y460878D01*
X884805Y457716D01*
X884805Y441084D01*
X883495Y437922D01*
X881074Y435501D01*
X877912Y434191D01*
X874488Y434191D01*
G37*
%LPD*%
%LPC*%
G36*
X849088Y434191D02*
X849088Y434191D01*
X845926Y435501D01*
X843505Y437922D01*
X842195Y441084D01*
X842195Y457716D01*
X843505Y460878D01*
X845926Y463299D01*
X849088Y464609D01*
X852512Y464609D01*
X855674Y463299D01*
X858095Y460878D01*
X859405Y457716D01*
X859405Y441084D01*
X858095Y437922D01*
X855674Y435501D01*
X852512Y434191D01*
X849088Y434191D01*
G37*
%LPD*%
%LPC*%
G36*
X823688Y434191D02*
X823688Y434191D01*
X820526Y435501D01*
X818105Y437922D01*
X816795Y441084D01*
X816795Y457716D01*
X818105Y460878D01*
X820526Y463299D01*
X823688Y464609D01*
X827112Y464609D01*
X830274Y463299D01*
X832695Y460878D01*
X834005Y457716D01*
X834005Y441084D01*
X832695Y437922D01*
X830274Y435501D01*
X827112Y434191D01*
X823688Y434191D01*
G37*
%LPD*%
%LPC*%
G36*
X925288Y434191D02*
X925288Y434191D01*
X922126Y435501D01*
X919705Y437922D01*
X918395Y441084D01*
X918395Y457716D01*
X919705Y460878D01*
X922126Y463299D01*
X925288Y464609D01*
X928712Y464609D01*
X931874Y463299D01*
X934295Y460878D01*
X935605Y457716D01*
X935605Y441084D01*
X934295Y437922D01*
X931874Y435501D01*
X928712Y434191D01*
X925288Y434191D01*
G37*
%LPD*%
%LPC*%
G36*
X747488Y434191D02*
X747488Y434191D01*
X744326Y435501D01*
X741905Y437922D01*
X740595Y441084D01*
X740595Y457716D01*
X741905Y460878D01*
X744326Y463299D01*
X747488Y464609D01*
X750912Y464609D01*
X754074Y463299D01*
X756495Y460878D01*
X757805Y457716D01*
X757805Y441084D01*
X756495Y437922D01*
X754074Y435501D01*
X750912Y434191D01*
X747488Y434191D01*
G37*
%LPD*%
%LPC*%
G36*
X798288Y434191D02*
X798288Y434191D01*
X795126Y435501D01*
X792705Y437922D01*
X791395Y441084D01*
X791395Y457716D01*
X792705Y460878D01*
X795126Y463299D01*
X798288Y464609D01*
X801712Y464609D01*
X804874Y463299D01*
X807295Y460878D01*
X808605Y457716D01*
X808605Y441084D01*
X807295Y437922D01*
X804874Y435501D01*
X801712Y434191D01*
X798288Y434191D01*
G37*
%LPD*%
%LPC*%
G36*
X772888Y434191D02*
X772888Y434191D01*
X769726Y435501D01*
X767305Y437922D01*
X765995Y441084D01*
X765995Y457716D01*
X767305Y460878D01*
X769726Y463299D01*
X772888Y464609D01*
X776312Y464609D01*
X779474Y463299D01*
X781895Y460878D01*
X783205Y457716D01*
X783205Y441084D01*
X781895Y437922D01*
X779474Y435501D01*
X776312Y434191D01*
X772888Y434191D01*
G37*
%LPD*%
%LPC*%
G36*
X43999Y43999D02*
X43999Y43999D01*
X43999Y68945D01*
X44901Y68843D01*
X48099Y68113D01*
X51196Y67030D01*
X54152Y65606D01*
X56930Y63861D01*
X59495Y61815D01*
X61815Y59495D01*
X63861Y56930D01*
X65606Y54152D01*
X67030Y51196D01*
X68113Y48099D01*
X68843Y44901D01*
X68945Y43999D01*
X43999Y43999D01*
G37*
%LPD*%
%LPC*%
G36*
X1063999Y603999D02*
X1063999Y603999D01*
X1063999Y628945D01*
X1064901Y628843D01*
X1068099Y628113D01*
X1071196Y627030D01*
X1074152Y625606D01*
X1076930Y623861D01*
X1079495Y621815D01*
X1081815Y619495D01*
X1083861Y616930D01*
X1085606Y614152D01*
X1087030Y611196D01*
X1088113Y608099D01*
X1088843Y604901D01*
X1088945Y603999D01*
X1063999Y603999D01*
G37*
%LPD*%
%LPC*%
G36*
X1063999Y43999D02*
X1063999Y43999D01*
X1063999Y68945D01*
X1064901Y68843D01*
X1068099Y68113D01*
X1071196Y67030D01*
X1074152Y65606D01*
X1076930Y63861D01*
X1079495Y61815D01*
X1081815Y59495D01*
X1083861Y56930D01*
X1085606Y54152D01*
X1087030Y51196D01*
X1088113Y48099D01*
X1088843Y44901D01*
X1088945Y43999D01*
X1063999Y43999D01*
G37*
%LPD*%
%LPC*%
G36*
X43999Y603999D02*
X43999Y603999D01*
X43999Y628945D01*
X44901Y628843D01*
X48099Y628113D01*
X51196Y627030D01*
X54152Y625606D01*
X56930Y623861D01*
X59495Y621815D01*
X61815Y619495D01*
X63861Y616930D01*
X65606Y614152D01*
X67030Y611196D01*
X68113Y608099D01*
X68843Y604901D01*
X68945Y603999D01*
X43999Y603999D01*
G37*
%LPD*%
%LPC*%
G36*
X1031055Y603999D02*
X1031055Y603999D01*
X1031157Y604901D01*
X1031887Y608099D01*
X1032970Y611196D01*
X1034394Y614152D01*
X1036139Y616930D01*
X1038185Y619495D01*
X1040505Y621815D01*
X1043070Y623861D01*
X1045848Y625606D01*
X1048804Y627030D01*
X1051901Y628113D01*
X1055099Y628843D01*
X1056001Y628945D01*
X1056001Y603999D01*
X1031055Y603999D01*
G37*
%LPD*%
%LPC*%
G36*
X43999Y36001D02*
X43999Y36001D01*
X68945Y36001D01*
X68843Y35099D01*
X68113Y31901D01*
X67030Y28804D01*
X65606Y25848D01*
X63861Y23070D01*
X61815Y20505D01*
X59495Y18185D01*
X56930Y16139D01*
X54152Y14394D01*
X51196Y12970D01*
X48099Y11887D01*
X44901Y11157D01*
X43999Y11055D01*
X43999Y36001D01*
G37*
%LPD*%
%LPC*%
G36*
X11055Y603999D02*
X11055Y603999D01*
X11157Y604901D01*
X11887Y608099D01*
X12970Y611196D01*
X14394Y614152D01*
X16139Y616930D01*
X18185Y619495D01*
X20505Y621815D01*
X23070Y623861D01*
X25848Y625606D01*
X28804Y627030D01*
X31901Y628113D01*
X35099Y628843D01*
X36001Y628945D01*
X36001Y603999D01*
X11055Y603999D01*
G37*
%LPD*%
%LPC*%
G36*
X43999Y596001D02*
X43999Y596001D01*
X68945Y596001D01*
X68843Y595099D01*
X68113Y591901D01*
X67030Y588804D01*
X65606Y585848D01*
X63861Y583070D01*
X61815Y580505D01*
X59495Y578185D01*
X56930Y576139D01*
X54152Y574394D01*
X51196Y572970D01*
X48099Y571887D01*
X44901Y571157D01*
X43999Y571055D01*
X43999Y596001D01*
G37*
%LPD*%
%LPC*%
G36*
X1063999Y596001D02*
X1063999Y596001D01*
X1088945Y596001D01*
X1088843Y595099D01*
X1088113Y591901D01*
X1087030Y588804D01*
X1085606Y585848D01*
X1083861Y583070D01*
X1081815Y580505D01*
X1079495Y578185D01*
X1076930Y576139D01*
X1074152Y574394D01*
X1071196Y572970D01*
X1068099Y571887D01*
X1064901Y571157D01*
X1063999Y571055D01*
X1063999Y596001D01*
G37*
%LPD*%
%LPC*%
G36*
X1031055Y43999D02*
X1031055Y43999D01*
X1031157Y44901D01*
X1031887Y48099D01*
X1032970Y51196D01*
X1034394Y54152D01*
X1036139Y56930D01*
X1038185Y59495D01*
X1040505Y61815D01*
X1043070Y63861D01*
X1045848Y65606D01*
X1048804Y67030D01*
X1051901Y68113D01*
X1055099Y68843D01*
X1056001Y68945D01*
X1056001Y43999D01*
X1031055Y43999D01*
G37*
%LPD*%
%LPC*%
G36*
X11055Y43999D02*
X11055Y43999D01*
X11157Y44901D01*
X11887Y48099D01*
X12970Y51196D01*
X14394Y54152D01*
X16139Y56930D01*
X18185Y59495D01*
X20505Y61815D01*
X23070Y63861D01*
X25848Y65606D01*
X28804Y67030D01*
X31901Y68113D01*
X35099Y68843D01*
X36001Y68945D01*
X36001Y43999D01*
X11055Y43999D01*
G37*
%LPD*%
%LPC*%
G36*
X1063999Y36001D02*
X1063999Y36001D01*
X1088945Y36001D01*
X1088843Y35099D01*
X1088113Y31901D01*
X1087030Y28804D01*
X1085606Y25848D01*
X1083861Y23070D01*
X1081815Y20505D01*
X1079495Y18185D01*
X1076930Y16139D01*
X1074152Y14394D01*
X1071196Y12970D01*
X1068099Y11887D01*
X1064901Y11157D01*
X1063999Y11055D01*
X1063999Y36001D01*
G37*
%LPD*%
%LPC*%
G36*
X1055099Y571157D02*
X1055099Y571157D01*
X1051901Y571887D01*
X1048804Y572970D01*
X1045848Y574394D01*
X1043070Y576139D01*
X1040505Y578185D01*
X1038185Y580505D01*
X1036139Y583070D01*
X1034394Y585848D01*
X1032970Y588804D01*
X1031887Y591901D01*
X1031157Y595099D01*
X1031055Y596001D01*
X1056001Y596001D01*
X1056001Y571055D01*
X1055099Y571157D01*
G37*
%LPD*%
%LPC*%
G36*
X35099Y11157D02*
X35099Y11157D01*
X31901Y11887D01*
X28804Y12970D01*
X25848Y14394D01*
X23070Y16139D01*
X20505Y18185D01*
X18185Y20505D01*
X16139Y23070D01*
X14394Y25848D01*
X12970Y28804D01*
X11887Y31901D01*
X11157Y35099D01*
X11055Y36001D01*
X36001Y36001D01*
X36001Y11055D01*
X35099Y11157D01*
G37*
%LPD*%
%LPC*%
G36*
X35099Y571157D02*
X35099Y571157D01*
X31901Y571887D01*
X28804Y572970D01*
X25848Y574394D01*
X23070Y576139D01*
X20505Y578185D01*
X18185Y580505D01*
X16139Y583070D01*
X14394Y585848D01*
X12970Y588804D01*
X11887Y591901D01*
X11157Y595099D01*
X11055Y596001D01*
X36001Y596001D01*
X36001Y571055D01*
X35099Y571157D01*
G37*
%LPD*%
%LPC*%
G36*
X1055099Y11157D02*
X1055099Y11157D01*
X1051901Y11887D01*
X1048804Y12970D01*
X1045848Y14394D01*
X1043070Y16139D01*
X1040505Y18185D01*
X1038185Y20505D01*
X1036139Y23070D01*
X1034394Y25848D01*
X1032970Y28804D01*
X1031887Y31901D01*
X1031157Y35099D01*
X1031055Y36001D01*
X1056001Y36001D01*
X1056001Y11055D01*
X1055099Y11157D01*
G37*
%LPD*%
%LPC*%
G36*
X860508Y12499D02*
X860508Y12499D01*
X857751Y13641D01*
X855641Y15751D01*
X854499Y18508D01*
X854499Y21492D01*
X855641Y24249D01*
X857751Y26359D01*
X860508Y27501D01*
X863492Y27501D01*
X866249Y26359D01*
X868359Y24249D01*
X869501Y21492D01*
X869501Y18508D01*
X868359Y15751D01*
X866249Y13641D01*
X863492Y12499D01*
X860508Y12499D01*
G37*
%LPD*%
%LPC*%
G36*
X890508Y12499D02*
X890508Y12499D01*
X887751Y13641D01*
X885641Y15751D01*
X884499Y18508D01*
X884499Y21492D01*
X885641Y24249D01*
X887751Y26359D01*
X890508Y27501D01*
X893492Y27501D01*
X896249Y26359D01*
X898359Y24249D01*
X899501Y21492D01*
X899501Y18508D01*
X898359Y15751D01*
X896249Y13641D01*
X893492Y12499D01*
X890508Y12499D01*
G37*
%LPD*%
%LPC*%
G36*
X734508Y12499D02*
X734508Y12499D01*
X731751Y13641D01*
X729641Y15751D01*
X728499Y18508D01*
X728499Y21492D01*
X729641Y24249D01*
X731751Y26359D01*
X734508Y27501D01*
X737492Y27501D01*
X740249Y26359D01*
X742359Y24249D01*
X743501Y21492D01*
X743501Y18508D01*
X742359Y15751D01*
X740249Y13641D01*
X737492Y12499D01*
X734508Y12499D01*
G37*
%LPD*%
%LPC*%
G36*
X704508Y12499D02*
X704508Y12499D01*
X701751Y13641D01*
X699641Y15751D01*
X698499Y18508D01*
X698499Y21492D01*
X699641Y24249D01*
X701751Y26359D01*
X704508Y27501D01*
X707492Y27501D01*
X710249Y26359D01*
X712359Y24249D01*
X713501Y21492D01*
X713501Y18508D01*
X712359Y15751D01*
X710249Y13641D01*
X707492Y12499D01*
X704508Y12499D01*
G37*
%LPD*%
%LPC*%
G36*
X246409Y29129D02*
X246409Y29129D01*
X246409Y48181D01*
X250554Y48181D01*
X251201Y48008D01*
X251780Y47673D01*
X252253Y47200D01*
X252588Y46621D01*
X252761Y45974D01*
X252761Y29129D01*
X246409Y29129D01*
G37*
%LPD*%
%LPC*%
G36*
X297209Y29129D02*
X297209Y29129D01*
X297209Y48181D01*
X301354Y48181D01*
X302001Y48008D01*
X302580Y47673D01*
X303053Y47200D01*
X303388Y46621D01*
X303561Y45974D01*
X303561Y29129D01*
X297209Y29129D01*
G37*
%LPD*%
%LPC*%
G36*
X283239Y29129D02*
X283239Y29129D01*
X283239Y45974D01*
X283412Y46621D01*
X283747Y47200D01*
X284220Y47673D01*
X284799Y48008D01*
X285446Y48181D01*
X289591Y48181D01*
X289591Y29129D01*
X283239Y29129D01*
G37*
%LPD*%
%LPC*%
G36*
X232439Y29129D02*
X232439Y29129D01*
X232439Y45974D01*
X232612Y46621D01*
X232947Y47200D01*
X233420Y47673D01*
X233999Y48008D01*
X234646Y48181D01*
X238791Y48181D01*
X238791Y29129D01*
X232439Y29129D01*
G37*
%LPD*%
%LPC*%
G36*
X1075031Y518931D02*
X1075031Y518931D01*
X1075031Y528331D01*
X1082224Y528331D01*
X1082871Y528158D01*
X1083450Y527823D01*
X1083923Y527350D01*
X1084258Y526771D01*
X1084431Y526124D01*
X1084431Y518931D01*
X1075031Y518931D01*
G37*
%LPD*%
%LPC*%
G36*
X1061569Y518931D02*
X1061569Y518931D01*
X1061569Y526124D01*
X1061742Y526771D01*
X1062077Y527350D01*
X1062550Y527823D01*
X1063129Y528158D01*
X1063776Y528331D01*
X1070969Y528331D01*
X1070969Y518931D01*
X1061569Y518931D01*
G37*
%LPD*%
%LPC*%
G36*
X954431Y172031D02*
X954431Y172031D01*
X954431Y185541D01*
X954541Y185524D01*
X955910Y185079D01*
X957193Y184425D01*
X958357Y183579D01*
X959375Y182561D01*
X960221Y181397D01*
X960875Y180114D01*
X961320Y178745D01*
X961545Y177324D01*
X961545Y172031D01*
X954431Y172031D01*
G37*
%LPD*%
%LPC*%
G36*
X954431Y451431D02*
X954431Y451431D01*
X954431Y464941D01*
X954541Y464924D01*
X955910Y464479D01*
X957193Y463825D01*
X958357Y462979D01*
X959375Y461961D01*
X960221Y460797D01*
X960875Y459514D01*
X961320Y458145D01*
X961545Y456724D01*
X961545Y451431D01*
X954431Y451431D01*
G37*
%LPD*%
%LPC*%
G36*
X954431Y167969D02*
X954431Y167969D01*
X961545Y167969D01*
X961545Y162676D01*
X961320Y161255D01*
X960875Y159886D01*
X960221Y158603D01*
X959375Y157439D01*
X958357Y156421D01*
X957193Y155575D01*
X955910Y154921D01*
X954541Y154476D01*
X954431Y154459D01*
X954431Y167969D01*
G37*
%LPD*%
%LPC*%
G36*
X954431Y447369D02*
X954431Y447369D01*
X961545Y447369D01*
X961545Y442076D01*
X961320Y440655D01*
X960875Y439286D01*
X960221Y438003D01*
X959375Y436839D01*
X958357Y435821D01*
X957193Y434975D01*
X955910Y434321D01*
X954541Y433876D01*
X954431Y433859D01*
X954431Y447369D01*
G37*
%LPD*%
%LPC*%
G36*
X943255Y172031D02*
X943255Y172031D01*
X943255Y177324D01*
X943480Y178745D01*
X943925Y180114D01*
X944579Y181397D01*
X945425Y182561D01*
X946443Y183579D01*
X947607Y184425D01*
X948890Y185079D01*
X950259Y185524D01*
X950369Y185541D01*
X950369Y172031D01*
X943255Y172031D01*
G37*
%LPD*%
%LPC*%
G36*
X943255Y451431D02*
X943255Y451431D01*
X943255Y456724D01*
X943480Y458145D01*
X943925Y459514D01*
X944579Y460797D01*
X945425Y461961D01*
X946443Y462979D01*
X947607Y463825D01*
X948890Y464479D01*
X950259Y464924D01*
X950369Y464941D01*
X950369Y451431D01*
X943255Y451431D01*
G37*
%LPD*%
%LPC*%
G36*
X950259Y154476D02*
X950259Y154476D01*
X948890Y154921D01*
X947607Y155575D01*
X946443Y156421D01*
X945425Y157439D01*
X944579Y158603D01*
X943925Y159886D01*
X943480Y161255D01*
X943255Y162676D01*
X943255Y167969D01*
X950369Y167969D01*
X950369Y154459D01*
X950259Y154476D01*
G37*
%LPD*%
%LPC*%
G36*
X950259Y433876D02*
X950259Y433876D01*
X948890Y434321D01*
X947607Y434975D01*
X946443Y435821D01*
X945425Y436839D01*
X944579Y438003D01*
X943925Y439286D01*
X943480Y440655D01*
X943255Y442076D01*
X943255Y447369D01*
X950369Y447369D01*
X950369Y433859D01*
X950259Y433876D01*
G37*
%LPD*%
%LPC*%
G36*
X900299Y307949D02*
X900299Y307949D01*
X900299Y312741D01*
X904775Y312741D01*
X905673Y312500D01*
X906478Y312035D01*
X907135Y311378D01*
X907600Y310573D01*
X907841Y309675D01*
X907841Y307949D01*
X900299Y307949D01*
G37*
%LPD*%
%LPC*%
G36*
X888259Y307949D02*
X888259Y307949D01*
X888259Y309675D01*
X888500Y310573D01*
X888965Y311378D01*
X889622Y312035D01*
X890427Y312500D01*
X891325Y312741D01*
X895801Y312741D01*
X895801Y307949D01*
X888259Y307949D01*
G37*
%LPD*%
%LPC*%
G36*
X900299Y298659D02*
X900299Y298659D01*
X900299Y303451D01*
X907841Y303451D01*
X907841Y301725D01*
X907600Y300827D01*
X907135Y300022D01*
X906478Y299365D01*
X905673Y298900D01*
X904775Y298659D01*
X900299Y298659D01*
G37*
%LPD*%
%LPC*%
G36*
X891325Y298659D02*
X891325Y298659D01*
X890427Y298900D01*
X889622Y299365D01*
X888965Y300022D01*
X888500Y300827D01*
X888259Y301725D01*
X888259Y303451D01*
X895801Y303451D01*
X895801Y298659D01*
X891325Y298659D01*
G37*
%LPD*%
%LPC*%
G36*
X857699Y304759D02*
X857699Y304759D01*
X857699Y310301D01*
X862741Y310301D01*
X862741Y306966D01*
X862568Y306319D01*
X862233Y305740D01*
X861760Y305267D01*
X861181Y304932D01*
X860534Y304759D01*
X857699Y304759D01*
G37*
%LPD*%
%LPC*%
G36*
X849866Y304759D02*
X849866Y304759D01*
X849219Y304932D01*
X848640Y305267D01*
X848167Y305740D01*
X847832Y306319D01*
X847659Y306966D01*
X847659Y310301D01*
X852701Y310301D01*
X852701Y304759D01*
X849866Y304759D01*
G37*
%LPD*%
%LPC*%
G36*
X1059999Y39999D02*
X1059999Y39999D01*
X1059999Y40001D01*
X1060001Y40001D01*
X1060001Y39999D01*
X1059999Y39999D01*
G37*
%LPD*%
%LPC*%
G36*
X39999Y39999D02*
X39999Y39999D01*
X39999Y40001D01*
X40001Y40001D01*
X40001Y39999D01*
X39999Y39999D01*
G37*
%LPD*%
%LPC*%
G36*
X1059999Y599999D02*
X1059999Y599999D01*
X1059999Y600001D01*
X1060001Y600001D01*
X1060001Y599999D01*
X1059999Y599999D01*
G37*
%LPD*%
%LPC*%
G36*
X39999Y599999D02*
X39999Y599999D01*
X39999Y600001D01*
X40001Y600001D01*
X40001Y599999D01*
X39999Y599999D01*
G37*
%LPD*%
D10*
X954650Y586460D02*
X954650Y596540D01*
X942150Y596540D02*
X942150Y586460D01*
X929650Y586460D02*
X929650Y596540D01*
X917150Y596540D02*
X917150Y586460D01*
X904650Y586460D02*
X904650Y596540D01*
X892150Y596540D02*
X892150Y586460D01*
X879650Y586460D02*
X879650Y596540D01*
X867150Y596540D02*
X867150Y586460D01*
D11*
X1073000Y516900D03*
D12*
X1073000Y491500D03*
X1073000Y466100D03*
D13*
X977800Y456004D02*
X977800Y442796D01*
X952400Y442796D02*
X952400Y456004D01*
X927000Y456004D02*
X927000Y442796D01*
X901600Y442796D02*
X901600Y456004D01*
X876200Y456004D02*
X876200Y442796D01*
X850800Y442796D02*
X850800Y456004D01*
X825400Y456004D02*
X825400Y442796D01*
X800000Y442796D02*
X800000Y456004D01*
X774600Y456004D02*
X774600Y442796D01*
X749200Y442796D02*
X749200Y456004D01*
X723800Y456004D02*
X723800Y442796D01*
X698400Y442796D02*
X698400Y456004D01*
X673000Y456004D02*
X673000Y442796D01*
X647600Y442796D02*
X647600Y456004D01*
X622200Y456004D02*
X622200Y442796D01*
X977800Y176604D02*
X977800Y163396D01*
X952400Y163396D02*
X952400Y176604D01*
X927000Y176604D02*
X927000Y163396D01*
X901600Y163396D02*
X901600Y176604D01*
X876200Y176604D02*
X876200Y163396D01*
X850800Y163396D02*
X850800Y176604D01*
X825400Y176604D02*
X825400Y163396D01*
X800000Y163396D02*
X800000Y176604D01*
X774600Y176604D02*
X774600Y163396D01*
X749200Y163396D02*
X749200Y176604D01*
X723800Y176604D02*
X723800Y163396D01*
X698400Y163396D02*
X698400Y176604D01*
X673000Y176604D02*
X673000Y163396D01*
X647600Y163396D02*
X647600Y176604D01*
X622200Y176604D02*
X622200Y163396D01*
D14*
X891790Y302190D02*
X891790Y309210D01*
X904310Y309210D01*
X904310Y302190D01*
X891790Y302190D01*
X891790Y304071D02*
X904310Y304071D01*
X904310Y305952D02*
X891790Y305952D01*
X891790Y307833D02*
X904310Y307833D01*
X891790Y325190D02*
X891790Y332210D01*
X904310Y332210D01*
X904310Y325190D01*
X891790Y325190D01*
X891790Y327071D02*
X904310Y327071D01*
X904310Y328952D02*
X891790Y328952D01*
X891790Y330833D02*
X904310Y330833D01*
X891790Y348190D02*
X891790Y355210D01*
X904310Y355210D01*
X904310Y348190D01*
X891790Y348190D01*
X891790Y350071D02*
X904310Y350071D01*
X904310Y351952D02*
X891790Y351952D01*
X891790Y353833D02*
X904310Y353833D01*
D15*
X953315Y343435D02*
X953315Y313965D01*
X953315Y343435D02*
X965785Y343435D01*
X965785Y313965D01*
X953315Y313965D01*
X953315Y315893D02*
X965785Y315893D01*
X965785Y317821D02*
X953315Y317821D01*
X953315Y319749D02*
X965785Y319749D01*
X965785Y321677D02*
X953315Y321677D01*
X953315Y323605D02*
X965785Y323605D01*
X965785Y325533D02*
X953315Y325533D01*
X953315Y327461D02*
X965785Y327461D01*
X965785Y329389D02*
X953315Y329389D01*
X953315Y331317D02*
X965785Y331317D01*
X965785Y333245D02*
X953315Y333245D01*
X953315Y335173D02*
X965785Y335173D01*
X965785Y337101D02*
X953315Y337101D01*
X953315Y339029D02*
X965785Y339029D01*
X965785Y340957D02*
X953315Y340957D01*
X953315Y342885D02*
X965785Y342885D01*
D16*
X855200Y329800D03*
X855200Y312800D03*
D17*
X1060000Y40000D03*
X1060000Y600000D03*
X40000Y600000D03*
X40000Y40000D03*
D18*
X242600Y25320D03*
X293400Y25320D03*
D19*
X768000Y237000D03*
X791000Y237000D03*
X818000Y237000D03*
X848000Y237000D03*
X872000Y236000D03*
X893000Y235000D03*
X915000Y235000D03*
X938000Y235000D03*
X939000Y215000D03*
X916000Y216000D03*
X894000Y216000D03*
X873000Y217000D03*
X850000Y218000D03*
X820000Y218000D03*
X792000Y218000D03*
X770000Y218000D03*
X921000Y306000D03*
X936000Y307000D03*
X958000Y301000D03*
X972000Y304000D03*
X921000Y289000D03*
X943000Y289000D03*
X961000Y290000D03*
X1001000Y42000D03*
X986000Y42000D03*
X987000Y27000D03*
X1001000Y28000D03*
X602000Y85000D03*
X613000Y85000D03*
X624000Y85000D03*
X635000Y85000D03*
X646000Y85000D03*
X602000Y73000D03*
X616000Y73000D03*
X631000Y73000D03*
X646000Y73000D03*
X369000Y493000D03*
X387000Y493000D03*
X407000Y493000D03*
X424000Y493000D03*
X438000Y493000D03*
X452000Y493000D03*
X466000Y493000D03*
X481000Y493000D03*
X369000Y476000D03*
X387000Y476000D03*
X407000Y476000D03*
X424000Y476000D03*
X438000Y476000D03*
X452000Y476000D03*
X466000Y476000D03*
X481000Y476000D03*
X370000Y461000D03*
X388000Y461000D03*
X407000Y461000D03*
X425000Y461000D03*
X438000Y461000D03*
X452000Y461000D03*
X467000Y461000D03*
X481000Y461000D03*
X746000Y505000D03*
X759000Y505000D03*
X771000Y505000D03*
X783000Y505000D03*
X795000Y505000D03*
X808000Y505000D03*
X821000Y505000D03*
X733000Y505000D03*
X897000Y505000D03*
X885000Y505000D03*
X873000Y505000D03*
X861000Y505000D03*
X848000Y505000D03*
X834000Y505000D03*
X37000Y398000D03*
X54000Y398000D03*
X73000Y398000D03*
X92000Y398000D03*
X109000Y399000D03*
X109000Y413000D03*
X92000Y413000D03*
X73000Y413000D03*
X54000Y413000D03*
X37000Y413000D03*
X109000Y428000D03*
X92000Y428000D03*
X73000Y428000D03*
X54000Y428000D03*
X38000Y428000D03*
X72000Y444000D03*
X91000Y444000D03*
X109000Y444000D03*
X54000Y444000D03*
X37000Y444000D03*
X181000Y50000D03*
X194000Y53000D03*
X207000Y53000D03*
X221000Y53000D03*
X182000Y36000D03*
X195000Y36000D03*
X207000Y36000D03*
X223000Y36000D03*
X223000Y22000D03*
X308000Y54000D03*
X322000Y54000D03*
X309000Y39000D03*
X323000Y40000D03*
X310000Y20000D03*
X322000Y19000D03*
X235000Y54000D03*
X248000Y54000D03*
X284000Y54000D03*
X298000Y54000D03*
X410000Y160000D03*
X429000Y160000D03*
X446000Y161000D03*
X410000Y144000D03*
X429000Y144000D03*
X446000Y145000D03*
X410000Y126000D03*
X429000Y126000D03*
X446000Y127000D03*
X410000Y107000D03*
X429000Y108000D03*
X446000Y108000D03*
X410000Y90000D03*
X429000Y90000D03*
X446000Y90000D03*
D20*
X897750Y352000D02*
X898050Y351700D01*
D21*
X881300Y351700D01*
X881000Y352000D01*
D22*
X881300Y351700D02*
X839300Y351700D01*
X839000Y352000D01*
D19*
X839000Y352000D03*
X681000Y374000D03*
D22*
X666000Y389000D01*
X641000Y389000D01*
X605000Y353000D02*
X594000Y353000D01*
X557000Y390000D01*
X595000Y491000D02*
X612000Y491000D01*
X557000Y453000D02*
X557000Y390000D01*
X557000Y453000D02*
X595000Y491000D01*
X612000Y491000D02*
X692000Y571000D01*
X760000Y571000D01*
D21*
X867150Y575150D02*
X867150Y591500D01*
X867150Y575150D02*
X867000Y575000D01*
D22*
X867150Y575150D02*
X867150Y568150D01*
X771000Y560000D02*
X760000Y571000D01*
X771000Y560000D02*
X859000Y560000D01*
X867150Y568150D01*
X641000Y389000D02*
X605000Y353000D01*
D20*
X855200Y329800D02*
X858000Y329800D01*
X896950Y329800D02*
X898050Y328700D01*
D22*
X916300Y328700D02*
X959550Y328700D01*
X916300Y328700D02*
X916000Y329000D01*
D21*
X916300Y328700D02*
X898050Y328700D01*
X885300Y328700D01*
X885000Y329000D01*
D22*
X885300Y328700D02*
X870300Y328700D01*
X870000Y329000D01*
D21*
X870300Y328700D02*
X856300Y328700D01*
X855200Y329800D01*
X838200Y329800D01*
X838000Y330000D01*
D22*
X838200Y329800D02*
X821800Y329800D01*
X807000Y315000D01*
X807000Y288000D01*
X977800Y420200D02*
X977800Y449400D01*
X807000Y288000D02*
X822000Y273000D01*
X969000Y273000D01*
X1013000Y317000D01*
X1013000Y385000D01*
X977800Y420200D01*
X822000Y273000D02*
X654000Y273000D01*
X615000Y312000D01*
X416000Y312000D01*
X377000Y351000D01*
X173000Y351000D01*
X90000Y268000D01*
X90000Y136000D01*
X80000Y126000D01*
X62000Y126000D02*
X49000Y113000D01*
X48000Y112000D01*
X48000Y104000D01*
X62000Y126000D02*
X80000Y126000D01*
D19*
X48000Y104000D03*
X49000Y113000D03*
X1049000Y208000D03*
X1049000Y216000D03*
D22*
X994000Y70000D02*
X984000Y70000D01*
X975000Y70000D01*
X1049000Y125000D02*
X1049000Y216000D01*
X1049000Y125000D02*
X994000Y70000D01*
D19*
X975000Y70000D03*
X984000Y70000D03*
D23*
X673000Y449400D02*
X673000Y488000D01*
X715000Y530000D02*
X884000Y530000D01*
X715000Y530000D02*
X673000Y488000D01*
D19*
X884000Y530000D03*
D23*
X647600Y488600D02*
X647600Y449400D01*
X917150Y574150D02*
X917150Y591500D01*
X705000Y546000D02*
X647600Y488600D01*
X705000Y546000D02*
X889000Y546000D01*
X917150Y574150D01*
D19*
X660000Y413000D03*
D23*
X664000Y417000D01*
X709000Y417000D01*
X723800Y431800D01*
X723800Y449400D01*
D19*
X178000Y227000D03*
D23*
X237000Y286000D01*
X433000Y286000D01*
D19*
X433000Y286000D03*
X181000Y215000D03*
D23*
X241000Y275000D01*
X433000Y275000D01*
D19*
X433000Y275000D03*
M02*
